<?xml version="1.0" encoding="UTF-8"?>
<svg version="1.1" xmlns="http://www.w3.org/2000/svg" width="512" height="512">
<path d="M0 0 C2.20898438 1.51635742 2.20898438 1.51635742 4 4 C4.3491005 6.8896512 4.4681562 9.3859271 4.390625 12.265625 C4.38496521 13.05902283 4.37930542 13.85242065 4.37347412 14.66986084 C4.35113147 17.19719473 4.30094176 19.72309665 4.25 22.25 C4.22993214 23.96612532 4.21168187 25.68227292 4.1953125 27.3984375 C4.15127395 31.5995078 4.08226326 35.79951135 4 40 C5.27746094 39.9690625 6.55492187 39.938125 7.87109375 39.90625 C44.33107304 39.96314094 82.13814188 59.49050177 109 83 C109.83660156 83.71542969 110.67320312 84.43085937 111.53515625 85.16796875 C145.81786837 115.10573127 164.09799202 160.0964006 167.4921875 204.91015625 C170.58698321 255.057541 158.85690274 312.57759047 125.2265625 351.49609375 C124.49179687 352.32238281 123.75703125 353.14867187 123 354 C122.24460937 354.89847656 121.48921875 355.79695313 120.7109375 356.72265625 C116.11792918 362.04127012 111.25123484 366.65527888 105.75 371 C105.17161377 371.45697266 104.59322754 371.91394531 103.99731445 372.38476562 C97.84619108 377.09724148 92.66467004 379.74312311 84.78125 379.45703125 C79.84829219 378.6464188 76.77119249 376.15932975 73 373 C72.22052002 372.34813721 72.22052002 372.34813721 71.42529297 371.68310547 C68.42847993 369.16537188 65.4615771 366.61550104 62.51171875 364.04296875 C56.93456422 359.18643205 51.23797622 354.44509934 45.3359375 349.98828125 C41.03249959 346.32532156 39.24399423 341.9868102 38.5625 336.4375 C39.42564876 329.6556169 41.76312781 325.67822103 46.98828125 321.515625 C48.35937557 320.4826452 49.73182909 319.45146762 51.10546875 318.421875 C75.5001509 299.94236357 89.30340749 271.78180999 93.49609375 241.765625 C97.24243247 210.02415906 89.24162213 177.16774956 69.40234375 151.90234375 C52.37078548 131.32600587 31.7511962 118.81481238 7 109 C7.01047363 109.82725586 7.02094727 110.65451172 7.03173828 111.50683594 C7.07330912 115.2545264 7.09932992 119.00216832 7.125 122.75 C7.14175781 124.05195313 7.15851563 125.35390625 7.17578125 126.6953125 C7.18222656 127.94570312 7.18867188 129.19609375 7.1953125 130.484375 C7.20578613 131.63647461 7.21625977 132.78857422 7.22705078 133.97558594 C7.00545242 136.92737148 6.59697368 138.54476928 5 141 C2.4070697 143.09428986 0.86651006 142.99612208 -2.49609375 142.8984375 C-8.15898859 142.10616935 -12.59736612 139.20379696 -17.4375 136.3125 C-19.49041048 135.11897438 -21.543813 133.92629477 -23.59765625 132.734375 C-24.65355957 132.11626953 -25.70946289 131.49816406 -26.79736328 130.86132812 C-31.95412487 127.86428968 -37.16503108 124.96571818 -42.375 122.0625 C-44.47412632 120.8883211 -46.57308376 119.71384024 -48.671875 118.5390625 C-50.78121711 117.35931619 -52.89059215 116.17962876 -55 115 C-63.33610193 110.33826255 -71.67018022 105.67295481 -80 101 C-81.01964844 100.42830078 -82.03929687 99.85660156 -83.08984375 99.26757812 C-92.70332573 93.87300639 -102.31627519 88.47428843 -111.8125 82.875 C-112.72829834 82.34362427 -112.72829834 82.34362427 -113.66259766 81.80151367 C-116.58926115 80.05398997 -118.06797214 78.8980418 -120 76 C-120.4375 72.625 -120.4375 72.625 -120 69 C-116.87443606 65.41505117 -113.57465461 62.89515909 -109.51171875 60.4609375 C-108.42955078 59.80802734 -107.34738281 59.15511719 -106.23242188 58.48242188 C-105.05088051 57.77978097 -103.86923679 57.07731218 -102.6875 56.375 C-101.44431792 55.62882726 -100.20148705 54.88206913 -98.95898438 54.13476562 C-94.97935702 51.74520963 -90.99061463 49.37114952 -87 47 C-86.33953674 46.60735962 -85.67907349 46.21471924 -84.99859619 45.81018066 C-78.98777427 42.2373132 -72.974641 38.66835757 -66.95703125 35.10693359 C-58.59111903 30.15269575 -50.26185939 25.14241652 -41.96081543 20.08029175 C-38.01073895 17.67393192 -34.05322521 15.27981009 -30.09716797 12.88330078 C-28.08729582 11.66115402 -26.08088411 10.43329124 -24.07861328 9.19873047 C-21.47828092 7.59587402 -18.86615682 6.01434734 -16.25 4.4375 C-15.5180542 3.97794922 -14.7861084 3.51839844 -14.03198242 3.04492188 C-9.12290004 0.12541592 -5.72152918 -0.80795653 0 0 Z " fill="#3E73FF" transform="translate(294,32)"/>
<path d="M0 0 C3.46870269 1.4760437 6.12066841 3.58710219 9 6 C9.5249707 6.43989258 10.04994141 6.87978516 10.59082031 7.33300781 C13.60589278 9.87138898 16.59204426 12.44085799 19.5625 15.03125 C22.4639737 17.55399152 25.42403289 19.98627607 28.4375 22.375 C29.22125 22.99890625 30.005 23.6228125 30.8125 24.265625 C32.22497483 25.38551576 33.64138224 26.5004725 35.0625 27.609375 C39.53993835 31.22863767 42.5203708 34.3847949 43.3125 40.35546875 C43.59426169 46.17560859 42.60991095 50.28567142 39 55 C36.79558724 56.79073832 34.74505453 58.29929653 32.375 59.8125 C9.25875319 75.56621621 -4.10005877 101.88742121 -9.75 128.8125 C-15.62522097 160.74449192 -9.95252884 194.62103992 8.55859375 221.62109375 C25.22878739 245.05953491 48.55378081 259.5777298 75 270 C74.98952637 269.17274414 74.97905273 268.34548828 74.96826172 267.49316406 C74.92669088 263.7454736 74.90067008 259.99783168 74.875 256.25 C74.85824219 254.94804687 74.84148437 253.64609375 74.82421875 252.3046875 C74.81777344 251.05429687 74.81132812 249.80390625 74.8046875 248.515625 C74.79421387 247.36352539 74.78374023 246.21142578 74.77294922 245.02441406 C74.99452369 242.07294678 75.39161335 240.44944331 77 238 C80.25472919 235.67519344 83.08650973 235.73035043 87 236 C89.76293945 237.15478516 89.76293945 237.15478516 92.61328125 238.7890625 C93.68352539 239.39379395 94.75376953 239.99852539 95.85644531 240.62158203 C96.99694336 241.28270996 98.13744141 241.94383789 99.3125 242.625 C100.5171806 243.31100437 101.72259681 243.9957184 102.92871094 244.67919922 C105.41050849 246.08748708 107.8885092 247.50213011 110.36376953 248.921875 C114.7764639 251.44934335 119.21716092 253.92593058 123.65893555 256.40185547 C133.56727863 261.92535957 143.44527124 267.50272827 153.31494141 273.0949707 C158.37988738 275.96260469 163.45326806 278.81401326 168.5390625 281.64453125 C201.31589651 299.8906809 201.31589651 299.8906809 202.75 304.3125 C203.05563559 307.59808256 202.61938956 309.12926396 201 312 C197.41895129 315.13096059 193.59182193 317.5454506 189.49609375 319.94921875 C188.86931732 320.31889267 188.24254089 320.68856659 187.59677124 321.06944275 C186.24870671 321.86418086 184.89965571 322.65724765 183.54971313 323.4487915 C179.92671432 325.57350105 176.31119108 327.71085901 172.6953125 329.84765625 C171.96014908 330.28176819 171.22498566 330.71588013 170.46754456 331.16314697 C163.54520979 335.25649334 156.6752677 339.43280936 149.8125 343.625 C138.96912662 350.24224209 128.04460809 356.70899948 117.05493164 363.08032227 C111.94675091 366.04850796 106.86795429 369.03100862 101.9375 372.2890625 C101.21208008 372.76609619 100.48666016 373.24312988 99.73925781 373.73461914 C98.48111619 374.5744611 97.23389745 375.43111377 96.00292969 376.31030273 C92.04413231 378.95949795 88.74273228 379.48403914 84.12207031 379.62670898 C80.75839737 378.63331869 79.75929779 376.9832636 78 374 C77.65712789 371.1454975 77.53010507 368.6959425 77.609375 365.85546875 C77.61503479 365.08568192 77.62069458 364.31589508 77.62652588 363.52278137 C77.64882128 361.07704057 77.69900125 358.6327939 77.75 356.1875 C77.770074 354.52410978 77.7883232 352.86069647 77.8046875 351.19726562 C77.84866316 347.13093942 77.91764021 343.06572256 78 339 C77.18772949 338.95174072 76.37545898 338.90348145 75.53857422 338.85375977 C68.25494042 338.36617242 61.25017903 337.51867261 54.125 335.9375 C53.15103271 335.72198486 52.17706543 335.50646973 51.17358398 335.28442383 C34.25445573 331.35955509 18.20963967 325.36274701 3 317 C1.98292969 316.45988281 0.96585937 315.91976563 -0.08203125 315.36328125 C-18.12882888 305.38560063 -34.61132265 291.48116682 -47 275 C-47.39783691 274.47712402 -47.79567383 273.95424805 -48.20556641 273.41552734 C-79.07432371 232.62251876 -90.86836817 179.4722113 -84.25 129.03125 C-78.59509156 89.26776218 -64.15319388 49.39690927 -36 20 C-35.195625 19.154375 -34.39125 18.30875 -33.5625 17.4375 C-32.716875 16.633125 -31.87125 15.82875 -31 15 C-29.92492187 13.96746094 -29.92492187 13.96746094 -28.828125 12.9140625 C-12.22683655 -2.60453323 -12.22683655 -2.60453323 0 0 Z " fill="#16A4FF" transform="translate(136,101)"/>
</svg>
