<?xml version="1.0" encoding="UTF-8"?>
<svg version="1.1" xmlns="http://www.w3.org/2000/svg" width="512" height="512">
<path d="M0 0 C3.3881457 2.19486666 5.75780975 4.28780176 8.3125 7.375 C9.88387266 9.0163577 9.88387266 9.0163577 12.1875 9.625 C15.76973949 8.90930546 19.05664048 7.90912228 22.50317383 6.72753906 C34.70074146 2.5945551 46.78290194 3.97641567 58.5078125 9.06640625 C70.81876517 15.22188258 79.38097536 23.96045924 84.44140625 36.80859375 C89.79479678 53.24182391 86.89777126 68.53760307 82.53515625 84.83203125 C77.0020887 105.50284829 73.78562469 125.2548165 73.1875 146.625 C73.15623016 147.72902161 73.15623016 147.72902161 73.12432861 148.85534668 C72.77872229 161.11110216 72.47274536 173.36770409 72.1875 185.625 C74.09813232 186.07879028 74.09813232 186.07879028 76.04736328 186.54174805 C79.31320851 187.31741211 81.5325269 188.14357702 84.0625 190.4375 C84.61679687 190.91832031 85.17109375 191.39914063 85.7421875 191.89453125 C90.43412936 197.51218056 89.5548842 204.60770249 89.5625 211.5 C89.58699219 212.65886719 89.61148437 213.81773437 89.63671875 215.01171875 C89.65995122 221.7878566 89.3160666 226.16049868 85.1875 231.625 C81.00004634 235.50605461 77.95201793 236.75690617 72.30078125 236.72265625 C71.36298828 236.71943359 70.42519531 236.71621094 69.45898438 236.71289062 C68.48251953 236.70451172 67.50605469 236.69613281 66.5 236.6875 C65.51193359 236.68298828 64.52386719 236.67847656 63.50585938 236.67382812 C61.06634526 236.66204303 58.62695311 236.64559011 56.1875 236.625 C56.16171875 237.68976563 56.1359375 238.75453125 56.109375 239.8515625 C55.65216806 252.96322451 53.28870657 264.84967132 47.1875 276.625 C46.71828125 277.54667969 46.2490625 278.46835937 45.765625 279.41796875 C39.39335027 291.14598867 30.26096612 301.11893331 19.1875 308.625 C18.43831299 308.82907471 17.68912598 309.03314941 16.91723633 309.2434082 C13.80447811 310.29618497 12.32413589 311.08795044 10.1875 313.625 C8.43478756 320.14440662 9.02230264 327.25069724 9.125 333.9375 C9.12192462 335.84180786 9.11480872 337.74611377 9.10351562 339.65039062 C9.0846918 344.30986896 9.1213271 348.96598483 9.1875 353.625 C9.71260162 353.71585373 10.23770325 353.80670746 10.77871704 353.90031433 C19.37132352 355.4966838 27.73992399 357.88767723 36.1484375 360.23828125 C37.78688854 360.69436883 39.42536766 361.15035553 41.06387329 361.60624695 C44.48538218 362.55932239 47.90602565 363.51543549 51.32617188 364.47338867 C55.67652808 365.69134629 60.02969828 366.89889372 64.38368797 368.10378742 C67.76551886 369.04143877 71.14535979 369.98611208 74.52470779 370.93266869 C76.12734212 371.38039866 77.73065721 371.82570015 79.33469772 372.26836586 C100.93129007 378.23632532 119.04517288 385.84288332 131.1875 405.625 C138.17401471 418.33290378 139.65519529 431.31749219 139.5859375 445.59375 C139.58796456 447.08776999 139.59088121 448.58178901 139.59463501 450.07580566 C139.59901779 453.17856439 139.59275246 456.28106115 139.57861328 459.38378906 C139.561403 463.35260239 139.57146197 467.32081219 139.58933067 471.28960419 C139.60017689 474.36259508 139.59672044 477.43544288 139.5889473 480.50843811 C139.58695379 481.97241794 139.58937459 483.43641097 139.59638596 484.90037537 C139.60402672 486.9407424 139.59031078 488.98115547 139.57568359 491.02148438 C139.57329681 492.17918335 139.57091003 493.33688232 139.56845093 494.52966309 C139.14162463 497.99775069 138.27608666 499.84696246 136.1875 502.625 C132.8258153 504.86612313 131.73291389 504.87658703 127.80352974 504.88226891 C126.67898671 504.8887178 125.55444369 504.89516669 124.3958236 504.901811 C123.15508737 504.8987138 121.91435114 504.8956166 120.63601685 504.89242554 C119.32207754 504.89695665 118.00813823 504.90148776 116.65438259 504.90615618 C112.99948183 504.918423 109.34467234 504.91812141 105.68975568 504.91576743 C101.75101123 504.91536019 97.81229641 504.92638951 93.87356567 504.93588257 C86.15393697 504.95251365 78.4343388 504.95799306 70.71469368 504.95910732 C64.44144292 504.96005679 58.16820225 504.96416201 51.89495468 504.97050858 C34.11931817 504.98812666 16.34370584 504.99734655 -1.43193947 504.99584763 C-2.39074222 504.99576772 -3.34954497 504.9956878 -4.33740234 504.99560547 C-5.77735719 504.99548283 -5.77735719 504.99548283 -7.24640204 504.99535771 C-22.80780425 504.99454462 -38.36910971 505.01368642 -53.93048392 505.0418822 C-69.89881519 505.07058765 -85.86709923 505.08442379 -101.83545697 505.08269465 C-110.80449897 505.08202994 -119.77343954 505.0875575 -128.74245834 505.10905075 C-136.37841911 505.12723182 -144.01423248 505.13163529 -151.65020548 505.1180319 C-155.54756178 505.11148664 -159.44463507 505.11144076 -163.34196472 505.1287384 C-167.56387554 505.14728422 -171.78512665 505.13495546 -176.00704956 505.11947632 C-177.24332435 505.12976344 -178.47959913 505.14005057 -179.75333679 505.15064943 C-180.88309531 505.14145184 -182.01285383 505.13225425 -183.17684746 505.12277794 C-184.15148221 505.12321267 -185.12611696 505.12364741 -186.1302861 505.12409532 C-189.61400827 504.47585864 -191.29846255 503.0777493 -193.8125 500.625 C-194.91879569 497.30611294 -194.95964886 494.79295546 -194.98950195 491.29614258 C-195.00233719 489.9866011 -195.01517242 488.67705963 -195.02839661 487.32783508 C-195.03657287 485.8917377 -195.04401489 484.45563597 -195.05078125 483.01953125 C-195.05485678 482.29203863 -195.0589323 481.56454601 -195.06313133 480.81500816 C-195.0840047 476.95162619 -195.09829129 473.08827968 -195.10766602 469.22485352 C-195.11863042 465.27696272 -195.15290801 461.3296513 -195.19283772 457.38196278 C-195.21930502 454.31283196 -195.22738492 451.24383161 -195.23094749 448.17459679 C-195.23574988 446.72246146 -195.24717654 445.27032933 -195.26598549 443.81830788 C-195.50062505 424.47520613 -190.66094428 407.11887387 -177.14013672 392.73706055 C-164.5651386 380.06618393 -147.48726212 375.72470121 -130.80859375 371.10546875 C-128.99431687 370.59750027 -127.18019696 370.08897083 -125.3662262 369.57991028 C-121.59139483 368.52227602 -117.81520202 367.46970831 -114.0378418 366.42114258 C-109.19349815 365.0762029 -104.35209372 363.72102075 -99.51156521 362.36242199 C-95.77818584 361.31529382 -92.0436873 360.27220775 -88.30879402 359.23049355 C-86.52191813 358.73185118 -84.73530902 358.23225181 -82.9489727 357.73167992 C-80.46371755 357.03618665 -77.97709334 356.34583363 -75.48999023 355.65698242 C-74.75286804 355.44977066 -74.01574585 355.2425589 -73.25628662 355.02906799 C-70.34458096 354.22750779 -67.84863413 353.625 -64.8125 353.625 C-64.65821538 348.0550961 -64.58345223 342.49172141 -64.58056641 336.91967773 C-64.56859974 335.02716594 -64.53534526 333.13465955 -64.47998047 331.24291992 C-64.12582965 322.31816608 -64.12582965 322.31816608 -65.8125 313.625 C-69.33830335 309.93729751 -73.11726942 308.44472443 -77.8125 306.625 C-94.57247233 295.05450654 -106.71936187 274.89064016 -110.4921875 255.05078125 C-111.45635366 248.83653223 -111.89472225 242.90129858 -111.8125 236.625 C-112.71959717 236.64856567 -112.71959717 236.64856567 -113.64501953 236.67260742 C-116.40908296 236.7353188 -119.17299621 236.77410411 -121.9375 236.8125 C-122.88882813 236.83763672 -123.84015625 236.86277344 -124.8203125 236.88867188 C-131.0645688 236.95371621 -135.63856329 236.51999215 -140.45703125 232.125 C-145.60225224 225.51709077 -145.02739258 219.90037147 -145.0625 211.8125 C-145.083125 210.63623047 -145.10375 209.45996094 -145.125 208.24804688 C-145.16009073 200.48860812 -144.73607959 195.61656981 -139.125 189.875 C-135.64309572 187.14174598 -132.07871723 186.59159917 -127.8125 185.625 C-128.11504935 172.62413337 -128.44431671 159.6241823 -128.8125 146.625 C-128.84456543 145.4793457 -128.87663086 144.33369141 -128.90966797 143.15332031 C-129.07813149 137.63114306 -129.34537704 132.13037773 -129.8125 126.625 C-129.87598633 125.87492676 -129.93947266 125.12485352 -130.00488281 124.35205078 C-131.35089094 110.09444487 -134.97692587 96.41083088 -138.67578125 82.61889648 C-138.87327972 81.87964432 -139.0707782 81.14039215 -139.27426147 80.3787384 C-139.64658352 78.9907233 -140.02278217 77.60373946 -140.40371704 76.21806335 C-144.88124451 59.59070386 -143.63920756 43.66760536 -135.53125 28.4453125 C-128.52920261 16.95558928 -117.62107616 9.52417376 -104.8125 5.625 C-92.74225152 3.19135044 -82.31209305 4.71858981 -70.8125 8.625 C-69.3275 9.12 -69.3275 9.12 -67.8125 9.625 C-65.40100975 7.92774124 -65.40100975 7.92774124 -62.875 5.5625 C-44.74676447 -9.85250293 -20.41802693 -12.44395966 0 0 Z " fill="#E5F6FD" transform="translate(283.8125,7.375)"/>
<path d="M0 0 C0.0309375 1.794375 0.0309375 1.794375 0.0625 3.625 C1.03420269 12.15439032 5.60820224 21.32105897 11.9375 27.125 C21.38111053 34.40062212 30.947798 36.05752928 42.64941406 35.3125 C50.46874527 34.27295451 57.64874572 29.87286925 63.0625 24.25 C68.66511008 16.91696352 71.54915378 9.16720654 72 0 C77.24212146 0.56561018 82.09785644 1.43444696 87.18774414 2.87011719 C87.85732147 3.05730316 88.5268988 3.24448914 89.21676636 3.43734741 C91.40787303 4.05151091 93.59652031 4.67396941 95.78515625 5.296875 C97.32951142 5.73227721 98.87398285 6.16726725 100.41856384 6.60186768 C103.65142113 7.51284371 106.88312825 8.42775876 110.11401367 9.34570312 C114.21114548 10.50958291 118.31052968 11.66527039 122.41077518 12.81812668 C125.60245638 13.7162424 128.79309328 14.61802291 131.98342705 15.52091217 C133.49190993 15.94753329 135.00064591 16.37326074 136.50966072 16.79799652 C159.8541325 23.37713009 181.91519714 29.59826944 195 52 C201.957958 64.73724551 203.46779685 77.67155703 203.3984375 91.96875 C203.40046456 93.46276999 203.40338121 94.95678901 203.40713501 96.45080566 C203.41151779 99.55356439 203.40525246 102.65606115 203.39111328 105.75878906 C203.373903 109.72760239 203.38396197 113.69581219 203.40183067 117.66460419 C203.41267689 120.73759508 203.40922044 123.81044288 203.4014473 126.88343811 C203.39945379 128.34741794 203.40187459 129.81141097 203.40888596 131.27537537 C203.41652672 133.3157424 203.40281078 135.35615547 203.38818359 137.39648438 C203.38579681 138.55418335 203.38341003 139.71188232 203.38095093 140.90466309 C202.95412463 144.37275069 202.08858666 146.22196246 200 149 C196.6383153 151.24112313 195.54541389 151.25158703 191.61602974 151.25726891 C190.49148671 151.2637178 189.36694369 151.27016669 188.2083236 151.276811 C186.96758737 151.2737138 185.72685114 151.2706166 184.44851685 151.26742554 C182.47760789 151.27422221 182.47760789 151.27422221 180.46688259 151.28115618 C176.81198183 151.293423 173.15717234 151.29312141 169.50225568 151.29076743 C165.56351123 151.29036019 161.62479641 151.30138951 157.68606567 151.31088257 C149.96643697 151.32751365 142.2468388 151.33299306 134.52719368 151.33410732 C128.25394292 151.33505679 121.98070225 151.33916201 115.70745468 151.34550858 C97.93181817 151.36312666 80.15620584 151.37234655 62.38056053 151.37084763 C61.42175778 151.37076772 60.46295503 151.3706878 59.47509766 151.37060547 C58.03514281 151.37048283 58.03514281 151.37048283 56.56609796 151.37035771 C41.00469575 151.36954462 25.44339029 151.38868642 9.88201608 151.4168822 C-6.08631519 151.44558765 -22.05459923 151.45942379 -38.02295697 151.45769465 C-46.99199897 151.45702994 -55.96093954 151.4625575 -64.92995834 151.48405075 C-72.56591911 151.50223182 -80.20173248 151.50663529 -87.83770548 151.4930319 C-91.73506178 151.48648664 -95.63213507 151.48644076 -99.52946472 151.5037384 C-103.75137554 151.52228422 -107.97262665 151.50995546 -112.19454956 151.49447632 C-113.43082435 151.50476344 -114.66709913 151.51505057 -115.94083679 151.52564943 C-117.07059531 151.51645184 -118.20035383 151.50725425 -119.36434746 151.49777794 C-120.33898221 151.49821267 -121.31361696 151.49864741 -122.3177861 151.49909532 C-125.80150827 150.85085864 -127.48596255 149.4527493 -130 147 C-131.10629569 143.68111294 -131.14714886 141.16795546 -131.17700195 137.67114258 C-131.18983719 136.3616011 -131.20267242 135.05205963 -131.21589661 133.70283508 C-131.22407287 132.2667377 -131.23151489 130.83063597 -131.23828125 129.39453125 C-131.24235678 128.66703863 -131.2464323 127.93954601 -131.25063133 127.19000816 C-131.2715047 123.32662619 -131.28579129 119.46327968 -131.29516602 115.59985352 C-131.30613042 111.65196272 -131.34040801 107.7046513 -131.38033772 103.75696278 C-131.40680502 100.68783196 -131.41488492 97.61883161 -131.41844749 94.54959679 C-131.42324988 93.09746146 -131.43467654 91.64532933 -131.45348549 90.19330788 C-131.68812505 70.85020613 -126.84844428 53.49387387 -113.32763672 39.11206055 C-100.76311341 26.4517386 -83.69534237 22.10370181 -67.03125 17.48046875 C-65.21937941 16.9724615 -63.40765499 16.46393268 -61.59606934 15.95491028 C-57.82545585 14.89720195 -54.05344568 13.84468541 -50.28027344 12.79614258 C-45.44473939 11.45208563 -40.61250843 10.09656777 -35.78119659 8.73742199 C-32.05230085 7.68945053 -28.32197687 6.64664332 -24.59117126 5.60549355 C-22.80778429 5.10730968 -21.02479071 4.60771531 -19.24220276 4.10667992 C-16.7598697 3.40997857 -14.27575358 2.7200499 -11.79101562 2.03198242 C-11.05748871 1.82477066 -10.32396179 1.6175589 -9.56820679 1.40406799 C-6.20944157 0.48131166 -3.51747428 0 0 0 Z " fill="#E3F5FD" transform="translate(220,361)"/>
<path d="M0 0 C0.8325267 -0.00382555 1.66505341 -0.00765109 2.52280819 -0.01159257 C5.30474978 -0.02188849 8.08648366 -0.0179369 10.86843872 -0.01396179 C12.86617219 -0.01831016 14.86390398 -0.02349373 16.8616333 -0.02944946 C22.28314866 -0.04283757 27.70459429 -0.04341831 33.12612295 -0.04088616 C37.65394372 -0.03981627 42.18175039 -0.04470031 46.70956814 -0.04949158 C57.39274406 -0.06058624 68.07588483 -0.06102448 78.75906372 -0.05497742 C89.77559364 -0.04893748 100.79199585 -0.06124928 111.80850399 -0.08254749 C121.27110033 -0.10016802 130.73365605 -0.1061641 140.1962682 -0.10290974 C145.84596741 -0.10109739 151.49557552 -0.10372835 157.14525986 -0.11762428 C162.45913435 -0.13020521 167.7728099 -0.1282559 173.08668137 -0.11521339 C175.03452115 -0.11284861 176.98237495 -0.11557877 178.93019867 -0.12383652 C181.594158 -0.13431402 184.25745101 -0.12619529 186.92138672 -0.11352539 C187.68774472 -0.12089968 188.45410272 -0.12827396 189.2436837 -0.13587171 C195.25090534 -0.07598121 200.90137284 1.01786182 205.64627075 4.97944641 C206.10130981 5.56725891 206.55634888 6.15507141 207.025177 6.76069641 C207.49826294 7.34850891 207.97134888 7.93632141 208.45877075 8.54194641 C211.81072829 13.64527277 210.85231674 20.15260058 210.900177 26.01069641 C210.92918091 27.17858704 210.95818481 28.34647766 210.98806763 29.54975891 C211.03831791 36.3683363 210.75804568 40.76615958 206.587677 46.26069641 C202.40022334 50.14175102 199.35219493 51.39260258 193.70095825 51.35835266 C192.76316528 51.35513 191.82537231 51.35190735 190.85916138 51.34858704 C189.39446411 51.33601868 189.39446411 51.33601868 187.900177 51.32319641 C186.41807739 51.31642883 186.41807739 51.31642883 184.90603638 51.30952454 C182.46652226 51.29773944 180.02713011 51.28128652 177.587677 51.26069641 C177.56189575 52.32546204 177.5361145 53.39022766 177.509552 54.48725891 C177.05234507 67.59892092 174.68888357 79.48536773 168.587677 91.26069641 C168.11845825 92.1823761 167.6492395 93.10405579 167.165802 94.05366516 C160.79352727 105.78168508 151.66114313 115.75462972 140.587677 123.26069641 C139.46280884 123.57659729 139.46280884 123.57659729 138.31521606 123.89888 C135.23723193 124.95834429 133.72168136 125.76535447 131.587677 128.26069641 C129.85268842 134.58410979 130.46786095 141.52008992 130.587677 148.01069641 C130.59589105 150.73776047 130.59164671 153.46459931 130.58596802 156.19166565 C130.58707409 157.88470246 130.59859407 159.57777802 130.62258911 161.27064514 C130.77100384 174.0517147 128.22377726 185.40445862 119.462677 195.26069641 C110.35743995 203.1599418 100.40314946 205.33677733 88.7048645 204.71382141 C83.70902431 204.26844709 79.77108262 203.0612299 75.587677 200.26069641 C74.54933716 199.60714172 74.54933716 199.60714172 73.49002075 198.94038391 C65.86962378 193.72717776 60.22651303 186.15154395 57.587677 177.26069641 C56.62070994 171.10563843 56.5319231 165.08997848 56.69314575 158.87788391 C56.71700232 156.21073498 56.73050662 153.54363769 56.74417114 150.87641907 C56.76488593 149.04536214 56.80534108 147.21442492 56.86526489 145.38423157 C57.24434366 136.70633505 57.24434366 136.70633505 55.587677 128.26069641 C52.05549771 124.61509227 48.25171218 123.09752991 43.587677 121.26069641 C26.83018103 109.67475734 14.68278985 89.5367209 10.9079895 69.68647766 C9.94382334 63.47222864 9.50545475 57.53699499 9.587677 51.26069641 C8.98294556 51.27640686 8.37821411 51.29211731 7.75515747 51.30830383 C4.99109405 51.37101521 2.2271808 51.40980053 -0.537323 51.44819641 C-1.48865112 51.47333313 -2.43997925 51.49846985 -3.4201355 51.52436829 C-9.6643918 51.58941262 -14.23838629 51.15568856 -19.05685425 46.76069641 C-24.20207524 40.15278718 -23.62721558 34.53606788 -23.662323 26.44819641 C-23.682948 25.27192688 -23.703573 24.09565735 -23.724823 22.88374329 C-23.77397742 12.01447126 -23.77397742 12.01447126 -20.412323 7.26069641 C-14.15632615 1.14372172 -8.52846785 -0.04181503 0 0 Z " fill="#FED1A3" transform="translate(162.41232299804688,192.7393035888672)"/>
<path d="M0 0 C8.49613587 2.86688592 14.47938368 10.56579389 18.71484375 18.22265625 C27.10955888 36.36442664 24.33314853 53.58614778 19.34765625 72.20703125 C10.0813682 106.82467208 9.91405982 137.43760717 9 174 C-57 174 -123 174 -191 174 C-191 162.78 -191 151.56 -191 140 C-176.48 140 -161.96 140 -147 140 C-147.99 135.38 -148.98 130.76 -150 126 C-150.79905993 117.01057579 -150.79905993 117.01057579 -147.875 113.3125 C-144.32504893 111.69187016 -142.68475807 111.79844846 -139 113 C-136.30518439 115.16617149 -135.51245726 116.92003823 -134.83203125 120.2734375 C-134.66123047 121.0984375 -134.49042969 121.9234375 -134.31445312 122.7734375 C-134.14880859 123.63195312 -133.98316406 124.49046875 -133.8125 125.375 C-133.63525391 126.22578125 -133.45800781 127.0765625 -133.27539062 127.953125 C-132.42908608 132.14870429 -132 135.66030838 -132 140 C-120.78 140 -109.56 140 -98 140 C-98.19741004 132.28084822 -98.19741004 132.28084822 -98.45043945 124.56347656 C-98.55278171 116.65869283 -98.55278171 116.65869283 -95.67578125 113.23046875 C-92.25076327 111.65546048 -90.5588752 111.83949722 -87 113 C-85.33862305 114.2121582 -85.33862305 114.2121582 -84 116 C-83.65942383 118.54370117 -83.65942383 118.54370117 -83.70703125 121.54296875 C-83.71669922 122.61611328 -83.72636719 123.68925781 -83.73632812 124.79492188 C-83.76146484 125.91447266 -83.78660156 127.03402344 -83.8125 128.1875 C-83.83280273 129.88422852 -83.83280273 129.88422852 -83.85351562 131.61523438 C-83.88890042 134.41063317 -83.93827052 137.20507892 -84 140 C-76.41432881 140.32570718 -76.41432881 140.32570718 -69.65625 137.3046875 C-67.72342352 135.17713597 -65.94618847 132.99425454 -64.24414062 130.67822266 C-62.88679128 128.84729264 -61.472423 127.0712625 -60.046875 125.29296875 C-30.69978663 88.30537807 -9.09772874 46.48679451 0 0 Z " fill="#D3EFFD" transform="translate(347,20)"/>
<path d="M0 0 C0.55429687 0.48082031 1.10859375 0.96164063 1.6796875 1.45703125 C6.37162936 7.07468056 5.4923842 14.17020249 5.5 21.0625 C5.52449219 22.22136719 5.54898438 23.38023437 5.57421875 24.57421875 C5.59745122 31.3503566 5.2535666 35.72299868 1.125 41.1875 C-3.06245366 45.06855461 -6.11048207 46.31940617 -11.76171875 46.28515625 C-12.69951172 46.28193359 -13.63730469 46.27871094 -14.60351562 46.27539062 C-16.06821289 46.26282227 -16.06821289 46.26282227 -17.5625 46.25 C-19.04459961 46.24323242 -19.04459961 46.24323242 -20.55664062 46.23632812 C-22.99615474 46.22454303 -25.43554689 46.20809011 -27.875 46.1875 C-27.90078125 47.25226563 -27.9265625 48.31703125 -27.953125 49.4140625 C-28.41033194 62.52572451 -30.77379343 74.41217132 -36.875 86.1875 C-37.34421875 87.10917969 -37.8134375 88.03085937 -38.296875 88.98046875 C-44.66914973 100.70848867 -53.80153388 110.68143331 -64.875 118.1875 C-65.99986816 118.50340088 -65.99986816 118.50340088 -67.14746094 118.82568359 C-70.22544507 119.88514788 -71.74099564 120.69215806 -73.875 123.1875 C-75.60998858 129.51091338 -74.99481605 136.4468935 -74.875 142.9375 C-74.86678595 145.66456406 -74.8710303 148.3914029 -74.87670898 151.11846924 C-74.87560291 152.81150605 -74.86408293 154.50458161 -74.84008789 156.19744873 C-74.69167316 168.97851829 -77.23889974 180.33126221 -86 190.1875 C-95.10523705 198.08674539 -105.05952754 200.26358092 -116.7578125 199.640625 C-121.75365269 199.19525068 -125.69159438 197.98803349 -129.875 195.1875 C-130.91333984 194.53394531 -130.91333984 194.53394531 -131.97265625 193.8671875 C-139.59305322 188.65398135 -145.23616397 181.07834754 -147.875 172.1875 C-148.83100946 165.98073975 -149.01170592 159.8269232 -148.97265625 153.55859375 C-148.97053383 152.24593285 -148.97053383 152.24593285 -148.96836853 150.90675354 C-148.96282719 148.14613238 -148.95028612 145.38559612 -148.9375 142.625 C-148.9324774 140.73893347 -148.92791583 138.85286566 -148.92382812 136.96679688 C-148.91287707 132.37366583 -148.89565384 127.78059725 -148.875 123.1875 C-148.27026855 123.39028564 -147.66553711 123.59307129 -147.04248047 123.80200195 C-146.24213379 124.06972412 -145.44178711 124.33744629 -144.6171875 124.61328125 C-143.82683105 124.87794189 -143.03647461 125.14260254 -142.22216797 125.4152832 C-127.94058326 130.11391566 -115.94490122 128.13833449 -102.6015625 121.578125 C-80.90271113 109.41784325 -68.39701931 91.75355792 -60.625 68.4375 C-58.62960841 59.7908031 -58.67515174 51.01288811 -58.55859375 42.18359375 C-58.5274221 40.2050515 -58.5274221 40.2050515 -58.49562073 38.1865387 C-58.4408911 34.70967388 -58.39126907 31.23275495 -58.34277344 27.75579834 C-58.29219562 24.1958749 -58.23670055 20.63602831 -58.18164062 17.07617188 C-58.07466146 10.11334808 -57.97308733 3.15045459 -57.875 -3.8125 C-51.47075643 -4.00707538 -45.06619664 -4.18424297 -38.66113281 -4.34960938 C-36.48459098 -4.40782298 -34.30814989 -4.46994561 -32.13183594 -4.53613281 C-28.99432737 -4.63086088 -25.85671911 -4.71128619 -22.71875 -4.7890625 C-21.75384644 -4.82125885 -20.78894287 -4.8534552 -19.7947998 -4.8866272 C-12.79864718 -5.03996564 -5.47326017 -4.96259714 0 0 Z " fill="#FEBD86" transform="translate(367.875,197.8125)"/>
<path d="M0 0 C0 11.22 0 22.44 0 34 C-66 34 -132 34 -200 34 C-200 23.11 -200 12.22 -200 1 C-180.42004757 0.86805394 -160.84008792 0.73737434 -141.26011276 0.60884857 C-132.16331195 0.54909786 -123.06651519 0.48882736 -113.96972656 0.42724609 C-75.97913438 0.17032663 -37.99173629 -0.07003085 0 0 Z " fill="#4172CA" transform="translate(356,160)"/>
<path d="M0 0 C1.4325354 0.47517816 2.86486945 0.95096332 4.29711914 1.42700195 C5.09477188 1.69188919 5.89242462 1.95677643 6.71424866 2.22969055 C8.56579651 2.85367129 10.40761568 3.50647062 12.24609375 4.16796875 C29.08746167 9.54813647 48.41446944 8.96759764 65 3 C66.56643096 2.47210506 68.13412871 1.94795851 69.70288086 1.42700195 C70.50890244 1.15910355 71.31492401 0.89120514 72.14537048 0.6151886 C72.75739822 0.41217636 73.36942596 0.20916412 74 0 C74.024875 5.5318164 74.04294235 11.06359962 74.05493164 16.59545898 C74.05993432 18.47404549 74.06673856 20.35262815 74.07543945 22.23120117 C74.08768427 24.94450839 74.09326911 27.65776376 74.09765625 30.37109375 C74.10281754 31.19959335 74.10797882 32.02809296 74.11329651 32.88169861 C74.11450775 45.71319677 71.68711593 57.08636957 62.875 67 C53.76976295 74.89924539 43.81547246 77.07608092 32.1171875 76.453125 C27.12134731 76.00775068 23.18340562 74.80053349 19 72 C17.96166016 71.34644531 17.96166016 71.34644531 16.90234375 70.6796875 C9.28194678 65.46648135 3.63883603 57.89084754 1 49 C0.04399054 42.79323975 -0.13670592 36.6394232 -0.09765625 30.37109375 C-0.09553383 29.05843285 -0.09553383 29.05843285 -0.09336853 27.71925354 C-0.08782719 24.95863238 -0.07528612 22.19809612 -0.0625 19.4375 C-0.0574774 17.55143347 -0.05291583 15.66536566 -0.04882812 13.77929688 C-0.03787707 9.18616583 -0.02065384 4.59309725 0 0 Z " fill="#F5A96C" transform="translate(219,321)"/>
<path d="M0 0 C2.73880896 1.73990106 4.74880205 3.61772585 6.984375 5.9609375 C11.61107163 10.64143293 17.75452804 12.43863201 24 14 C24 14.33 24 14.66 24 15 C22.93563721 15.0093457 21.87127441 15.01869141 20.7746582 15.02832031 C16.81395089 15.06828657 12.85401493 15.13406299 8.89379883 15.20751953 C7.1819858 15.23569086 5.47004363 15.25692452 3.75805664 15.27099609 C1.29246081 15.29247965 -1.17158861 15.33915416 -3.63671875 15.390625 C-4.77919319 15.39246796 -4.77919319 15.39246796 -5.94474792 15.39434814 C-9.51932562 15.49219484 -11.8048762 15.88380361 -14.89770508 17.72558594 C-19.67908456 22.89842664 -19.30372824 28.43383597 -19.31884766 35.11450195 C-19.32889328 36.12960342 -19.3389389 37.1447049 -19.34928894 38.19056702 C-19.38013522 41.53979943 -19.39716031 44.88895185 -19.4140625 48.23828125 C-19.43277296 50.56284779 -19.45234628 52.88740753 -19.4727478 55.21195984 C-19.52408775 61.32585645 -19.56370366 67.43977508 -19.60089111 73.55377197 C-19.64091896 79.79436703 -19.6920169 86.03487032 -19.7421875 92.27539062 C-19.83896893 104.51686264 -19.92336675 116.75838644 -20 129 C-24.95 129 -29.9 129 -35 129 C-35.0928394 115.35208221 -35.163836 101.70424005 -35.20724869 88.05607033 C-35.22808869 81.71809326 -35.25634131 75.38033286 -35.30175781 69.04248047 C-35.34534271 62.92165381 -35.36916407 56.80103507 -35.37950897 50.68006516 C-35.3868776 48.34936629 -35.40126669 46.01867831 -35.42292023 43.68806839 C-35.45212152 40.41370649 -35.45594892 37.14019463 -35.45410156 33.86572266 C-35.46848267 32.91049713 -35.48286377 31.95527161 -35.49768066 30.97109985 C-35.4407561 21.59543624 -32.57906432 13.59046767 -26.02734375 6.76171875 C-18.5097515 0.22909041 -9.83446816 -2.04068097 0 0 Z " fill="#B3E5FA" transform="translate(227,383)"/>
<path d="M0 0 C0.53882813 0.48855469 1.07765625 0.97710937 1.6328125 1.48046875 C2.18710937 1.96128906 2.74140625 2.44210938 3.3125 2.9375 C8.00444186 8.55514931 7.1251967 15.65067124 7.1328125 22.54296875 C7.15730469 23.70183594 7.18179688 24.86070312 7.20703125 26.0546875 C7.23026372 32.83082535 6.8863791 37.20346743 2.7578125 42.66796875 C-6.40592153 51.16118566 -12.31685244 47.66796875 -27.2421875 47.66796875 C-27.2421875 31.16796875 -27.2421875 14.66796875 -27.2421875 -2.33203125 C-6.02620885 -3.58002999 -6.02620885 -3.58002999 0 0 Z " fill="#F6A96C" transform="translate(366.2421875,196.33203125)"/>
<path d="M0 0 C0 16.5 0 33 0 50 C-24.7109375 50 -24.7109375 50 -29.64453125 45.5 C-34.78975224 38.89209077 -34.21489258 33.27537147 -34.25 25.1875 C-34.270625 24.01123047 -34.29125 22.83496094 -34.3125 21.62304688 C-34.36165442 10.75377484 -34.36165442 10.75377484 -31 6 C-21.38482086 -3.4015085 -14.25075616 -0.7500398 0 0 Z " fill="#F6A96C" transform="translate(173,194)"/>
<path d="M0 0 C2.69481561 2.16617149 3.48754274 3.92003823 4.16796875 7.2734375 C4.33876953 8.0984375 4.50957031 8.9234375 4.68554688 9.7734375 C4.85119141 10.63195312 5.01683594 11.49046875 5.1875 12.375 C5.36474609 13.22578125 5.54199219 14.0765625 5.72460938 14.953125 C6.57091392 19.14870429 7 22.66030838 7 27 C18.22 27 29.44 27 41 27 C40.80258996 19.28084822 40.80258996 19.28084822 40.54956055 11.56347656 C40.44721829 3.65869283 40.44721829 3.65869283 43.32421875 0.23046875 C46.74923673 -1.34453952 48.4411248 -1.16050278 52 0 C53.66137695 1.2121582 53.66137695 1.2121582 55 3 C55.34057617 5.54370117 55.34057617 5.54370117 55.29296875 8.54296875 C55.28172974 9.99352661 55.28172974 9.99352661 55.27026367 11.47338867 C55.24295166 12.69904541 55.21563965 13.92470215 55.1875 15.1875 C55.125625 19.085625 55.06375 22.98375 55 27 C66.22 27 77.44 27 89 27 C89.33 23.7 89.66 20.4 90 17 C90.36576182 14.53357907 90.77688475 12.07309637 91.25 9.625 C91.46140625 8.46226562 91.6728125 7.29953125 91.890625 6.1015625 C93.2269975 2.36536615 94.64452231 1.05282245 98 -1 C101.17533864 -0.93649323 103.10830617 -0.67718258 105.65625 1.2578125 C108.49688515 4.940729 107.26848936 9.56992558 107 14 C106.01 18.62 105.02 23.24 104 28 C52.52 28 1.04 28 -52 28 C-52 27.67 -52 27.34 -52 27 C-37.48 27 -22.96 27 -8 27 C-8.99 22.38 -9.98 17.76 -11 13 C-11.79905993 4.01057579 -11.79905993 4.01057579 -8.875 0.3125 C-5.32504893 -1.30812984 -3.68475807 -1.20155154 0 0 Z " fill="#ADDEF7" transform="translate(208,133)"/>
<path d="M0 0 C8.91 0 17.82 0 27 0 C27 10.89 27 21.78 27 33 C18.09 33 9.18 33 0 33 C0 22.11 0 11.22 0 0 Z " fill="#3A67C1" transform="translate(329,161)"/>
<path d="M0 0 C2.66153965 1.98559307 4.67608965 3.57034475 5.43496704 6.91983032 C5.57840876 9.22951587 5.5623927 11.48782451 5.48828125 13.80078125 C5.47766914 15.0553437 5.47766914 15.0553437 5.46684265 16.33525085 C5.43894985 18.99526052 5.37622481 21.65313139 5.3125 24.3125 C5.28741034 26.12041221 5.26459833 27.92835757 5.24414062 29.73632812 C5.18914042 34.15837073 5.10290643 38.57882331 5 43 C0.05 43 -4.9 43 -10 43 C-10.09893328 37.5190965 -10.17149865 32.03871355 -10.21972656 26.55712891 C-10.23983261 24.69277899 -10.2671218 22.82849206 -10.30175781 20.96435547 C-10.35032121 18.28337052 -10.37297838 15.60321977 -10.390625 12.921875 C-10.41127014 12.08944275 -10.43191528 11.2570105 -10.45318604 10.39935303 C-10.45542157 4.62406044 -10.45542157 4.62406044 -8.15917969 1.47753906 C-5.16352083 -0.5724075 -3.55880158 -0.65365743 0 0 Z " fill="#B3E5FB" transform="translate(159,469)"/>
<path d="M0 0 C3.32020717 0.98376509 4.32903995 1.37290391 6.375 4 C6.63672754 7.01296236 6.72360113 9.81480568 6.66796875 12.82421875 C6.66372391 13.68561966 6.65947906 14.54702057 6.65510559 15.43452454 C6.63831248 18.18583431 6.60065956 20.93641162 6.5625 23.6875 C6.54745396 25.5527238 6.53376541 27.41795907 6.52148438 29.28320312 C6.48840693 33.85575098 6.4366206 38.4277513 6.375 43 C1.425 43 -3.525 43 -8.625 43 C-8.74883064 37.67985484 -8.83944676 32.36055286 -8.8996582 27.03930664 C-8.9247639 25.23023868 -8.95885595 23.42127178 -9.00219727 21.61254883 C-9.06302579 19.00837249 -9.09124809 16.40553969 -9.11328125 13.80078125 C-9.13908768 12.99538406 -9.1648941 12.18998688 -9.19148254 11.36018372 C-9.19359751 7.10168402 -8.97598958 5.46465114 -6.32104492 1.94995117 C-3.625 0 -3.625 0 0 0 Z " fill="#B3E5FB" transform="translate(356.625,469)"/>
<path d="M0 0 C4.9324968 10.24152008 8.61417584 19.40123135 7 31 C4.875 34.25 4.875 34.25 2 36 C-1.0625 36.625 -1.0625 36.625 -4 36 C-6.74953607 33.84495822 -7.86109436 32.13377034 -8.2890625 28.640625 C-8.39137915 26.77738501 -8.49289373 24.91410086 -8.59375 23.05078125 C-9.31473441 17.6364656 -11.73641886 12.92205494 -14 8 C-14.67647271 6.33728929 -15.34645625 4.67185609 -16 3 C-15.29875 2.87625 -14.5975 2.7525 -13.875 2.625 C-10.94389922 2.0510252 -10.94389922 2.0510252 -8 0.9375 C-5.09591412 0.02997316 -3.00491255 -0.07613799 0 0 Z " fill="#B3E5FB" transform="translate(310,14)"/>
<path d="M0 0 C4.98792975 0.51599273 9.25450279 1.30517957 14 3 C14.66 3 15.32 3 16 3 C14.95525802 5.73240211 13.83162764 8.32972921 12.5 10.9375 C10.05662228 15.92606285 8.96175005 20.03302601 8.6875 25.5625 C8.37652525 29.49793905 8.11717021 30.82926626 5.8125 34.1875 C2.44940009 36.35483106 0.91801766 36.83362078 -3 36 C-5.375 34.25 -5.375 34.25 -7 31 C-8.65392727 19.99632064 -5.02896896 9.65446763 0 0 Z " fill="#B3E5FB" transform="translate(202,14)"/>
<path d="M0 0 C2.98274869 0.97263544 3.99842226 1.50449514 5.875 3.9375 C7.37783295 12.26201587 4.78496747 20.89972022 2.875 28.9375 C-2.405 28.9375 -7.685 28.9375 -13.125 28.9375 C-12.42051322 24.84847885 -11.68778247 20.76814077 -10.9375 16.6875 C-10.64262695 14.94919922 -10.64262695 14.94919922 -10.34179688 13.17578125 C-10.13232422 12.06074219 -9.92285156 10.94570312 -9.70703125 9.796875 C-9.43209839 8.25725098 -9.43209839 8.25725098 -9.15161133 6.68652344 C-7.46911493 2.18119419 -4.84088816 -0.09681776 0 0 Z " fill="#B2E4FA" transform="translate(309.125,132.0625)"/>
<path d="M0 0 C3.5625 0.375 3.5625 0.375 5.5625 2.0625 C6.84050253 5.01788086 6.64301862 6.36498383 5.5625 9.375 C4.4375 11.25 4.4375 11.25 2.5625 12.375 C-1 12.25 -1 12.25 -4.4375 11.375 C-6.4375 8.375 -6.4375 8.375 -6.1875 5.3125 C-5.10753599 1.08264094 -4.36622246 0.47631518 0 0 Z " fill="#4979CC" transform="translate(229.4375,450.625)"/>
<path d="M0 0 C2 1.6875 2 1.6875 3 4 C2.86340503 6.8001969 2.31153277 8.48077872 0.875 10.875 C-1 12 -1 12 -4.5625 11.875 C-8 11 -8 11 -10 8 C-10.34940459 5.20476326 -10.37233787 3.6351646 -8.9375 1.1875 C-5.87386726 -0.69021039 -3.49835955 -0.43729494 0 0 Z " fill="#4979CC" transform="translate(233,423)"/>
</svg>
