<?xml version="1.0" encoding="UTF-8"?>
<svg version="1.1" xmlns="http://www.w3.org/2000/svg" width="512" height="512">
<path d="M0 0 C1.44957157 -0.00374004 2.89914112 -0.00834297 4.3487075 -0.01373065 C8.31891199 -0.02593249 12.28903204 -0.02570351 16.259251 -0.02334189 C20.54639245 -0.02293301 24.83350709 -0.03397974 29.12063599 -0.04345703 C37.51537223 -0.06005287 45.91008037 -0.06556595 54.30483165 -0.06668179 C61.13090676 -0.06763299 67.95697263 -0.07174692 74.78304482 -0.07808304 C94.1487407 -0.09569208 113.51441444 -0.10492251 132.88011839 -0.10342209 C133.9236022 -0.10334218 134.96708602 -0.10326227 136.04219055 -0.10317993 C137.0869529 -0.10309817 138.13171526 -0.10301641 139.20813707 -0.10293217 C156.13471717 -0.10211951 173.06120824 -0.12125308 189.98776259 -0.14945666 C207.38010583 -0.17820698 224.77240568 -0.19199576 242.16477329 -0.19026911 C251.92429637 -0.18960592 261.68372613 -0.19506699 271.44322777 -0.21662521 C279.75369841 -0.23486534 288.06403342 -0.23916117 296.37451544 -0.22560637 C300.61110897 -0.21909081 304.84744252 -0.21890813 309.08401108 -0.23631287 C312.96980197 -0.25211171 316.85512821 -0.24911124 320.74090824 -0.2317446 C322.1392782 -0.22868958 323.53768343 -0.23225004 324.93601175 -0.24346475 C342.33829087 -0.3736796 356.92418724 5.01801648 369.55513 17.07211304 C370.64761047 18.15879272 370.64761047 18.15879272 371.76216125 19.26742554 C372.31516907 19.78562866 372.86817688 20.30383179 373.4379425 20.83773804 C377.22537465 24.73746602 379.56615803 29.40251427 382.01216125 34.20492554 C382.35392395 34.87338501 382.69568665 35.54184448 383.04780579 36.2305603 C383.37119934 36.89112427 383.6945929 37.55168823 384.02778625 38.23226929 C384.3142804 38.81613403 384.60077454 39.39999878 384.89595032 40.0015564 C387.14834138 45.89345083 388.01229462 51.36203565 388.01943016 57.6498518 C388.02293624 58.35079776 388.02644231 59.05174372 388.03005463 59.77393046 C388.03931966 62.11039971 388.0344581 64.44661703 388.02958679 66.78309631 C388.03332553 68.48015555 388.03792794 70.17721307 388.04331744 71.87426788 C388.05553531 76.52856333 388.05528839 81.18278684 388.05292869 85.83709466 C388.05252021 90.86043742 388.06356263 95.88375721 388.07304382 100.90708923 C388.08964837 110.74563291 388.09515313 120.58415262 388.09626858 130.42270913 C388.09721935 138.42155272 388.10133112 146.42038841 388.10766983 154.41922951 C388.12528109 177.10517641 388.13450893 199.7911044 388.13300888 222.47705819 C388.13292897 223.69976174 388.13284906 224.92246529 388.13276672 226.18222046 C388.13268496 227.4064197 388.1326032 228.63061894 388.13251896 229.89191512 C388.13170619 249.72842651 388.15084192 269.56486194 388.17904346 289.40135136 C388.20778245 309.77692641 388.22158318 330.15246443 388.2198559 350.52806026 C388.21919233 361.96431836 388.22467018 373.40049685 388.24621201 384.83673668 C388.26443717 394.57451552 388.26876015 404.31217866 388.25519316 414.04996719 C388.24867018 419.01564271 388.24852216 423.98109633 388.26589966 428.94675064 C388.28166503 433.49867083 388.27873144 438.05019381 388.26133139 442.60210452 C388.25826911 444.24273366 388.2618646 445.88339269 388.27305155 447.52398654 C388.38844755 465.65813241 383.66730883 480.74233278 370.95747375 494.06039429 C370.23302063 494.7887146 369.5085675 495.51703491 368.76216125 496.26742554 C368.24395813 496.82043335 367.725755 497.37344116 367.19184875 497.94320679 C363.29212078 501.73063893 358.62707252 504.07142232 353.82466125 506.51742554 C353.15620178 506.85918823 352.48774231 507.20095093 351.79902649 507.55307007 C351.13846252 507.87646362 350.47789856 508.19985718 349.7973175 508.53305054 C348.92152039 508.96279175 348.92152039 508.96279175 348.0280304 509.4012146 C339.87752788 512.5170408 332.15691635 512.55599226 323.52432251 512.53485107 C322.07475094 512.53859111 320.62518139 512.54319404 319.17561501 512.54858172 C315.20541052 512.56078357 311.23529047 512.56055458 307.26507151 512.55819297 C302.97793006 512.55778408 298.69081542 512.56883082 294.40368652 512.57830811 C286.00895028 512.59490395 277.61424214 512.60041702 269.21949086 512.60153286 C262.39341575 512.60248407 255.56734988 512.60659799 248.74127769 512.61293411 C229.37558181 512.63054315 210.00990807 512.63977358 190.64420412 512.63827316 C189.6007203 512.63819325 188.55723649 512.63811334 187.48213196 512.63803101 C186.43736961 512.63794924 185.39260725 512.63786748 184.31618544 512.63778324 C167.38960534 512.63697058 150.46311427 512.65610415 133.53655992 512.68430774 C116.14421668 512.71305806 98.75191683 512.72684683 81.35954922 512.72512019 C71.60002614 512.724457 61.84059638 512.72991806 52.08109474 512.75147629 C43.7706241 512.76971641 35.46028909 512.77401224 27.14980707 512.76045744 C22.91321354 512.75394189 18.67687999 512.7537592 14.44031143 512.77116394 C10.55452054 512.78696278 6.6691943 512.78396232 2.78341427 512.76659568 C1.38504431 512.76354066 -0.01336092 512.76710111 -1.41168924 512.77831583 C-18.5530346 512.9065782 -34.70801692 507.28446106 -47.23783875 495.26742554 C-59.17248493 481.43497496 -65.3256501 466.71305646 -65.25737 448.48226929 C-65.25455017 447.50250122 -65.25173035 446.52273315 -65.24882507 445.51327515 C-65.24519958 444.77214478 -65.2415741 444.0310144 -65.23783875 443.26742554 C-66.56790955 443.30670166 -66.56790955 443.30670166 -67.92485046 443.34677124 C-71.2611206 443.43273515 -74.59618979 443.49502596 -77.93315125 443.54208374 C-79.36856323 443.56700409 -80.80385132 443.60095428 -82.23881531 443.6446228 C-92.71804821 443.95519979 -100.60374052 443.03155271 -108.89408875 436.02133179 C-109.50252625 435.29816772 -110.11096375 434.57500366 -110.73783875 433.82992554 C-111.6814325 432.74904663 -111.6814325 432.74904663 -112.64408875 431.64633179 C-117.37286017 424.58794503 -116.94858319 416.44537394 -116.23783875 408.26742554 C-114.686191 402.73181738 -111.53514346 399.0406687 -107.23783875 395.26742554 C-106.43346375 394.54555054 -105.62908875 393.82367554 -104.80033875 393.07992554 C-93.49492891 385.08341614 -77.89953544 389.26742554 -65.23783875 389.26742554 C-65.23783875 354.28742554 -65.23783875 319.30742554 -65.23783875 283.26742554 C-75.46783875 283.26742554 -85.69783875 283.26742554 -96.23783875 283.26742554 C-106.41687805 278.74340807 -106.41687805 278.74340807 -110.23783875 274.26742554 C-110.95971375 273.46305054 -111.68158875 272.65867554 -112.42533875 271.82992554 C-117.22018658 265.05100274 -116.96267324 257.24955361 -116.23783875 249.26742554 C-114.67262228 243.34498486 -111.91206556 239.25761916 -107.23783875 235.26742554 C-106.43346375 234.54555054 -105.62908875 233.82367554 -104.80033875 233.07992554 C-93.49492891 225.08341614 -77.89953544 229.26742554 -65.23783875 229.26742554 C-65.23783875 194.28742554 -65.23783875 159.30742554 -65.23783875 123.26742554 C-75.46783875 123.26742554 -85.69783875 123.26742554 -96.23783875 123.26742554 C-105.43673107 119.17902895 -110.12938222 115.55884344 -115.23783875 107.26742554 C-117.51562113 100.43407838 -117.39363484 90.98184922 -114.67533875 84.26742554 C-111.07467724 77.58228128 -106.07628133 73.03799936 -99.11601257 70.06356812 C-92.97158153 68.36393374 -86.4970265 68.86445238 -80.17533875 69.01742554 C-78.72288951 69.03752864 -77.27041331 69.05577266 -75.81791687 69.07211304 C-72.29065541 69.11579048 -68.76442376 69.18460446 -65.23783875 69.26742554 C-65.24581482 68.47005981 -65.25379089 67.67269409 -65.26200867 66.85116577 C-65.26821228 65.79099243 -65.27441589 64.73081909 -65.2808075 63.63851929 C-65.28878357 62.59365356 -65.29675964 61.54878784 -65.30497742 60.47225952 C-64.96243893 44.12134035 -58.63316583 30.50228533 -47.73783875 18.51742554 C-46.50033875 17.40367554 -46.50033875 17.40367554 -45.23783875 16.26742554 C-44.72479187 15.73890991 -44.211745 15.21039429 -43.68315125 14.66586304 C-39.47035819 10.56155392 -35.01674208 7.92920746 -29.73783875 5.45492554 C-28.81285583 5.02010864 -28.81285583 5.02010864 -27.8691864 4.57650757 C-18.57480881 0.41378422 -10.07918644 -0.02468388 0 0 Z " fill="#FEC107" transform="translate(120.23783874511719,-0.267425537109375)"/>
<path d="M0 0 C0 168.96 0 337.92 0 512 C-67.27458256 512 -67.27458256 512 -85 495 C-96.93464619 481.16754942 -103.08781135 466.44563092 -103.01953125 448.21484375 C-103.01671143 447.23507568 -103.0138916 446.25530762 -103.01098633 445.24584961 C-103.00736084 444.50471924 -103.00373535 443.76358887 -103 443 C-104.3300708 443.03927612 -104.3300708 443.03927612 -105.68701172 443.0793457 C-109.02328186 443.16530961 -112.35835105 443.22760042 -115.6953125 443.2746582 C-117.13072448 443.29957855 -118.56601257 443.33352875 -120.00097656 443.37719727 C-130.48020946 443.68777425 -138.36590178 442.76412717 -146.65625 435.75390625 C-147.2646875 435.03074219 -147.873125 434.30757813 -148.5 433.5625 C-149.44359375 432.48162109 -149.44359375 432.48162109 -150.40625 431.37890625 C-155.13502142 424.3205195 -154.71074444 416.1779484 -154 408 C-152.44835226 402.46439184 -149.29730471 398.77324316 -145 395 C-144.195625 394.278125 -143.39125 393.55625 -142.5625 392.8125 C-131.25709016 384.8159906 -115.66169669 389 -103 389 C-103 354.02 -103 319.04 -103 283 C-113.23 283 -123.46 283 -134 283 C-144.1790393 278.47598253 -144.1790393 278.47598253 -148 274 C-148.721875 273.195625 -149.44375 272.39125 -150.1875 271.5625 C-154.98234783 264.7835772 -154.7248345 256.98212807 -154 249 C-152.43478354 243.07755932 -149.67422681 238.99019362 -145 235 C-144.195625 234.278125 -143.39125 233.55625 -142.5625 232.8125 C-131.25709016 224.8159906 -115.66169669 229 -103 229 C-103 194.02 -103 159.04 -103 123 C-113.23 123 -123.46 123 -134 123 C-143.19889232 118.91160341 -147.89154347 115.2914179 -153 107 C-155.27778238 100.16665285 -155.15579609 90.71442368 -152.4375 84 C-148.8368385 77.31485574 -143.83844259 72.77057382 -136.87817383 69.79614258 C-130.73374278 68.0965082 -124.25918776 68.59702685 -117.9375 68.75 C-116.48505077 68.7701031 -115.03257456 68.78834712 -113.58007812 68.8046875 C-110.05281666 68.84836494 -106.52658501 68.91717893 -103 69 C-103.00797607 68.20263428 -103.01595215 67.40526855 -103.02416992 66.58374023 C-103.03037354 65.52356689 -103.03657715 64.46339355 -103.04296875 63.37109375 C-103.05094482 62.32622803 -103.0589209 61.2813623 -103.06713867 60.20483398 C-102.72460018 43.85391482 -96.39532709 30.2348598 -85.5 18.25 C-84.2625 17.13625 -84.2625 17.13625 -83 16 C-82.48695312 15.47148437 -81.97390625 14.94296875 -81.4453125 14.3984375 C-77.23251944 10.29412838 -72.77890334 7.66178193 -67.5 5.1875 C-66.57501709 4.75268311 -66.57501709 4.75268311 -65.63134766 4.30908203 C-44.78762923 -5.0263073 -23.3925337 0 0 0 Z " fill="#415A6A" transform="translate(158,0)"/>
<path d="M0 0 C6.48262336 5.35307535 11.83109857 11.25611704 16.86328125 18.00878906 C17.74886719 19.12060547 17.74886719 19.12060547 18.65234375 20.25488281 C27.91231713 32.45352355 33.66092431 47.14702205 36.86328125 62.00878906 C37.08628906 62.88535156 37.30929687 63.76191406 37.5390625 64.66503906 C39.07889427 71.11766743 41.40160551 81.77840542 37.86488342 87.67272377 C34.65709052 89.81391887 31.20349099 89.42039475 27.47436523 89.38973999 C26.60820556 89.39441996 25.74204588 89.39909993 24.84963894 89.40392172 C21.93606364 89.41592467 19.02295411 89.40639384 16.109375 89.39697266 C14.02515385 89.401036 11.94093486 89.40637654 9.85671997 89.41290283 C4.18740205 89.4266104 -1.48175258 89.42126357 -7.15107346 89.41176558 C-13.07541097 89.40418679 -18.99973422 89.41120962 -24.92407227 89.41592407 C-34.87421182 89.42138682 -44.82428464 89.41417638 -54.77441406 89.39990234 C-66.28915409 89.38357487 -77.80373479 89.38886301 -89.31847095 89.40538156 C-99.19282047 89.41898162 -109.06712193 89.42092334 -118.94147778 89.41306555 C-124.84424134 89.40838089 -130.74692993 89.40778593 -136.64968872 89.41767502 C-142.19825856 89.42632087 -147.74662233 89.42036638 -153.29516983 89.40299225 C-155.33540631 89.39901465 -157.37566005 89.40018307 -159.41588974 89.40678024 C-162.19343074 89.41493563 -164.97030465 89.40474717 -167.74780273 89.38973999 C-168.56189889 89.39643216 -169.37599504 89.40312432 -170.21476078 89.41001928 C-175.64548076 89.35280723 -175.64548076 89.35280723 -178.13832092 87.60704994 C-182.77298287 80.18776409 -178.09861631 65.10796885 -176.27734375 57.00488281 C-172.12223223 40.35062301 -163.73642908 24.63060502 -152.13671875 12.00878906 C-151.35296875 10.97753906 -150.56921875 9.94628906 -149.76171875 8.88378906 C-145.65676675 4.38788925 -140.94173268 0.73006344 -136.13671875 -2.99121094 C-135.35296875 -3.60222656 -134.56921875 -4.21324219 -133.76171875 -4.84277344 C-123.16197198 -12.68515365 -110.82740769 -18.4978963 -98.13671875 -21.99121094 C-97.16734375 -22.28898437 -96.19796875 -22.58675781 -95.19921875 -22.89355469 C-61.77553406 -31.78196103 -26.34702235 -21.07459643 0 0 Z " fill="#F7F6F5" transform="translate(403.13671875,306.9912109375)"/>
<path d="M0 0 C15.53538609 11.00423182 26.30945105 26.81067694 30.1796875 45.5390625 C32.89298409 65.36699915 29.09772313 83.57048849 17.62109375 100.25390625 C8.94241053 111.41664907 -1.38625998 118.68132964 -14.3125 124.25 C-15.281875 124.68570313 -16.25125 125.12140625 -17.25 125.5703125 C-34.46727374 132.11837139 -53.97504529 129.19685481 -70.34375 121.8984375 C-87.79461438 113.12398603 -99.67165956 98.47197383 -106.375 80.3828125 C-112.13814482 62.15132553 -110.46019252 42.44275734 -101.75 25.5 C-91.89891383 7.58129445 -75.44914045 -4.25255989 -56.0625 -10.0625 C-36.57077786 -14.95027195 -16.76804427 -10.63339393 0 0 Z " fill="#F7F6F5" transform="translate(372.3125,127.75)"/>
<path d="M0 0 C1.57983641 -0.0027001 3.15967118 -0.00658682 4.73950195 -0.01159668 C8.03775987 -0.01746746 11.33558212 -0.00900779 14.63378906 0.00976562 C18.84012032 0.03255424 23.04543036 0.01941802 27.25172424 -0.00452423 C30.51020868 -0.01904831 33.76845502 -0.01434619 37.02694702 -0.00401306 C38.57693608 -0.00136397 40.12694747 -0.00455082 41.6769104 -0.01393127 C53.61819968 -0.07035845 62.04852653 1.37694102 70.9609375 9.66796875 C76.55577993 15.70584168 78.05918023 22.17157927 77.88671875 30.2109375 C77.2349963 37.80158723 73.37939928 42.56009033 68.52734375 48.234375 C59.82365907 55.2739439 49.97446628 55.12746738 39.27734375 55.0625 C37.69893658 55.06520086 36.12053105 55.06908819 34.54212952 55.07409668 C31.24984747 55.0799622 27.95800235 55.07152386 24.66577148 55.05273438 C20.46731573 55.02992719 16.26988209 55.04309708 12.07146358 55.06702423 C8.81727025 55.08154658 5.56331536 55.0768473 2.30911446 55.06651306 C0.76191648 55.06386448 -0.78530387 55.067049 -2.33247566 55.07643127 C-12.18574429 55.12309395 -20.2714639 54.77030308 -28.0625 48.21875 C-35.65140788 39.15422115 -37.16403264 32.3797185 -36.3125 20.53125 C-34.58181201 13.21231644 -30.0238544 7.483266 -23.69560242 3.5181427 C-16.14847897 -0.44856617 -8.29712118 -0.05021458 0 0 Z " fill="#FEC007" transform="translate(40.3125,68.46875)"/>
<path d="M0 0 C0.67571045 -0.00671722 1.3514209 -0.01343445 2.04760742 -0.02035522 C4.26724745 -0.03925074 6.48658351 -0.04325563 8.70629883 -0.04541016 C10.26321024 -0.05184592 11.82012047 -0.05857485 13.37702942 -0.06558228 C16.63761189 -0.07753537 19.89808859 -0.08126533 23.15869141 -0.08007812 C27.30991365 -0.0798755 31.46044697 -0.10712753 35.61150646 -0.14162254 C38.82799815 -0.16401123 42.04432747 -0.16791197 45.26088905 -0.16685867 C46.78971025 -0.1691986 48.31853704 -0.17793006 49.8472805 -0.19352341 C60.49786711 -0.29195714 70.69727905 0.04104337 78.91333008 7.60302734 C84.9518146 14.36555078 87.36872114 20.94210552 87.17504883 29.97021484 C86.52682523 37.52011323 82.6923682 42.30949336 77.91333008 47.99365234 C68.99376469 54.96799336 58.51433783 54.88875242 47.68676758 54.82177734 C46.13220986 54.8244791 44.57765381 54.82836718 43.02310181 54.83337402 C39.78387168 54.83923353 36.54508618 54.83081982 33.3059082 54.81201172 C29.17585695 54.78918531 25.04684366 54.80239031 20.91683006 54.82630157 C17.71324987 54.8408238 14.50991188 54.83612505 11.30632401 54.82579041 C9.78424579 54.82314279 8.26214481 54.82632284 6.74009323 54.83570862 C-3.08540181 54.88303538 -11.15436552 54.51102449 -18.83666992 47.85302734 C-19.55854492 47.00740234 -20.28041992 46.16177734 -21.02416992 45.29052734 C-21.74604492 44.48615234 -22.46791992 43.68177734 -23.21166992 42.85302734 C-28.00651775 36.07410455 -27.74900442 28.27265541 -27.02416992 20.29052734 C-25.45895346 14.36808667 -22.69839674 10.28072097 -18.02416992 6.29052734 C-16.81760742 5.20771484 -16.81760742 5.20771484 -15.58666992 4.10302734 C-10.65871386 0.61739988 -5.93561171 0.03724934 0 0 Z " fill="#FEC007" transform="translate(31.024169921875,228.70947265625)"/>
<path d="M0 0 C0.68707031 -0.00671722 1.37414062 -0.01343445 2.08203125 -0.02035522 C4.33894212 -0.03925152 6.59555415 -0.04325545 8.85253906 -0.04541016 C10.43426634 -0.05184507 12.01599245 -0.05857394 13.59771729 -0.06558228 C16.90957393 -0.07753498 20.22132644 -0.08126529 23.53320312 -0.08007812 C27.75402091 -0.07987532 31.9741625 -0.10714629 36.1948204 -0.14162254 C39.46188352 -0.16398531 42.72878649 -0.16791278 45.99591827 -0.16685867 C47.55068536 -0.16920174 49.10545775 -0.17795147 50.66014862 -0.19352341 C61.22420965 -0.28940997 70.57784447 0.09799167 78.74316406 7.60302734 C82.85619664 12.13318351 86.27418802 17.05377886 86.86816406 23.29052734 C86.93132812 23.94794922 86.99449219 24.60537109 87.05957031 25.28271484 C87.49422839 33.38698478 84.66181041 39.37060394 79.61816406 45.60302734 C74.96994201 50.63192276 68.76458357 54.0924153 61.84129333 54.44442749 C59.97792076 54.46371811 59.97792076 54.46371811 58.0769043 54.48339844 C57.39027206 54.49157593 56.70363983 54.49975342 55.99620056 54.50817871 C53.7230617 54.53299284 51.44998541 54.54954386 49.17675781 54.56396484 C48.39764605 54.56928852 47.61853428 54.5746122 46.81581306 54.5800972 C42.68703318 54.60681929 38.55828335 54.62619189 34.42944336 54.640625 C31.0258475 54.65392885 27.62285622 54.68171587 24.21948242 54.72265625 C20.09864333 54.77222024 15.9783498 54.79677552 11.85722542 54.80385208 C10.29404812 54.81052787 8.73088122 54.82565324 7.16787529 54.84974289 C-3.34055998 55.00238297 -11.46368604 54.08344821 -19.78808594 47.04443359 C-20.39652344 46.32126953 -21.00496094 45.59810547 -21.63183594 44.85302734 C-22.26089844 44.13244141 -22.88996094 43.41185547 -23.53808594 42.66943359 C-28.26685736 35.61104684 -27.84258038 27.46847574 -27.13183594 19.29052734 C-25.5801882 13.75491918 -22.42914065 10.06377051 -18.13183594 6.29052734 C-16.92527344 5.20771484 -16.92527344 5.20771484 -15.69433594 4.10302734 C-10.73048009 0.59200736 -5.97741416 0.03688078 0 0 Z " fill="#FEC007" transform="translate(31.1318359375,388.70947265625)"/>
<path d="M0 0 C5.63756289 -0.09970521 11.2746 -0.17185967 16.9128418 -0.21972656 C18.82634434 -0.23970419 20.73978692 -0.26689599 22.65307617 -0.30175781 C37.90234832 -0.5724314 49.64644329 0.35756756 61.5 11 C69.2649272 18.95473654 72.39611674 28.93479512 72.27734375 39.76953125 C71.28775329 51.29616941 64.84356587 60.18548777 56.22265625 67.4609375 C52.44994397 70.07332526 48.33389543 71.56819796 44 73 C43.01 73.33 42.02 73.66 41 74 C39.63407817 74.08567246 38.26435142 74.11773647 36.89575195 74.11352539 C35.6648156 74.11341209 35.6648156 74.11341209 34.40901184 74.11329651 C33.0870002 74.10555458 33.0870002 74.10555458 31.73828125 74.09765625 C30.83248825 74.0962413 29.92669525 74.09482635 28.99345398 74.09336853 C26.09976909 74.08777001 23.20616151 74.07521781 20.3125 74.0625 C18.35091258 74.05748481 16.38932394 74.05292193 14.42773438 74.04882812 C9.61845979 74.03780107 4.809243 74.02053747 0 74 C0 70.7 0 67.4 0 64 C1.6857312 63.98598145 1.6857312 63.98598145 3.40551758 63.97167969 C7.62351365 63.93144126 11.84080599 63.8655931 16.05834961 63.79248047 C17.87466305 63.76446535 19.691094 63.74315526 21.50756836 63.72900391 C38.04651308 63.81364725 38.04651308 63.81364725 52.71875 56.921875 C58.3147543 50.09867677 61.67520239 44.29396119 61.2734375 35.28515625 C60.37813988 27.80302616 57.49929332 22.7984913 52.71875 17.04296875 C42.71896879 9.52876534 30.72302158 10.34278964 18.8125 10.25 C16.98369629 10.22179223 15.15491835 10.19185823 13.32617188 10.16015625 C8.88416145 10.08686499 4.44245532 10.0369435 0 10 C0 6.7 0 3.4 0 0 Z " fill="#31434D" transform="translate(56,219)"/>
<path d="M0 0 C5.63756289 -0.09970521 11.2746 -0.17185967 16.9128418 -0.21972656 C18.82634434 -0.23970419 20.73978692 -0.26689599 22.65307617 -0.30175781 C37.90234832 -0.5724314 49.64644329 0.35756756 61.5 11 C69.26949116 18.95941206 72.37776759 28.9261918 72.28515625 39.76171875 C71.25986721 51.40506962 64.67572084 60.59080775 56 68 C48.15035235 73.17224845 39.66427525 74.3091735 30.46875 74.1953125 C29.15396667 74.19106766 29.15396667 74.19106766 27.81262207 74.18673706 C25.04160301 74.17563492 22.27091965 74.15054954 19.5 74.125 C17.6093797 74.11495729 15.71875429 74.10583371 13.828125 74.09765625 C9.21862271 74.07572835 4.60936806 74.04126845 0 74 C0 70.7 0 67.4 0 64 C1.73902588 63.98598145 1.73902588 63.98598145 3.51318359 63.97167969 C7.85600798 63.93150365 12.19814434 63.86567094 16.54052734 63.79248047 C18.41218154 63.76442984 20.28395069 63.74313698 22.15576172 63.72900391 C38.37989679 63.87936217 38.37989679 63.87936217 52.62109375 56.921875 C58.3122242 50.11699644 61.66611346 44.33962133 61.27734375 35.2890625 C60.30410821 27.25644241 57.10492221 21.34331805 51 16 C46.34470925 13.04453101 41.54893583 10.91748439 35.98754883 10.79467773 C35.18694534 10.77473251 34.38634186 10.75478729 33.56147766 10.73423767 C32.70201035 10.71752518 31.84254303 10.70081268 30.95703125 10.68359375 C30.0734343 10.66281265 29.18983734 10.64203156 28.27946472 10.62062073 C25.45722215 10.55524246 22.63488665 10.49629472 19.8125 10.4375 C17.89907894 10.39430363 15.98566727 10.35068898 14.07226562 10.30664062 C9.38160563 10.19957305 4.69085217 10.09827248 0 10 C0 6.7 0 3.4 0 0 Z " fill="#31424D" transform="translate(56,59)"/>
<path d="M0 0 C5.76164081 -0.12473576 11.5224748 -0.21486943 17.28515625 -0.2746582 C19.24037387 -0.29961363 21.19550004 -0.3335907 23.15039062 -0.37719727 C36.72761474 -0.67220341 47.47367889 -0.55172532 58.4375 8.4375 C66.65250679 16.34635747 71.96680769 24.86681811 72.375 36.4375 C72.22910838 47.32631976 68.02661369 56.12842729 60.453125 63.83984375 C47.8209098 74.96343452 34.30315478 74.28141879 18.375 74.125 C16.58984877 74.11495103 14.80469206 74.10582857 13.01953125 74.09765625 C8.67955069 74.0757925 4.33983668 74.04136815 0 74 C0 70.7 0 67.4 0 64 C1.1645874 63.9906543 2.3291748 63.98130859 3.52905273 63.97167969 C7.88489849 63.93155172 12.24005479 63.86573131 16.59545898 63.79248047 C18.47394904 63.76440236 20.35255434 63.7431229 22.23120117 63.72900391 C24.94509329 63.70739075 27.65761872 63.66064953 30.37109375 63.609375 C31.61384315 63.60753204 31.61384315 63.60753204 32.88169861 63.60565186 C42.14546049 63.3773589 49.62161589 59.69122039 56 53 C60.47038212 46.8339557 61.75542682 40.46757985 61 33 C59.71132749 25.61246155 55.9151409 19.61046004 50 15 C40.88828445 9.25587466 29.72772752 10.32816809 19.375 10.25 C17.49346256 10.22180125 15.61195026 10.19186845 13.73046875 10.16015625 C9.15369131 10.08675486 4.57721134 10.0368976 0 10 C0 6.7 0 3.4 0 0 Z " fill="#31434D" transform="translate(56,379)"/>
</svg>
