<?xml version="1.0" encoding="UTF-8"?>
<svg version="1.1" xmlns="http://www.w3.org/2000/svg" width="512" height="512">
<path d="M0 0 C0.64895051 -0.00320648 1.29790102 -0.00641296 1.9665167 -0.0097166 C4.13209435 -0.01799071 6.29739354 -0.01210156 8.4629755 -0.00622082 C10.03486613 -0.00924268 11.60675529 -0.01313234 13.17864186 -0.01781338 C17.49140651 -0.02809752 21.80408807 -0.02591051 26.11685956 -0.02163279 C30.77065721 -0.01916635 35.42443482 -0.02817868 40.07822514 -0.03567028 C49.19265919 -0.04842128 58.30706379 -0.05021049 67.42150526 -0.04787002 C74.82926372 -0.04608725 82.23701323 -0.0478356 89.64477062 -0.05209446 C91.22600225 -0.05298724 91.22600225 -0.05298724 92.83917795 -0.05389806 C94.98065837 -0.05510981 97.12213878 -0.05632394 99.26361919 -0.05754044 C119.34729288 -0.06841739 139.43094979 -0.06625267 159.51462442 -0.06015559 C177.88989749 -0.05498551 196.26511756 -0.06624401 214.64038014 -0.08525381 C233.50733244 -0.10462271 252.37425965 -0.11288993 271.24122196 -0.10913056 C281.83392014 -0.10721718 292.4265732 -0.10971951 303.01926327 -0.1238451 C312.03622125 -0.13574772 321.05310634 -0.1371763 330.07006531 -0.12505493 C334.67053278 -0.11915858 339.27086684 -0.11808773 343.87132549 -0.13005733 C348.08372976 -0.14088995 352.2958888 -0.13784409 356.50828148 -0.12379565 C358.03108459 -0.1211415 359.55390676 -0.12353776 361.0766912 -0.13153151 C378.13294466 -0.21484349 378.13294466 -0.21484349 384.48813725 5.19197559 C385.03598881 5.87260059 385.58384037 6.55322559 386.1482935 7.25447559 C386.71419193 7.93510059 387.28009037 8.61572559 387.86313725 9.31697559 C390.08366995 12.50939362 390.33736017 15.18376389 390.34780788 18.95851898 C390.35288243 19.9314259 390.35795697 20.90433282 390.36318529 21.90672177 C390.36393192 23.51379041 390.36393192 23.51379041 390.36469364 25.15332508 C390.3690759 26.28955494 390.37345815 27.42578479 390.3779732 28.59644586 C390.39138472 32.4241078 390.39754535 36.2517467 390.40366459 40.07942677 C390.41103623 42.81562549 390.4198273 45.55181937 390.42844486 48.28801441 C390.45296687 56.51378436 390.46759562 64.73956035 390.48050493 72.9653556 C390.48421698 75.2886702 390.4881902 77.6119842 390.4922576 79.9352982 C390.51749397 94.36273304 390.5395471 108.79016882 390.55198574 123.21762085 C390.55491544 126.55941426 390.5578771 129.90120765 390.56089115 133.24300098 C390.5616372 134.07358752 390.56238325 134.90417405 390.56315191 135.75992987 C390.57580513 149.21447409 390.60902787 162.66888615 390.65069298 176.12336858 C390.69311894 189.93677466 390.71668152 203.75011309 390.7219063 217.56358415 C390.72531965 225.31936914 390.73706571 233.07494759 390.77000904 240.83066845 C390.79801985 247.43596897 390.80900445 254.04102061 390.79781358 260.64637592 C390.79262928 264.01572215 390.79822687 267.38412537 390.82027912 270.75346661 C390.84290676 274.4096495 390.83470333 278.06451885 390.8187952 281.72070789 C390.83267729 282.78093338 390.84655938 283.84115886 390.86086214 284.93351239 C390.7782574 292.63728057 389.13140838 297.41409408 383.60084236 302.83147991 C377.44758032 307.52817248 370.36725778 306.95512816 362.96140385 306.89371204 C361.51080848 306.90002902 360.06022128 306.90853513 358.60965014 306.91903228 C354.63698576 306.94148206 350.66490416 306.93299406 346.69222212 306.91934669 C342.40324659 306.9100702 338.11439011 306.92963727 333.82544804 306.94566822 C326.39904761 306.96949395 318.97281315 306.97512055 311.54638004 306.9683218 C300.80909535 306.95851845 290.07199456 306.97626197 279.33473963 307.00068911 C261.91353737 307.03957586 244.49238774 307.05624148 227.07114506 307.05891895 C210.14989365 307.0615672 193.22870372 307.0746894 176.30747318 307.1018877 C175.26412652 307.10356108 174.22077985 307.10523446 173.14581662 307.10695855 C167.91155647 307.11541813 162.67729668 307.12408352 157.44303703 307.13285124 C114.03229994 307.20530081 70.62158641 307.24168175 27.2107935 307.25447559 C28.96312279 309.17201344 30.71624573 311.08881536 32.4698267 313.00520802 C32.96217052 313.54413433 33.45451435 314.08306065 33.96177769 314.63831806 C37.68524272 318.70567833 41.48197196 322.6842606 45.3982935 326.56697559 C45.99504887 327.16034718 46.59180424 327.75371876 47.2066431 328.3650713 C51.4000124 332.50934192 55.68918484 336.46953351 60.2107935 340.25447559 C61.12602787 341.04724903 62.04126225 341.84002247 62.984231 342.65681934 C71.76878482 350.24158586 80.91482823 357.31015504 90.2107935 364.25447559 C90.82599857 364.71773243 91.44120365 365.18098927 92.07505131 365.65828419 C111.86187679 381.12820247 111.86187679 381.12820247 135.2107935 386.25447559 C145.7791885 381.50948192 151.99254958 366.2864044 157.781106 356.82478809 C166.44250976 342.8032533 166.44250976 342.8032533 171.8357935 341.12947559 C182.86379383 340.60844769 194.48444862 348.79549216 203.9607935 353.75447559 C205.53227012 354.57056598 207.10405083 355.38607108 208.67612553 356.2010088 C212.51262031 358.1917522 216.34519308 360.1898916 220.17600346 362.19154835 C222.98050487 363.65655501 225.78708629 365.11755864 228.593606 366.57869434 C231.31127049 367.99393807 234.02761742 369.41138365 236.73960209 370.83748341 C241.39798211 373.28463385 246.0713984 375.69581863 250.77570438 378.05325794 C253.40406348 379.37172067 256.02724205 380.70032999 258.65030766 382.02928638 C259.91680204 382.66740609 261.18572908 383.30072595 262.45731449 383.92863941 C272.04518526 388.66544491 280.97181717 393.58267055 286.2107935 403.25447559 C288.68062422 411.92106724 285.76985228 419.23268847 281.82285404 426.97810841 C280.29475548 429.70837107 278.70928087 432.39237808 277.0857935 435.06697559 C276.51248295 436.02184864 275.9391724 436.97672169 275.34848881 437.96053028 C262.92598714 458.42966074 250.17435863 476.17025288 225.86313725 482.41853809 C217.36848679 484.46351323 208.96316281 485.97604614 200.2107935 486.25447559 C199.24786381 486.29443653 198.28493412 486.33439747 197.29282475 486.37556934 C120.01891665 488.04053314 42.18505495 438.35293704 -12.01186275 386.96150684 C-15.43094935 383.67768082 -18.80396813 380.34839081 -22.1642065 377.00447559 C-23.14526363 376.03042774 -23.14526363 376.03042774 -24.1461401 375.03670216 C-28.56210486 370.60611127 -32.71758155 366.00182753 -36.7892065 361.25447559 C-37.67847898 360.23359832 -38.56779782 359.21276143 -39.45717525 358.19197559 C-60.91772185 333.17130732 -77.93600909 305.59911634 -92.7892065 276.25447559 C-93.35188229 275.15329395 -93.35188229 275.15329395 -93.92592525 274.02986622 C-104.76220471 252.66869464 -112.94468983 229.44866987 -118.7892065 206.25447559 C-118.97982662 205.52454395 -119.17044674 204.79461231 -119.36684322 204.04256153 C-122.11474071 193.06668882 -122.09115845 181.87872903 -122.1642065 170.62947559 C-122.17233364 169.8903896 -122.18046078 169.1513036 -122.18883419 168.38982105 C-122.36088704 147.48264291 -118.67301385 125.67006714 -103.9142065 109.81697559 C-94.00641366 100.44960781 -81.97152241 93.63486343 -70.2892065 86.75447559 C-69.27463375 86.15481983 -68.260061 85.55516407 -67.21474361 84.93733692 C-51.22274628 75.6664416 -51.22274628 75.6664416 -42.7892065 77.25447559 C-34.84022167 79.84571947 -30.25071646 84.30980108 -25.7892065 91.25447559 C-25.4592065 91.91447559 -25.1292065 92.57447559 -24.7892065 93.25447559 C-24.78778149 92.28252247 -24.78635647 91.31056934 -24.78488827 90.30916309 C-24.76818505 81.12855367 -24.72531021 71.94838562 -24.65711594 62.76801014 C-24.62289293 58.04875358 -24.59774327 53.32981913 -24.59364986 48.61043262 C-24.58935683 44.05192813 -24.56081122 39.49414969 -24.51577473 34.93587208 C-24.50283175 33.20088913 -24.49848067 31.46581915 -24.50305271 29.73079395 C-24.53702189 12.91885927 -24.53702189 12.91885927 -18.7892065 6.25447559 C-13.49696677 0.96223586 -7.27743998 0.00548327 0 0 Z " fill="#FCCE6C" transform="translate(121.78920650482178,12.745524406433105)"/>
<path d="M0 0 C6.99873645 5.3308626 10.89447181 12.97074729 14.40234375 20.84765625 C15.26639767 22.7215002 16.13365266 24.59387101 17.00390625 26.46484375 C17.65214355 27.86041504 17.65214355 27.86041504 18.31347656 29.28417969 C20.19159065 33.24014608 22.21596067 37.10973899 24.27734375 40.97265625 C28.56737178 49.0249742 32.78142579 57.11454228 36.96484375 65.22265625 C40.68787844 72.43713407 44.41428522 79.64938738 48.18359375 86.83984375 C48.73869629 87.89913086 49.29379883 88.95841797 49.86572266 90.04980469 C50.9077406 92.03584316 51.95159585 94.02091907 52.99755859 96.00488281 C53.45855957 96.88370117 53.91956055 97.76251953 54.39453125 98.66796875 C54.79655762 99.43125488 55.19858398 100.19454102 55.61279297 100.98095703 C57.64177246 105.11699268 58.05509493 108.39768636 57.58984375 112.97265625 C53.46603124 119.31974159 47.34435037 122.57230129 40.96484375 126.41015625 C38.88906468 127.67926523 36.81354253 128.94879451 34.73828125 130.21875 C31.66506687 132.0966094 28.59097446 133.971976 25.50488281 135.82861328 C24.53518555 136.42399902 23.56548828 137.01938477 22.56640625 137.6328125 C21.70354004 138.15625244 20.84067383 138.67969238 19.95166016 139.21899414 C16.72535834 141.61454158 14.38842609 144.37549157 12.58984375 147.97265625 C10.58129501 170.46840217 35.59634892 195.83278647 49.07080078 212.12451172 C50.47635553 213.83458074 51.86345096 215.55734412 53.2421875 217.2890625 C54.01691406 218.25714844 54.79164063 219.22523438 55.58984375 220.22265625 C56.24984375 221.0528125 56.90984375 221.88296875 57.58984375 222.73828125 C59.52072164 225.02967947 59.52072164 225.02967947 61.90234375 226.76953125 C64.88440524 229.21412817 67.21052981 231.9059787 69.71142578 234.82763672 C72.82697677 238.38537405 76.17497104 241.70218011 79.52734375 245.03515625 C80.19185547 245.70353516 80.85636719 246.37191406 81.54101562 247.06054688 C86.05882829 251.5695956 90.74292714 255.82132961 95.58984375 259.97265625 C96.59896384 260.85025409 97.60807887 261.72785774 98.6171875 262.60546875 C107.34630876 270.08087729 116.38385821 277.09555282 125.58984375 283.97265625 C126.20504883 284.43591309 126.82025391 284.89916992 127.45410156 285.37646484 C147.24092705 300.84638313 147.24092705 300.84638313 170.58984375 305.97265625 C181.15823876 301.22766257 187.37159984 286.00458506 193.16015625 276.54296875 C201.82156002 262.52143396 201.82156002 262.52143396 207.21484375 260.84765625 C218.24284408 260.32662835 229.86349887 268.51367282 239.33984375 273.47265625 C240.91132038 274.28874664 242.48310109 275.10425174 244.05517578 275.91918945 C247.89167056 277.90993285 251.72424333 279.90807226 255.55505371 281.909729 C258.35955513 283.37473567 261.16613655 284.83573929 263.97265625 286.296875 C266.69032074 287.71211873 269.40666767 289.1295643 272.11865234 290.55566406 C276.77703237 293.00281451 281.45044865 295.41399928 286.15475464 297.7714386 C288.78311374 299.08990132 291.40629231 300.41851064 294.02935791 301.74746704 C295.29585229 302.38558675 296.56477933 303.01890661 297.83636475 303.64682007 C307.42423552 308.38362557 316.35086743 313.30085121 321.58984375 322.97265625 C324.05967447 331.6392479 321.14890254 338.95086912 317.2019043 346.69628906 C315.67380574 349.42655172 314.08833113 352.11055874 312.46484375 354.78515625 C311.8915332 355.7400293 311.31822266 356.69490234 310.72753906 357.67871094 C298.3050374 378.1478414 285.55340888 395.88843354 261.2421875 402.13671875 C252.74753705 404.18169388 244.34221306 405.6942268 235.58984375 405.97265625 C234.62691406 406.01261719 233.66398437 406.05257813 232.671875 406.09375 C155.3979669 407.7587138 77.5641052 358.0711177 23.3671875 306.6796875 C19.9481009 303.39586147 16.57508213 300.06657147 13.21484375 296.72265625 C12.23378662 295.7486084 12.23378662 295.7486084 11.23291016 294.75488281 C6.8169454 290.32429193 2.66146871 285.72000819 -1.41015625 280.97265625 C-2.29942872 279.95177897 -3.18874756 278.93094208 -4.078125 277.91015625 C-25.53867159 252.88948798 -42.55695883 225.317297 -57.41015625 195.97265625 C-57.78527344 195.23853516 -58.16039063 194.50441406 -58.546875 193.74804688 C-69.38315446 172.3868753 -77.56563957 149.16685053 -83.41015625 125.97265625 C-83.60077637 125.24272461 -83.79139648 124.51279297 -83.98779297 123.76074219 C-86.73569046 112.78486947 -86.71210819 101.59690968 -86.78515625 90.34765625 C-86.79328339 89.60857025 -86.80141052 88.86948425 -86.80978394 88.10800171 C-86.98183679 67.20082356 -83.2939636 45.38824779 -68.53515625 29.53515625 C-58.62736341 20.16778847 -46.59247216 13.35304409 -34.91015625 6.47265625 C-33.8955835 5.87300049 -32.88101074 5.27334473 -31.83569336 4.65551758 C-20.7236274 -1.78637947 -12.21594903 -5.67096469 0 0 Z " fill="#95C7F7" transform="translate(86.41015625,93.02734375)"/>
<path d="M0 0 C0.64548898 -0.00205263 1.29097796 -0.00410527 1.95602721 -0.0062201 C4.12782237 -0.01189294 6.29955417 -0.01043251 8.47135544 -0.00901413 C10.0406558 -0.0115976 11.6099555 -0.01461071 13.17925429 -0.01801753 C17.49877491 -0.02609287 21.81827891 -0.0278774 26.13780618 -0.028615 C30.79369697 -0.03046462 35.44957913 -0.03801148 40.10546494 -0.04475021 C50.28932355 -0.05833772 60.47317824 -0.06435887 70.65704441 -0.06876087 C77.01445792 -0.07152251 83.3718699 -0.07575972 89.72928238 -0.08026505 C107.32707372 -0.09245812 124.92486383 -0.10275745 142.5226593 -0.10614014 C143.64916621 -0.1063597 144.77567311 -0.10657927 145.93631659 -0.10680549 C147.63014526 -0.10713291 147.63014526 -0.10713291 149.35819268 -0.10746694 C151.64646292 -0.1079104 153.93473315 -0.10835697 156.22300339 -0.10880661 C157.35806713 -0.10902804 158.49313086 -0.10924947 159.66259047 -0.10947761 C178.05745098 -0.11342619 196.45227189 -0.13088187 214.8471171 -0.15416613 C233.72753113 -0.17787236 252.60792528 -0.19034165 271.48835444 -0.19150805 C282.09116189 -0.19242521 292.69391773 -0.19818774 303.29671097 -0.21632767 C312.32471602 -0.23171879 321.35265353 -0.23685494 330.38066921 -0.22858956 C334.98719513 -0.2246796 339.59358499 -0.22562956 344.20009422 -0.23964691 C348.41816353 -0.25236494 352.63599424 -0.25120681 356.85406312 -0.2390562 C358.37897714 -0.23709556 359.90390793 -0.24019456 361.42879835 -0.24890056 C375.87096592 -0.32612603 375.87096592 -0.32612603 382.57993698 3.13142776 C384.07993698 5.31892776 384.07993698 5.31892776 384.57993698 7.13142776 C383.56286667 7.94933792 383.56286667 7.94933792 382.52524948 8.78377151 C377.77273501 12.63449307 373.1006962 16.51041413 368.57993698 20.63142776 C365.18395017 23.72697973 361.71822167 26.68293984 358.14243698 29.56892776 C353.36853398 33.42967914 348.84605271 37.50579852 344.32993698 41.66267776 C340.76809469 44.86024073 337.05427865 47.84531119 333.32993698 50.85017776 C330.4989412 53.19861745 327.78610101 55.64052679 325.07993698 58.13142776 C320.61008578 62.24521685 315.98948805 66.10230073 311.26353073 69.91658401 C307.77300269 72.79741283 304.4471963 75.84077179 301.10337448 78.88924026 C298.5291134 81.1765868 295.88704209 83.34691047 293.20493698 85.50642776 C288.65213191 89.18714623 284.34576287 93.05791425 280.06309128 97.04280472 C275.95232741 100.84527791 271.65727175 104.37406076 267.29478073 107.88533401 C264.47320203 110.21973366 261.77402986 112.65133375 259.07993698 115.13142776 C254.61008578 119.24521685 249.98948805 123.10230073 245.26353073 126.91658401 C242.63285141 129.08775603 240.10051274 131.33384133 237.57993698 133.63142776 C234.26004212 136.65425197 230.88229586 139.55654938 227.39243698 142.38142776 C221.62362489 147.05335305 216.02900751 151.90976059 210.43149948 156.78377151 C206.68573663 160.04495593 202.91712001 163.27880024 199.14243698 166.50642776 C194.26022547 170.68312131 189.39863032 174.8814001 184.57993698 179.13142776 C181.13214612 177.63136386 178.75633165 175.62733514 176.01743698 173.06892776 C172.43565459 169.78211568 168.79692928 166.62649457 165.01743698 163.56892776 C160.86485143 160.20842024 156.85800151 156.73200279 152.88853073 153.15877151 C150.35752107 150.93610821 147.76080732 148.81286141 145.14243698 146.69392776 C140.65996363 143.05932142 136.3711568 139.26418264 132.10728073 135.37752151 C129.51031305 133.06955179 126.84589686 130.87586914 124.14243698 128.69392776 C119.36853398 124.83317639 114.84605271 120.75705701 110.32993698 116.60017776 C107.64256064 114.18764673 104.89028254 111.89886566 102.07993698 109.63142776 C97.32398279 105.79423745 92.82488897 101.73757676 88.32993698 97.60017776 C85.64256064 95.18764673 82.89028254 92.89886566 80.07993698 90.63142776 C75.32398279 86.79423745 70.82488897 82.73757676 66.32993698 78.60017776 C63.64256064 76.18764673 60.89028254 73.89886566 58.07993698 71.63142776 C54.29533364 68.57794098 50.65786161 65.42474475 47.07993698 62.13142776 C42.61008578 58.01763868 37.98948805 54.1605548 33.26353073 50.34627151 C29.77442783 47.4666189 26.44996777 44.42448901 23.10728073 41.37752151 C20.51031305 39.06955179 17.84589686 36.87586914 15.14243698 34.69392776 C11.33906195 31.61806188 7.67911046 28.44389611 4.07993698 25.13142776 C-2.8138103 18.7907605 -10.10724108 12.97644315 -17.42006302 7.13142776 C-16.42006302 4.13142776 -16.42006302 4.13142776 -13.60756302 2.50642776 C-8.8539967 0.45586974 -5.19188901 0.00562006 0 0 Z " fill="#FEE086" transform="translate(121.42006301879883,12.868572235107422)"/>
<path d="M0 0 C0.73734375 0.35779541 1.4746875 0.71559082 2.234375 1.08422852 C9.05242525 4.42354971 15.75901276 7.97413855 22.4609375 11.5390625 C28.9981214 15.0063639 35.58026308 18.38548046 42.16137695 21.76837158 C44.31098894 22.87422265 46.45937832 23.98241439 48.60742188 25.09130859 C54.65553635 28.21205156 60.70411027 31.32986026 66.7885437 34.37934875 C68.51729553 35.24686117 70.2428186 36.12079827 71.96826172 36.99487305 C74.03464923 38.0412305 76.10620986 39.07746872 78.18408203 40.10083008 C86.40954905 44.29058374 93.72633505 49.2789259 98.1875 57.5625 C100.7657908 66.6096761 97.67562116 73.98499505 93.359375 81.92578125 C91.67816863 84.83372153 89.96003544 87.70951459 88.1875 90.5625 C83.06153726 89.98104751 79.0464353 87.55129857 74.59375 85.125 C72.88332658 84.20867518 71.17237312 83.29333918 69.4609375 82.37890625 C68.14851074 81.67531982 68.14851074 81.67531982 66.80957031 80.95751953 C62.71877714 78.78109568 58.59556543 76.66960538 54.46875 74.5625 C53.26158325 73.94483765 53.26158325 73.94483765 52.0300293 73.31469727 C49.58301074 72.06300103 47.13535823 70.81255327 44.6875 69.5625 C34.14350972 64.17797674 23.62223847 58.75702987 13.1529541 53.22845459 C4.4947459 48.66005441 -4.21480547 44.1928473 -12.92724609 39.72900391 C-21.28276377 35.44615028 -29.60020707 31.1166688 -37.8125 26.5625 C-37.24535058 22.86343449 -36.2709154 20.27943258 -34.265625 17.12890625 C-33.75 16.31486328 -33.234375 15.50082031 -32.703125 14.66210938 C-32.16171875 13.82486328 -31.6203125 12.98761719 -31.0625 12.125 C-30.5365625 11.29162109 -30.010625 10.45824219 -29.46875 9.59960938 C-21.79719303 -2.41093464 -21.79719303 -2.41093464 -18 -4.375 C-11.21402272 -4.56888507 -5.97073483 -2.9803536 0 0 Z " fill="#76B5F7" transform="translate(309.8125,358.4375)"/>
<path d="M0 0 C6.99873645 5.3308626 10.89447181 12.97074729 14.40234375 20.84765625 C15.26639767 22.7215002 16.13365266 24.59387101 17.00390625 26.46484375 C17.65214355 27.86041504 17.65214355 27.86041504 18.31347656 29.28417969 C20.19159065 33.24014608 22.21596067 37.10973899 24.27734375 40.97265625 C28.56737178 49.0249742 32.78142579 57.11454228 36.96484375 65.22265625 C40.68787844 72.43713407 44.41428522 79.64938738 48.18359375 86.83984375 C48.73869629 87.89913086 49.29379883 88.95841797 49.86572266 90.04980469 C50.9077406 92.03584316 51.95159585 94.02091907 52.99755859 96.00488281 C53.45855957 96.88370117 53.91956055 97.76251953 54.39453125 98.66796875 C54.79655762 99.43125488 55.19858398 100.19454102 55.61279297 100.98095703 C57.64177246 105.11699268 58.05509493 108.39768636 57.58984375 112.97265625 C53.51995611 119.12521561 47.69969239 122.49546733 41.52734375 126.34765625 C40.53412109 126.98832031 39.54089844 127.62898437 38.51757812 128.2890625 C31.10272022 132.97265625 31.10272022 132.97265625 26.58984375 132.97265625 C26.13770508 132.09343506 25.68556641 131.21421387 25.21972656 130.30834961 C17.50728014 115.31321871 9.79335949 100.31932241 1.97949219 85.37670898 C-1.83359298 78.08389119 -5.62469528 70.77984761 -9.41015625 63.47265625 C-13.35327415 55.86385296 -17.29728202 48.2555303 -21.25732422 40.65551758 C-22.26079564 38.72923087 -23.26248048 36.80201221 -24.26220703 34.8737793 C-26.45090749 30.66425103 -28.66651465 26.48065466 -31.00390625 22.3515625 C-31.58712646 21.30887207 -31.58712646 21.30887207 -32.18212891 20.24511719 C-33.20097336 18.4347402 -34.23834847 16.6348254 -35.27734375 14.8359375 C-36.41015625 11.97265625 -36.41015625 11.97265625 -35.85546875 9.828125 C-32.68083995 5.75258803 -29.4700697 3.22170341 -24.91015625 0.78515625 C-23.97171875 0.27597656 -23.03328125 -0.23320313 -22.06640625 -0.7578125 C-14.20437306 -4.51540189 -7.67237585 -3.56171857 0 0 Z " fill="#75B5F7" transform="translate(86.41015625,93.02734375)"/>
<path d="M0 0 C-0.165 0.495 -0.33 0.99 -0.5 1.5 C-3.54556293 16.72781464 7.29837627 29.88598746 15.27539062 41.92480469 C21.47670182 51.08651565 28.43516792 59.63291448 35.48095703 68.15185547 C36.88651178 69.86192449 38.27360721 71.58468787 39.65234375 73.31640625 C40.42707031 74.28449219 41.20179688 75.25257813 42 76.25 C42.66 77.08015625 43.32 77.9103125 44 78.765625 C45.93087789 81.05702322 45.93087789 81.05702322 48.3125 82.796875 C51.29456149 85.24147192 53.62068606 87.93332245 56.12158203 90.85498047 C59.23713302 94.4127178 62.58512729 97.72952386 65.9375 101.0625 C66.60201172 101.73087891 67.26652344 102.39925781 67.95117188 103.08789062 C72.46898454 107.59693935 77.15308339 111.84867336 82 116 C83.00912009 116.87759784 84.01823512 117.75520149 85.02734375 118.6328125 C93.75646501 126.10822104 102.79401446 133.12289657 112 140 C112.61520508 140.46325684 113.23041016 140.92651367 113.86425781 141.40380859 C133.64283114 156.691754 133.64283114 156.691754 157 162 C159.84715499 161.56645435 159.84715499 161.56645435 162 161 C160.40325869 166.67730243 156.0634697 172.15591138 151.0078125 175.19921875 C145.72950476 177.3043804 141.63080167 176.6349061 136.48828125 174.6328125 C114.90608999 164.65365492 95.52017211 149.09962388 77.73974609 133.51318359 C75.95066283 131.95708787 74.1445428 130.42325364 72.33203125 128.89453125 C65.58366425 123.19557081 59.13227647 117.3706803 53 111 C52.175 110.175 51.35 109.35 50.5 108.5 C49.675 107.675 48.85 106.85 48 106 C47.34515625 105.36835938 46.6903125 104.73671875 46.015625 104.0859375 C41.04431993 99.23462945 36.5849689 94.16780776 32.24609375 88.74609375 C30.09745541 86.11914983 27.86276942 83.61931675 25.5625 81.125 C20.33431594 75.36314318 15.6181951 69.25235125 11 63 C10.5265918 62.36175293 10.05318359 61.72350586 9.56542969 61.06591797 C3.55130148 52.90615525 -2.0220072 44.57432249 -7.125 35.8125 C-7.81710571 34.62793213 -7.81710571 34.62793213 -8.52319336 33.41943359 C-12.49242201 26.45815511 -15.14259343 20.12999174 -14 12 C-11.76971375 7.26064172 -5.80724365 0 0 0 Z " fill="#77B5F6" transform="translate(100,237)"/>
<path d="M0 0 C0.66 0.33 1.32 0.66 2 1 C-3.61 6.61 -9.22 12.22 -15 18 C-15 13.07254925 -11.31913617 10.39978807 -8 7 C-5.39491779 4.58973264 -2.72918126 2.2684104 0 0 Z " fill="#AFCBD6" transform="translate(27,115)"/>
</svg>
