<?xml version="1.0" encoding="UTF-8"?>
<svg version="1.1" xmlns="http://www.w3.org/2000/svg" width="512" height="512">
<path d="M0 0 C1.87822515 1.35262103 3.73532872 2.73541979 5.5625 4.15625 C10.44955649 7.86340967 14.76520753 10.41009786 21.0703125 10.05859375 C27.23362635 8.5129351 31.75203136 5.80103924 36.35546875 1.51171875 C45.65472828 -6.3682916 57.26230222 -6.68614233 68.82080078 -6.13671875 C78.26256467 -5.31694329 86.66920074 -0.00397095 93.5078125 6.30859375 C97.83858612 9.26619524 102.87142802 10.4814348 108.109375 9.7890625 C113.54980888 8.0539447 117.8192312 4.39691073 122.3203125 0.99609375 C133.31034854 -6.74688619 146.13286307 -7.32654946 159.125 -5.515625 C169.39106481 -2.84251228 178.01444274 4.54000362 184.0703125 13.05859375 C190.24449149 24.3779219 191.74638175 35.77082146 189.45703125 48.45703125 C185.96486776 60.17962412 178.74539436 69.15495 168.0703125 75.05859375 C164.79632306 76.59141608 161.48305619 77.87106993 158.0703125 79.05859375 C152.71693611 80.47684727 152.71693611 80.47684727 149.0703125 84.05859375 C148.94919152 86.3352102 148.89279105 88.61535292 148.86499023 90.89501953 C148.85509064 91.59756866 148.84519104 92.3001178 148.83499146 93.0239563 C148.8033557 95.35057178 148.77861091 97.67720769 148.75390625 100.00390625 C148.73333851 101.61531104 148.71234208 103.22671041 148.69093323 104.83810425 C148.63569396 109.08282081 148.58629289 113.32758622 148.53808594 117.5723877 C148.48788444 121.90246943 148.43219133 126.2324801 148.37695312 130.5625 C148.26934887 139.06113786 148.16790896 147.5598351 148.0703125 156.05859375 C148.7001001 156.03764648 149.3298877 156.01669922 149.97875977 155.99511719 C152.86327821 155.91139276 155.74754018 155.85975754 158.6328125 155.80859375 C159.62345703 155.77507812 160.61410156 155.7415625 161.63476562 155.70703125 C168.04971189 155.62178279 171.87198518 156.21003184 177.0703125 160.05859375 C180.72312348 164.67267078 182.16522197 168.35078744 182.24731445 174.14941406 C182.26014969 174.94414124 182.27298492 175.73886841 182.28620911 176.55767822 C182.29728951 177.83430328 182.29728951 177.83430328 182.30859375 179.13671875 C182.3166655 180.02212341 182.32473724 180.90752808 182.33305359 181.81976318 C182.34686753 183.69248512 182.35760169 185.56523196 182.36547852 187.43798828 C182.37699172 189.34463933 182.39743309 191.25125832 182.42700195 193.15771484 C182.46985368 195.92177088 182.48587201 198.68487101 182.49609375 201.44921875 C182.52235588 202.71369843 182.52235588 202.71369843 182.54914856 204.00372314 C182.52804676 209.82694722 181.32498872 214.18546654 178.0703125 219.05859375 C172.67575795 224.31482639 167.81914866 225.28744892 160.52148438 225.234375 C159.60947266 225.21761719 158.69746094 225.20085937 157.7578125 225.18359375 C156.82646484 225.17457031 155.89511719 225.16554687 154.93554688 225.15625 C152.6468689 225.13277638 150.35872578 225.09994104 148.0703125 225.05859375 C148.04453125 225.89519531 148.01875 226.73179687 147.9921875 227.59375 C146.7286735 253.5245032 135.07434759 274.71821157 116.0703125 292.05859375 C115.4103125 292.38859375 114.7503125 292.71859375 114.0703125 293.05859375 C112.01020292 306.72884705 110.04693306 321.8899723 118.44140625 333.78125 C125.35444069 342.67031083 134.05399405 350.76385434 145.52301025 352.45401001 C152.72399041 353.16220394 159.78102346 352.73240515 166.9737854 352.16975403 C181.67311609 351.29882485 197.44129023 357.82887248 208.3828125 367.37109375 C209.96593684 368.91269351 211.52885344 370.47533241 213.0703125 372.05859375 C213.85148437 372.81914062 214.63265625 373.5796875 215.4375 374.36328125 C230.75144311 390.08972115 233.71598671 410.09803295 233.6015625 431.05859375 C233.60426606 432.83260306 233.6081556 434.60661092 233.61315918 436.38061523 C233.6190014 440.0649248 233.61065589 443.74884207 233.59179688 447.43310547 C233.56887494 452.13814041 233.58224682 456.84226898 233.60608673 461.54727173 C233.62057399 465.19686666 233.61592765 468.84624808 233.60557556 472.49584961 C233.60292332 474.23087677 233.60612464 475.96592384 233.61549377 477.70092773 C233.6257236 480.12405583 233.61007674 482.54572955 233.58789062 484.96875 C233.59598755 485.67226089 233.60408447 486.37577179 233.61242676 487.1006012 C233.52151498 492.49617449 231.97039126 496.59568266 229.0703125 501.05859375 C224.77750187 505.14199898 221.56223197 506.18201236 215.73598766 506.19281483 C214.62251152 506.19727267 213.50903538 506.20173051 212.36181754 506.20632344 C211.13343628 506.20613908 209.90505501 506.20595472 208.63945007 506.20576477 C207.33846699 506.20944146 206.03748391 506.21311815 204.6970771 506.21690625 C201.07833524 506.2269307 197.45960997 506.23064375 193.84085619 506.23329556 C189.94095505 506.23719722 186.04106707 506.24677556 182.14117432 506.25550842 C172.71999738 506.27527533 163.29881936 506.2853387 153.87762687 506.29423621 C149.44283444 506.29861818 145.00804321 506.30398518 140.57325172 506.30922508 C125.83466559 506.32623654 111.09608021 506.34073174 96.35748577 506.34797382 C92.53235053 506.34988376 88.7072153 506.35180409 84.88208008 506.35375977 C83.93134433 506.35424351 82.98060859 506.35472725 82.00106267 506.35522565 C66.59230384 506.36352981 51.18362255 506.38887362 35.7748976 506.42134044 C19.96137855 506.45438908 4.14789894 506.47242054 -11.66565484 506.47561806 C-20.54698665 506.47778505 -29.42820536 506.48656135 -38.30950356 506.51207924 C-45.87150079 506.53375617 -53.43335744 506.54185148 -60.99538223 506.53211246 C-64.85438909 506.52755916 -68.71310569 506.52951337 -72.57207298 506.5488739 C-76.75421227 506.56967486 -80.93570423 506.55954817 -85.11787415 506.54634094 C-86.95040779 506.56279481 -86.95040779 506.56279481 -88.81996232 506.57958108 C-95.15237251 506.53112147 -99.16029173 506.40022276 -103.9296875 502.05859375 C-108.44902786 496.92853172 -109.08348371 493.8473863 -109.10668945 487.15917969 C-109.11326065 486.34256866 -109.11983185 485.52595764 -109.12660217 484.68460083 C-109.14637322 481.97072253 -109.1580135 479.2569 -109.16796875 476.54296875 C-109.17204428 475.61347664 -109.1761198 474.68398453 -109.18031883 473.72632599 C-109.20120749 468.79541749 -109.21549042 463.86453696 -109.22485352 458.93359375 C-109.23585269 453.87013826 -109.27016848 448.80713021 -109.31002522 443.74383163 C-109.33635617 439.82809715 -109.34456044 435.91246589 -109.34813499 431.9966507 C-109.35296786 430.13258127 -109.36448603 428.26851541 -109.38317299 426.40453339 C-109.58904969 404.48522517 -104.05809523 386.97702956 -88.72265625 370.71875 C-78.02005678 360.33563111 -62.98458173 352.50237598 -47.82806396 351.9871521 C-45.73010214 352.0362515 -43.6479879 352.14566868 -41.5546875 352.29296875 C-27.5579799 353.24596436 -15.17023646 353.55950555 -3.91137695 344.13623047 C5.54531302 335.44898998 10.58145808 326.6644711 11.21801758 313.70092773 C11.24354411 312.19530769 11.25693329 310.68942992 11.2578125 309.18359375 C11.26541595 308.45552521 11.27301941 307.72745667 11.28085327 306.97732544 C11.23221099 300.57630774 10.78362183 295.18757831 6.63208008 290.02880859 C3.80181057 287.39424458 3.80181057 287.39424458 0.85742188 285.22851562 C-12.90694375 274.51218051 -20.54589352 254.37979541 -23.52734375 237.71875 C-23.9939325 233.47415137 -24.01670897 229.32264565 -23.9296875 225.05859375 C-24.83678467 225.08215942 -24.83678467 225.08215942 -25.76220703 225.10620117 C-28.52627046 225.16891255 -31.29018371 225.20769786 -34.0546875 225.24609375 C-35.00601563 225.27123047 -35.95734375 225.29636719 -36.9375 225.32226562 C-43.35819168 225.38914783 -47.87947622 224.87220583 -52.79296875 220.33984375 C-53.27121094 219.75203125 -53.74945313 219.16421875 -54.2421875 218.55859375 C-54.73332031 217.97078125 -55.22445312 217.38296875 -55.73046875 216.77734375 C-57.77112032 213.8526314 -58.06154824 211.2470015 -58.10668945 207.79003906 C-58.12594231 206.50290009 -58.12594231 206.50290009 -58.14558411 205.1897583 C-58.15297104 204.26475525 -58.16035797 203.3397522 -58.16796875 202.38671875 C-58.1760405 201.43093933 -58.18411224 200.47515991 -58.19242859 199.49041748 C-58.20626071 197.46628631 -58.21698676 195.4421319 -58.22485352 193.41796875 C-58.24204486 190.3341811 -58.28593649 187.25147167 -58.33007812 184.16796875 C-58.34020738 182.19922662 -58.34872275 180.23047538 -58.35546875 178.26171875 C-58.37297684 177.34481262 -58.39048492 176.42790649 -58.40852356 175.48321533 C-58.3883133 169.4682792 -57.42440802 165.99015268 -53.9296875 161.05859375 C-49.65902784 157.10042138 -46.57823358 155.9276773 -40.82421875 155.9609375 C-39.84130859 155.96416016 -38.85839844 155.96738281 -37.84570312 155.97070312 C-36.82154297 155.97908203 -35.79738281 155.98746094 -34.7421875 155.99609375 C-33.70642578 156.00060547 -32.67066406 156.00511719 -31.60351562 156.00976562 C-29.04551484 156.02155365 -26.48763017 156.0380086 -23.9296875 156.05859375 C-23.944566 146.88739014 -23.98617488 137.7168087 -24.06177807 128.54590321 C-24.0960482 124.28728526 -24.12115802 120.02902604 -24.12524414 115.77026367 C-24.12952716 111.65912266 -24.15798894 107.54879087 -24.20311928 103.43790245 C-24.21609439 101.87070113 -24.22040187 100.30340296 -24.21584129 98.73615456 C-24.2109348 96.53781737 -24.23702284 94.34184498 -24.27026367 92.14379883 C-24.28025642 90.26849236 -24.28025642 90.26849236 -24.29045105 88.3553009 C-25.10266336 84.16651263 -26.64687996 82.69842575 -29.9296875 80.05859375 C-32.90816193 78.87062926 -32.90816193 78.87062926 -36.1171875 78.18359375 C-47.11263893 75.07753402 -55.40944639 68.37994172 -61.3984375 58.6796875 C-67.02215838 48.23329901 -68.26136512 37.30098451 -65.75390625 25.77734375 C-61.61155204 12.11346445 -53.84834314 3.50506972 -41.50390625 -3.2734375 C-28.59245389 -8.95608294 -11.6696936 -7.73311696 0 0 Z " fill="#F6F4F6" transform="translate(270.9296875,5.94140625)"/>
<path d="M0 0 C3.54564441 0.35641107 6.34194287 1.49943968 9.47973633 3.13305664 C10.33445023 3.57343765 11.18916412 4.01381866 12.06977844 4.46754456 C12.98132187 4.94360641 13.8928653 5.41966827 14.83203125 5.91015625 C16.78420788 6.9100859 18.73669154 7.90941632 20.68945312 8.90820312 C23.75402741 10.48382793 26.81583726 12.06423746 29.87231445 13.65551758 C32.83084853 15.19239052 35.79918527 16.70876793 38.76953125 18.22265625 C39.67500198 18.70074234 40.58047272 19.17882843 41.51338196 19.67140198 C47.00918528 22.45201542 50.8323111 23.75179006 57 23 C59.88237385 22.05186645 59.88237385 22.05186645 62.453125 20.55859375 C63.401875 20.05779297 64.350625 19.55699219 65.328125 19.04101562 C66.29234375 18.51185547 67.2565625 17.98269531 68.25 17.4375 C70.1868537 16.38369868 72.12936542 15.3402117 74.078125 14.30859375 C74.92793945 13.84251709 75.77775391 13.37644043 76.65332031 12.89624023 C79 12 79 12 80.98242188 12.04882812 C83.97931239 13.46168938 85.88599557 15.55261177 88.203125 17.91015625 C88.9271048 18.64050331 88.9271048 18.64050331 89.66571045 19.38560486 C91.2010085 20.9376545 92.72552925 22.49982136 94.25 24.0625 C95.2909722 25.11852357 96.3326314 26.17387038 97.375 27.22851562 C99.92467633 29.81121415 102.46479196 32.40308882 105 35 C110.01612476 33.50396279 114.47941424 31.77534303 119.11167908 29.31843567 C127.55123705 24.95136698 134.77470992 23.98656238 144.20629883 24.25219727 C146.43412927 24.3124089 148.65623461 24.31374332 150.88476562 24.30664062 C169.60132767 24.43376528 187.96413719 29.26179917 201.6953125 42.6328125 C202.83613281 43.80457031 202.83613281 43.80457031 204 45 C204.78117187 45.76054687 205.56234375 46.52109375 206.3671875 47.3046875 C221.68113061 63.0311274 224.64567421 83.0394392 224.53125 104 C224.53395356 105.77400931 224.5378431 107.54801717 224.54284668 109.32202148 C224.5486889 113.00633105 224.54034339 116.69024832 224.52148438 120.37451172 C224.49856244 125.07954666 224.51193432 129.78367523 224.53577423 134.48867798 C224.55026149 138.13827291 224.54561515 141.78765433 224.53526306 145.43725586 C224.53261082 147.17228302 224.53581214 148.90733009 224.54518127 150.64233398 C224.5554111 153.06546208 224.53976424 155.4871358 224.51757812 157.91015625 C224.52567505 158.61366714 224.53377197 159.31717804 224.54211426 160.04200745 C224.45120248 165.43758074 222.90007876 169.53708891 220 174 C215.70718937 178.08340523 212.49191947 179.12341861 206.66567516 179.13422108 C205.55219902 179.13867892 204.43872288 179.14313676 203.29150504 179.14772969 C202.06312378 179.14754533 200.83474251 179.14736097 199.56913757 179.14717102 C198.26815449 179.15084771 196.96717141 179.1545244 195.6267646 179.1583125 C192.00802274 179.16833695 188.38929747 179.17205 184.77054369 179.17470181 C180.87064255 179.17860347 176.97075457 179.18818181 173.07086182 179.19691467 C163.64968488 179.21668158 154.22850686 179.22674495 144.80731437 179.23564246 C140.37252194 179.24002443 135.93773071 179.24539143 131.50293922 179.25063133 C116.76435309 179.26764279 102.02576771 179.28213799 87.28717327 179.28938007 C83.46203803 179.29129001 79.6369028 179.29321034 75.81176758 179.29516602 C74.86103183 179.29564976 73.91029609 179.2961335 72.93075017 179.2966319 C57.52199134 179.30493606 42.11331005 179.33027987 26.7045851 179.36274669 C10.89106605 179.39579533 -4.92241356 179.41382679 -20.73596734 179.41702431 C-29.61729915 179.4191913 -38.49851786 179.4279676 -47.37981606 179.45348549 C-54.94181329 179.47516242 -62.50366994 179.48325773 -70.06569473 179.47351871 C-73.92470159 179.46896541 -77.78341819 179.47091962 -81.64238548 179.49028015 C-85.82452477 179.51108111 -90.00601673 179.50095442 -94.18818665 179.48774719 C-95.40987574 179.49871644 -96.63156484 179.50968568 -97.89027482 179.52098733 C-104.22268501 179.47252772 -108.23060423 179.34162901 -113 175 C-117.51934036 169.86993797 -118.15379621 166.78879255 -118.17700195 160.10058594 C-118.18357315 159.28397491 -118.19014435 158.46736389 -118.19691467 157.62600708 C-118.21668572 154.91212878 -118.228326 152.19830625 -118.23828125 149.484375 C-118.24235678 148.55488289 -118.2464323 147.62539078 -118.25063133 146.66773224 C-118.27151999 141.73682374 -118.28580292 136.80594321 -118.29516602 131.875 C-118.30616519 126.81154451 -118.34048098 121.74853646 -118.38033772 116.68523788 C-118.40666867 112.7695034 -118.41487294 108.85387214 -118.41844749 104.93805695 C-118.42328036 103.07398752 -118.43479853 101.20992166 -118.45348549 99.34593964 C-118.65936219 77.42663142 -113.12840773 59.91843581 -97.79296875 43.66015625 C-87.09036928 33.27703736 -72.05489423 25.44378223 -56.89837646 24.92855835 C-54.80045935 24.97765671 -52.71828813 25.08760272 -50.625 25.234375 C-33.51028675 26.78779303 -33.51028675 26.78779303 -18.32110596 20.13842773 C-12.27737432 14.72530055 -7.08923628 8.54424063 -2.21533203 2.07373047 C-1.48427246 1.38939941 -0.75321289 0.70506836 0 0 Z " fill="#F7F5F6" transform="translate(280,333)"/>
<path d="M0 0 C0.87967162 -0.00367669 1.75934325 -0.00735338 2.66567159 -0.01114148 C5.62504098 -0.02218954 8.58437527 -0.02602406 11.54376221 -0.02983093 C13.66089998 -0.0360947 15.77803666 -0.04274142 17.89517212 -0.04974365 C23.65560752 -0.06716054 29.41603462 -0.07770716 35.17648983 -0.08594918 C38.77416821 -0.09109756 42.37184401 -0.09717335 45.96952057 -0.10346031 C57.22222327 -0.12251376 68.47491941 -0.13674494 79.72763515 -0.14507228 C92.72378844 -0.15484822 105.71977157 -0.18117653 118.7158649 -0.22157317 C128.7567175 -0.25171459 138.79752127 -0.26653926 148.83841825 -0.26985329 C154.83749259 -0.27220589 160.83638519 -0.2811938 166.83541107 -0.30631447 C172.47921604 -0.32956573 178.12271919 -0.33384015 183.7665596 -0.32355309 C185.83738076 -0.32305691 187.90821662 -0.32940127 189.97899246 -0.34310913 C192.80780928 -0.36078644 195.63553807 -0.35374223 198.46435547 -0.34057617 C199.28236405 -0.35154542 200.10037263 -0.36251466 200.94316936 -0.37381631 C206.57631848 -0.31058884 209.85051178 0.90551471 214.48614502 4.14717102 C218.138956 8.76124805 219.58105449 12.43936471 219.66314697 18.23799133 C219.68239983 19.43008209 219.68239983 19.43008209 219.70204163 20.64625549 C219.70942856 21.49733887 219.71681549 22.34842224 219.72442627 23.22529602 C219.73249802 24.11070068 219.74056976 24.99610535 219.74888611 25.90834045 C219.76270005 27.78106239 219.77343421 29.65380923 219.78131104 31.52656555 C219.79282424 33.4332166 219.81326561 35.33983559 219.84283447 37.24629211 C219.8856862 40.01034815 219.90170453 42.77344828 219.91192627 45.53779602 C219.92943436 46.38078247 219.94694244 47.22376892 219.96498108 48.09230042 C219.94387928 53.91552449 218.74082124 58.27404381 215.48614502 63.14717102 C210.09159047 68.40340366 205.23498118 69.37602619 197.93731689 69.32295227 C197.02530518 69.30619446 196.11329346 69.28943665 195.17364502 69.27217102 C193.77662354 69.25863586 193.77662354 69.25863586 192.35137939 69.24482727 C190.06270142 69.22135365 187.7745583 69.18851831 185.48614502 69.14717102 C185.44747314 70.40207336 185.44747314 70.40207336 185.40802002 71.68232727 C184.14450602 97.61308047 172.49018011 118.80678884 153.48614502 136.14717102 C152.82614502 136.47717102 152.16614502 136.80717102 151.48614502 137.14717102 C148.33258929 156.31758133 148.33258929 156.31758133 153.9397583 174.16377258 C160.29823923 182.23549918 168.3842922 188.89409206 176.48614502 195.14717102 C172.92238028 199.11270824 168.32720512 200.79190243 163.54864502 202.95967102 C162.64178955 203.39215149 161.73493408 203.82463196 160.80059814 204.2702179 C159.92468018 204.66918274 159.04876221 205.06814758 158.14630127 205.47920227 C157.34845215 205.84763245 156.55060303 206.21606262 155.72857666 206.59565735 C153.48614502 207.14717102 153.48614502 207.14717102 151.49542236 206.55293274 C148.89247336 204.73181726 146.85945272 202.63323837 144.67755127 200.32295227 C143.30953369 198.90466125 143.30953369 198.90466125 141.91387939 197.4577179 C140.47429686 195.95606952 139.03990455 194.45036463 137.61578369 192.93403625 C136.23351658 191.46720357 134.83077588 190.01974914 133.42755127 188.57295227 C132.59940918 187.70065979 131.77126709 186.82836731 130.91802979 185.92964172 C128.64916329 183.88246925 128.64916329 183.88246925 125.96368408 184.22773743 C123.48515304 185.14753915 121.22660925 186.16937966 118.90411377 187.43232727 C118.05397705 187.88027649 117.20384033 188.32822571 116.32794189 188.78974915 C114.5658795 189.73236825 112.80799502 190.68284138 111.05450439 191.64131165 C110.20050049 192.0879718 109.34649658 192.53463196 108.46661377 192.99482727 C107.70244141 193.40740784 106.93826904 193.8199884 106.15093994 194.24507141 C100.09929146 196.2937055 95.8349201 195.53994186 90.17169189 192.94404602 C88.17447572 191.94480964 86.1858804 190.92821066 84.20489502 189.89717102 C83.15080444 189.36446594 82.09671387 188.83176086 81.01068115 188.28291321 C77.66132736 186.58593048 74.32382158 184.86698822 70.98614502 183.14717102 C68.71085051 181.98945145 66.43481611 180.83318476 64.15802002 179.67842102 C58.59204773 176.85144451 53.03562401 174.0063766 47.48614502 171.14717102 C47.51345703 170.16957825 47.54076904 169.19198547 47.56890869 168.18476868 C47.65659517 164.51265838 47.67030764 160.84316792 47.66314697 157.17012024 C47.67006821 155.58918087 47.69632094 154.00819133 47.7432251 152.42793274 C48.13392252 142.6259837 48.13392252 142.6259837 44.12213135 134.01191711 C41.28423534 131.38418094 41.28423534 131.38418094 38.30841064 129.26435852 C24.45708521 118.87346802 16.83732283 98.28610584 13.88848877 81.80732727 C13.42190002 77.56272864 13.39912355 73.41122292 13.48614502 69.14717102 C12.88141357 69.16288147 12.27668213 69.17859192 11.65362549 69.19477844 C8.88956206 69.25748982 6.12564881 69.29627513 3.36114502 69.33467102 C2.40981689 69.35980774 1.45848877 69.38494446 0.47833252 69.4108429 C-5.94235916 69.4777251 -10.4636437 68.9607831 -15.37713623 64.42842102 C-15.85537842 63.84060852 -16.33362061 63.25279602 -16.82635498 62.64717102 C-17.31748779 62.05935852 -17.80862061 61.47154602 -18.31463623 60.86592102 C-20.3552878 57.94120867 -20.64571572 55.33557877 -20.69085693 51.87861633 C-20.70369217 51.02052368 -20.7165274 50.16243103 -20.72975159 49.27833557 C-20.73713852 48.35333252 -20.74452545 47.42832947 -20.75213623 46.47529602 C-20.76020798 45.5195166 -20.76827972 44.56373718 -20.77659607 43.57899475 C-20.79042819 41.55486358 -20.80115425 39.53070917 -20.809021 37.50654602 C-20.82621234 34.42275837 -20.87010397 31.34004894 -20.91424561 28.25654602 C-20.92437486 26.28780389 -20.93289023 24.31905265 -20.93963623 22.35029602 C-20.95714432 21.43338989 -20.9746524 20.51648376 -20.99269104 19.5717926 C-20.97248078 13.55685648 -20.0085755 10.07872995 -16.51385498 5.14717102 C-11.22458401 0.24491987 -6.95599516 -0.00155082 0 0 Z " fill="#FDCDC7" transform="translate(233.51385498046875,161.8528289794922)"/>
<path d="M0 0 C0.91115067 -0.00571014 1.82230133 -0.01142029 2.76106262 -0.01730347 C3.75850998 -0.01842133 4.75595734 -0.01953918 5.78363037 -0.02069092 C6.83596359 -0.02565582 7.88829681 -0.03062073 8.97251892 -0.03573608 C12.46132049 -0.05036631 15.95007657 -0.05716153 19.43890381 -0.06268311 C21.86165366 -0.0684343 24.2844035 -0.07419204 26.70715332 -0.07995605 C31.79140434 -0.09046881 36.87563954 -0.09630953 41.9598999 -0.09979248 C48.47112159 -0.10527459 54.98213389 -0.12929564 61.49328995 -0.15776443 C66.49990446 -0.1763999 71.50646866 -0.18159693 76.51311493 -0.18312836 C78.91325779 -0.18615387 81.31339978 -0.19417894 83.71350861 -0.20731354 C87.07428343 -0.22439086 90.43454836 -0.22248926 93.79534912 -0.21600342 C94.78469955 -0.2252182 95.77404999 -0.23443298 96.79338074 -0.243927 C103.86449694 -0.20123528 108.6379016 0.82536911 114.29827881 5.32794189 C119.15706942 11.40143016 119.99339812 17.55680223 119.92059326 25.05987549 C119.92424393 25.91304855 119.92789459 26.76622162 119.93165588 27.64524841 C119.93970888 30.443333 119.92619284 33.24082871 119.91156006 36.03887939 C119.91104072 37.99889119 119.91156126 39.95890351 119.91307068 41.91891479 C119.91298118 46.01920386 119.90259986 50.1192954 119.88446045 54.21954346 C119.8618044 59.45349624 119.86122634 64.68716 119.8679781 69.9211483 C119.87133373 73.96711761 119.86465755 78.01302207 119.85484886 82.05897903 C119.85102178 83.98772466 119.84983821 85.91647753 119.85143471 87.84522629 C119.85545709 116.91247739 119.85545709 116.91247739 109.23187256 128.54278564 C100.17725296 137.13522048 89.64574842 138.34043128 77.65374756 138.21466064 C76.68062622 138.20930298 75.70750488 138.20394531 74.70489502 138.19842529 C72.31926505 138.18451705 69.93381849 138.16504002 67.54827881 138.14044189 C67.55196598 139.07988773 67.55565315 140.01933357 67.55945206 140.98724747 C67.64818823 163.82942865 67.71395229 186.67158753 67.7555275 209.51390457 C67.77616655 220.56021494 67.80431283 231.60641156 67.85003662 242.65264893 C67.88986324 252.27878575 67.91570185 261.9048402 67.92463279 271.53105712 C67.92985461 276.6296977 67.94215569 281.72810262 67.97119904 286.82666779 C67.99830215 291.62338219 68.00673415 296.41976331 68.00070953 301.21654701 C68.00181206 302.97902295 68.00979631 304.74150977 68.02510071 306.5039196 C68.04494929 308.90703732 68.04023752 311.30889027 68.02929688 313.71203613 C68.04094824 314.41242831 68.05259961 315.11282048 68.06460404 315.83443666 C68.0233408 319.17844755 67.74582918 320.88165746 65.69179916 323.57236862 C62.87466418 325.63321869 61.08183329 325.65667497 57.61077881 325.67169189 C56.46866943 325.67684814 55.32656006 325.68200439 54.14984131 325.68731689 C52.96132568 325.67184814 51.77281006 325.65637939 50.54827881 325.64044189 C49.35976318 325.65591064 48.17124756 325.67137939 46.94671631 325.68731689 C45.80460693 325.68216064 44.66249756 325.67700439 43.48577881 325.67169189 C42.44292725 325.66718018 41.40007568 325.66266846 40.32562256 325.65802002 C36.87940089 325.01579165 35.7225917 323.82945933 33.54827881 321.14044189 C32.07980998 318.20350423 32.4146004 315.24723065 32.42802429 312.0284729 C32.42716987 311.28764107 32.42631544 310.54680925 32.42543513 309.78352797 C32.42378127 307.28838002 32.42930016 304.79329855 32.43475342 302.29815674 C32.43503534 300.51463319 32.43487747 298.73110954 32.43431091 296.94758606 C32.43402312 292.09454338 32.43991695 287.24152525 32.44688487 282.38848829 C32.4531214 277.32091361 32.45372245 272.25333842 32.45491028 267.1857605 C32.45802271 257.58455292 32.46623492 247.98335668 32.47625977 238.38215411 C32.48742364 227.45365939 32.49293205 216.52516414 32.4979552 205.59666514 C32.50841759 183.1112511 32.52601534 160.62584713 32.54827881 138.14044189 C31.67260254 138.16400757 31.67260254 138.16400757 30.77923584 138.18804932 C28.07735285 138.25126218 25.37562622 138.28970113 22.67327881 138.32794189 C21.75546631 138.35307861 20.83765381 138.37821533 19.89202881 138.40411377 C8.50784688 138.52436921 -0.81578505 135.30343827 -9.20562744 127.51153564 C-14.83993796 121.4253506 -18.53854152 113.42146179 -18.60562134 105.06872559 C-18.6142218 104.26702942 -18.62282227 103.46533325 -18.63168335 102.63934326 C-18.6359433 101.76862183 -18.64020325 100.89790039 -18.64459229 100.00079346 C-18.65276978 99.07671692 -18.66094727 98.15264038 -18.66937256 97.20056152 C-18.69417393 94.14406984 -18.71072893 91.08762442 -18.72515869 88.03106689 C-18.73048237 86.98559441 -18.73580605 85.94012192 -18.74129105 84.86296844 C-18.76799944 79.3294905 -18.78738198 73.79603493 -18.80181885 68.26251221 C-18.81515915 63.6880901 -18.84301726 59.11411395 -18.8838501 54.53985596 C-18.93320166 49.01089887 -18.95794293 43.48234635 -18.96504593 37.95317841 C-18.97175192 35.84968397 -18.9869569 33.74619833 -19.01093674 31.6428299 C-19.04263858 28.69396656 -19.04261735 25.74665823 -19.03521729 22.79766846 C-19.05162262 21.93504395 -19.06802795 21.07241943 -19.08493042 20.18365479 C-19.02215945 14.04897016 -17.40516642 9.86860232 -13.45172119 5.14044189 C-9.03436975 1.69490777 -5.57972478 0.02095824 0 0 Z " fill="#F6F4F5" transform="translate(26.45172119140625,186.85955810546875)"/>
<path d="M0 0 C1.09145325 -0.02503098 1.09145325 -0.02503098 2.20495605 -0.05056763 C22.59965236 -0.23010806 40.01412145 9.26798754 57.81323242 18.25518799 C61.43339878 20.05751058 65.09636874 21.76522737 68.765625 23.46484375 C69.40715515 23.76234024 70.0486853 24.05983673 70.70965576 24.36634827 C72.15984587 25.03753898 73.6110437 25.70655186 75.0625 26.375 C73.01104771 28.42645229 71.9571838 28.92594911 69.29052734 29.86791992 C68.51566986 30.1454863 67.74081238 30.42305267 66.94247437 30.70903015 C66.1029422 31.00485489 65.26341003 31.30067963 64.3984375 31.60546875 C62.61822227 32.24991308 60.83828311 32.89512045 59.05859375 33.54101562 C56.25716383 34.5515157 53.4542122 35.55659943 50.64599609 36.5480957 C47.93229767 37.50924725 45.22769795 38.49312394 42.5234375 39.48046875 C41.69605072 39.76617233 40.86866394 40.05187592 40.01620483 40.34623718 C32.86033144 42.99059383 27.1309945 46.97199292 23.125 53.5625 C21.72060641 57.28001243 20.94108929 60.48735703 20.90428162 64.46258545 C20.8944928 65.26742874 20.88470398 66.07227203 20.87461853 66.90150452 C20.86886307 67.77544357 20.8631076 68.64938263 20.85717773 69.54980469 C20.84727814 70.476978 20.83737854 71.40415131 20.82717896 72.35942078 C20.7956095 75.4218796 20.77082446 78.48435394 20.74609375 81.546875 C20.7255203 83.67108563 20.70452372 85.7952922 20.68312073 87.91949463 C20.62794051 93.50897941 20.57851333 99.0985009 20.53027344 104.68804932 C20.48002888 110.3923265 20.42435823 116.09655042 20.36914062 121.80078125 C20.26160857 132.992142 20.16015256 144.183549 20.0625 155.375 C9.21395814 155.46774145 -1.63448917 155.53878617 -12.48334694 155.58224869 C-17.52110436 155.60311016 -22.55859025 155.63140163 -27.59619141 155.67675781 C-32.45913735 155.72026674 -37.32182237 155.74414795 -42.18494797 155.75450897 C-44.03889447 155.76189127 -45.89282693 155.77630728 -47.74666214 155.79792023 C-50.34655703 155.82702154 -52.94537821 155.83095323 -55.54541016 155.82910156 C-56.69124573 155.85067322 -56.69124573 155.85067322 -57.86022949 155.87268066 C-63.04598181 155.83280206 -65.93911023 154.63423745 -69.9375 151.375 C-74.45684036 146.24493797 -75.09129621 143.16379255 -75.11450195 136.47558594 C-75.12107315 135.65897491 -75.12764435 134.84236389 -75.13441467 134.00100708 C-75.15418572 131.28712878 -75.165826 128.57330625 -75.17578125 125.859375 C-75.17985678 124.92988289 -75.1839323 124.00039078 -75.18813133 123.04273224 C-75.20901999 118.11182374 -75.22330292 113.18094321 -75.23266602 108.25 C-75.24366519 103.18654451 -75.27798098 98.12353646 -75.31783772 93.06023788 C-75.34416867 89.1445034 -75.35237294 85.22887214 -75.35594749 81.31305695 C-75.36078036 79.44898752 -75.37229853 77.58492166 -75.39098549 75.72093964 C-75.59686219 53.80163142 -70.06590773 36.29343581 -54.73046875 20.03515625 C-39.90859831 5.6557297 -20.2375956 0.41170621 0 0 Z " fill="#F8F6F7" transform="translate(236.9375,356.625)"/>
<path d="M0 0 C0.93005859 -0.02900391 1.86011719 -0.05800781 2.81835938 -0.08789062 C8.92527204 -0.14431555 12.45791431 0.70927958 17.4375 4.3125 C21.09031098 8.92657703 22.53240947 12.60469369 22.61450195 18.40332031 C22.63375481 19.59541107 22.63375481 19.59541107 22.65339661 20.81158447 C22.66078354 21.66266785 22.66817047 22.51375122 22.67578125 23.390625 C22.683853 24.27602966 22.69192474 25.16143433 22.70024109 26.07366943 C22.71405503 27.94639137 22.72478919 29.81913821 22.73266602 31.69189453 C22.74417922 33.59854558 22.76462059 35.50516457 22.79418945 37.41162109 C22.83704118 40.17567713 22.85305951 42.93877726 22.86328125 45.703125 C22.88078934 46.54611145 22.89829742 47.3890979 22.91633606 48.25762939 C22.89523426 54.08085347 21.69217622 58.43937279 18.4375 63.3125 C13.04294545 68.56873264 8.18633616 69.54135517 0.88867188 69.48828125 C-0.02333984 69.47152344 -0.93535156 69.45476562 -1.875 69.4375 C-3.27202148 69.42396484 -3.27202148 69.42396484 -4.69726562 69.41015625 C-6.9859436 69.38668263 -9.27408672 69.35384729 -11.5625 69.3125 C-11.58828125 70.14910156 -11.6140625 70.98570312 -11.640625 71.84765625 C-12.904139 97.77840945 -24.55846491 118.97211782 -43.5625 136.3125 C-44.2225 136.6425 -44.8825 136.9725 -45.5625 137.3125 C-45.8925 148.5325 -46.2225 159.7525 -46.5625 171.3125 C-51.945625 174.035 -51.945625 174.035 -57.4375 176.8125 C-59.13302002 177.67391602 -59.13302002 177.67391602 -60.86279297 178.55273438 C-61.75111816 178.99939453 -62.63944336 179.44605469 -63.5546875 179.90625 C-64.92149658 180.59750977 -64.92149658 180.59750977 -66.31591797 181.30273438 C-68.5625 182.3125 -68.5625 182.3125 -70.5625 182.3125 C-70.5625 171.7525 -70.5625 161.1925 -70.5625 150.3125 C-74.5225 151.3025 -74.5225 151.3025 -78.5625 152.3125 C-87.23018266 154.33572989 -95.66744669 155.25808045 -104.5625 154.3125 C-105.5525 153.6525 -106.5425 152.9925 -107.5625 152.3125 C-106.78648437 152.16554688 -106.01046875 152.01859375 -105.2109375 151.8671875 C-90.80967804 148.87694986 -79.1550838 143.15536042 -67.5625 134.3125 C-66.81226563 133.74789062 -66.06203125 133.18328125 -65.2890625 132.6015625 C-50.72793378 120.80301946 -40.76729318 100.62535049 -37.5625 82.3125 C-37.30141086 79.48960684 -37.25209536 76.68906782 -37.24365234 73.85522461 C-37.23360672 73.06387115 -37.2235611 72.2725177 -37.21321106 71.45718384 C-37.18265147 68.87641031 -37.16542071 66.29573915 -37.1484375 63.71484375 C-37.12970387 61.91165808 -37.11012886 60.10848097 -37.0897522 58.30531311 C-37.03865673 53.58559238 -36.99891084 48.8658433 -36.96160889 44.14599609 C-36.92142683 39.31926592 -36.87039962 34.49265138 -36.8203125 29.66601562 C-36.72382101 20.21492525 -36.63933142 10.76376923 -36.5625 1.3125 C-8.46046696 0.0946361 -8.46046696 0.0946361 0 0 Z " fill="#FEC0B7" transform="translate(430.5625,161.6875)"/>
<path d="M0 0 C11.55 0 23.1 0 35 0 C35.09023854 23.92154156 35.16394601 47.84294567 35.20724869 71.76461411 C35.22788785 82.87145829 35.25603434 93.97818935 35.30175781 105.08496094 C35.34158409 114.76383547 35.36742296 124.44262808 35.37635398 134.12158227 C35.38157586 139.24816796 35.3938773 144.37451928 35.42292023 149.50102997 C35.45002281 154.32400872 35.45845544 159.14665601 35.45243073 163.96970367 C35.45353328 165.74185486 35.46151783 167.51401685 35.4768219 169.28610229 C35.49666962 171.70235499 35.491959 174.1173497 35.48101807 176.53363037 C35.49266943 177.23791349 35.5043208 177.94219661 35.51632524 178.66782165 C35.47518197 182.02010514 35.20144946 183.73585043 33.14352036 186.43429947 C30.32628864 188.49210181 28.53195835 188.51623998 25.0625 188.53125 C23.34933594 188.53898437 23.34933594 188.53898437 21.6015625 188.546875 C20.41304687 188.53140625 19.22453125 188.5159375 18 188.5 C16.81148437 188.51546875 15.62296875 188.5309375 14.3984375 188.546875 C13.25632812 188.54171875 12.11421875 188.5365625 10.9375 188.53125 C9.89464844 188.52673828 8.85179688 188.52222656 7.77734375 188.51757812 C4.33112208 187.87534976 3.17431289 186.68901744 1 184 C-0.47316261 181.05367478 -0.1336477 178.07935087 -0.12025452 174.85006714 C-0.12110894 174.10515176 -0.12196337 173.36023638 -0.12284368 172.59274781 C-0.12449757 170.08378046 -0.1189786 167.57487921 -0.11352539 165.06591797 C-0.11324347 163.27254233 -0.11340134 161.47916658 -0.1139679 159.68579102 C-0.11425569 154.80588975 -0.10836182 149.92601288 -0.10139394 145.04611731 C-0.09515746 139.9505154 -0.09455637 134.85491299 -0.09336853 129.75930786 C-0.09025609 120.10497636 -0.08204386 110.45065614 -0.07201904 100.79632962 C-0.06085522 89.80737655 -0.05534677 78.81842295 -0.05032361 67.82946563 C-0.03986118 45.21963605 -0.02151677 22.60982194 0 0 Z " fill="#444444" transform="translate(59,324)"/>
<path d="M0 0 C2.57666208 0.73601768 4.72634545 1.64574123 7.1000061 2.88153076 C7.95472 3.32191177 8.8094339 3.76229279 9.69004822 4.21601868 C10.60159164 4.69208054 11.51313507 5.1681424 12.45230103 5.65863037 C14.40447766 6.65856002 16.35696131 7.65789044 18.3097229 8.65667725 C21.37429719 10.23230205 24.43610704 11.81271159 27.49258423 13.4039917 C30.4511183 14.94086464 33.41945504 16.45724205 36.38980103 17.97113037 C37.74800713 18.68825951 37.74800713 18.68825951 39.13365173 19.4198761 C44.62945505 22.20048954 48.45258088 23.50026418 54.62026978 22.74847412 C57.50264362 21.80034057 57.50264362 21.80034057 60.07339478 20.30706787 C61.02214478 19.80626709 61.97089478 19.30546631 62.94839478 18.78948975 C63.91261353 18.26032959 64.87683228 17.73116943 65.87026978 17.18597412 C67.80712348 16.1321728 69.7496352 15.08868582 71.69839478 14.05706787 C72.54820923 13.59099121 73.39802368 13.12491455 74.27359009 12.64471436 C76.62026978 11.74847412 76.62026978 11.74847412 78.60269165 11.80169678 C81.58479133 13.20108963 83.50271108 15.25995392 85.82339478 17.58831787 C86.30604797 18.07047256 86.78870117 18.55262726 87.28598022 19.0493927 C88.30141198 20.06715966 89.31316505 21.08860849 90.32144165 22.11346436 C91.86999536 23.68569551 93.43152849 25.2440974 94.99526978 26.8012085 C102.62026978 34.46935104 102.62026978 34.46935104 102.62026978 36.74847412 C97.03794861 39.20290983 91.45524973 41.65648382 85.8722229 44.10931396 C83.97921919 44.94111753 82.08631284 45.77314271 80.19351196 46.60540771 C74.79859338 48.97745922 69.40186907 51.34530372 64.0020752 53.70623779 C62.51770176 54.3557736 61.03382706 55.00645184 59.55072021 55.65887451 C50.91609106 59.45559248 42.18622212 62.81775502 33.30776978 65.99847412 C23.29226099 69.63267393 13.29868854 73.31921597 3.37026978 77.18597412 C2.31154663 77.58655029 1.25282349 77.98712646 0.16201782 78.39984131 C-1.28950684 78.97266846 -1.28950684 78.97266846 -2.77035522 79.55706787 C-4.03927612 80.04904663 -4.03927612 80.04904663 -5.33383179 80.55096436 C-7.83884308 82.01720307 -8.29378885 83.09216454 -9.37973022 85.74847412 C-9.68474437 87.70750994 -9.68474437 87.70750994 -9.65820312 89.76013184 C-9.66936661 90.54814682 -9.68053009 91.3361618 -9.69203186 92.14805603 C-9.69419205 93.00329361 -9.69635223 93.85853119 -9.69857788 94.73968506 C-9.7086235 95.64735123 -9.71866913 96.5550174 -9.72901917 97.4901886 C-9.75988844 100.48773572 -9.77689679 103.48519336 -9.79379272 106.48284912 C-9.81250135 108.56222302 -9.83207453 110.64158931 -9.85247803 112.72094727 C-9.90383744 118.19205234 -9.94344286 123.66318204 -9.98062134 129.13439941 C-10.02063704 134.71805939 -10.0717405 140.3016166 -10.12191772 145.88519287 C-10.21872215 156.8395478 -10.30311256 167.79396071 -10.37973022 178.74847412 C-15.32973022 178.74847412 -20.27973022 178.74847412 -25.37973022 178.74847412 C-25.44932739 166.50021482 -25.50259094 154.25200279 -25.53516674 142.00358582 C-25.55080371 136.31577556 -25.57200622 130.62810089 -25.60604858 124.94036865 C-25.63871194 119.44849317 -25.65659805 113.95674786 -25.66436195 108.46478271 C-25.66989292 106.37247672 -25.68069352 104.28017762 -25.69692039 102.18792725 C-25.71878719 99.25092325 -25.72169326 96.31445305 -25.7203064 93.37738037 C-25.73109222 92.51782242 -25.74187805 91.65826447 -25.75299072 90.7726593 C-25.71593965 83.4923276 -24.15007872 77.10402254 -19.19223022 71.49847412 C-18.66242554 70.87456787 -18.13262085 70.25066162 -17.58676147 69.60784912 C-12.28382787 65.14024488 -5.38970537 62.86161837 1.05776978 60.51409912 C2.20608276 60.08976593 2.20608276 60.08976593 3.37759399 59.65686035 C5.7902579 58.76642254 8.20519335 57.88234479 10.62026978 56.99847412 C12.27016469 56.39082278 13.91990577 55.78275359 15.56948853 55.17425537 C19.58465573 53.69416462 23.60187106 52.21976758 27.62026978 50.74847412 C24.90067921 48.5866777 22.28933573 47.00630088 19.11465454 45.60369873 C18.23016129 45.20996567 17.34566803 44.8162326 16.43437195 44.41056824 C15.48638229 43.99485062 14.53839264 43.579133 13.56167603 43.15081787 C12.58037216 42.71588516 11.5990683 42.28095245 10.58802795 41.83283997 C7.45503587 40.44575873 4.31891935 39.06589917 1.18276978 37.68597412 C-0.92485077 36.75348031 -3.03227495 35.82054256 -5.13949585 34.887146 C-9.00676931 33.17680256 -12.87424369 31.46693853 -16.74472046 29.76385498 C-17.52097275 29.42204697 -18.29722504 29.08023895 -19.09700012 28.72807312 C-21.5089072 27.69303978 -23.93909969 26.71358929 -26.37973022 25.74847412 C-24.0475662 20.15992717 -19.29929202 16.21983274 -15.10409546 11.99237061 C-13.56847543 10.43723515 -12.05547169 8.86208916 -10.5418396 7.2855835 C-9.5659516 6.29664349 -8.58878018 5.30896796 -7.61019897 4.32269287 C-6.72743286 3.42123535 -5.84466675 2.51977783 -4.93515015 1.59100342 C-2.37973022 -0.25152588 -2.37973022 -0.25152588 0 0 Z " fill="#E2DEE2" transform="translate(282.3797302246094,333.25152587890625)"/>
<path d="M0 0 C11.55 0 23.1 0 35 0 C35 14.19 35 28.38 35 43 C27.08 43 19.16 43 11 43 C11.01110306 44.74282761 11.02220612 46.48565521 11.03364563 48.28129578 C11.1349075 64.68818839 11.21021121 81.09500538 11.25906086 97.50213909 C11.28484381 105.93767026 11.31999585 114.37296816 11.37719727 122.80834961 C11.42702972 130.16054925 11.45929036 137.51257997 11.47044247 144.8649438 C11.47696161 148.75814875 11.4922845 152.65087044 11.52865028 156.54392052 C11.56260781 160.20888004 11.57305381 163.87315761 11.56553841 167.53825951 C11.56756822 169.52336705 11.59446481 171.50840044 11.62210083 173.49331665 C11.56582548 183.19432086 11.56582548 183.19432086 8.46452332 186.33869934 C7.65123062 186.88692856 6.83793793 187.43515778 6 188 C3.72525606 187.09010242 2.29274012 186.42327903 0.88221931 184.38377762 C-0.32304071 181.12713631 -0.2691513 178.03394188 -0.24050903 174.60955811 C-0.24221788 173.86293388 -0.24392673 173.11630965 -0.24568737 172.34706044 C-0.2489827 169.84423185 -0.23797792 167.3416711 -0.22705078 164.83886719 C-0.22648668 163.0451966 -0.22680321 161.25152555 -0.22793579 159.45785522 C-0.22851033 154.58630627 -0.21673957 149.71485553 -0.20278788 144.84332943 C-0.19029745 139.7530816 -0.18911135 134.66283159 -0.18673706 129.5725708 C-0.18051733 119.93245597 -0.16409983 110.29238642 -0.14403808 100.65229154 C-0.12169443 89.6778069 -0.11068951 78.70332013 -0.10064721 67.72881842 C-0.07973404 45.15251471 -0.04305163 22.57627309 0 0 Z " fill="#5A5A5A" transform="translate(59,324)"/>
<path d="M0 0 C3.82172215 1.13236212 4.49829691 1.59635292 6.375 5 C6.76940918 8.25669861 6.76940918 8.25669861 6.79492188 12.16772461 C6.80339142 12.88204147 6.81186096 13.59635834 6.82058716 14.33232117 C6.84395023 16.68917741 6.84497955 19.04538056 6.84375 21.40234375 C6.85085197 23.0437496 6.85855102 24.68515297 6.86682129 26.32655334 C6.88026442 29.76554263 6.88183565 33.20430235 6.87597656 36.64331055 C6.8700801 41.04644098 6.90066941 45.4484689 6.94109344 49.85138607 C6.96696585 53.24095068 6.96984833 56.63024963 6.96620178 60.01989937 C6.96789344 61.64299859 6.9775405 63.26611003 6.99534607 64.88911247 C7.01752917 67.1611153 7.00784068 69.43088449 6.99023438 71.70288086 C6.99228882 72.99431503 6.99434326 74.28574921 6.99645996 75.61631775 C6.21171038 79.88906806 4.79454704 81.39494602 1.375 84 C-2.33060277 84.0638897 -4.57148525 84.00786575 -7.30969238 81.38830566 C-9.13246384 78.0785587 -9.02071302 75.49551525 -9.04492188 71.72460938 C-9.05339142 70.99893265 -9.06186096 70.27325592 -9.07058716 69.52558899 C-9.09394972 67.13146349 -9.09497967 64.73798077 -9.09375 62.34375 C-9.10085121 60.67752831 -9.10855015 59.01130907 -9.11682129 57.34509277 C-9.13026373 53.8548299 -9.1318356 50.36479323 -9.12597656 46.87451172 C-9.12007547 42.40178803 -9.15068899 37.93014795 -9.19109344 33.45763397 C-9.21693985 30.0174983 -9.21985079 26.57762478 -9.21620178 23.1374054 C-9.2178954 21.48836032 -9.22756122 19.83930344 -9.24534607 18.19035339 C-9.26748121 15.88462677 -9.25786545 13.58110961 -9.24023438 11.27539062 C-9.24331604 9.30826111 -9.24331604 9.30826111 -9.24645996 7.3013916 C-8.625 4 -8.625 4 -6.31311035 1.54528809 C-3.625 0 -3.625 0 0 0 Z " fill="#CBC4CC" transform="translate(103.625,214)"/>
<path d="M0 0 C3.31849358 2.64185927 4.83798578 4.11822551 5.61473083 8.34571838 C5.60966019 9.61938766 5.60458954 10.89305695 5.59936523 12.20532227 C5.60330795 12.91163788 5.60725067 13.61795349 5.61131287 14.34567261 C5.61800157 16.66998256 5.58891179 18.99230799 5.55859375 21.31640625 C5.55434121 22.93635172 5.5520148 24.55630329 5.55152893 26.17625427 C5.54537067 29.56659683 5.52270502 32.95627685 5.48706055 36.34643555 C5.44175236 40.68991221 5.42703221 45.0327899 5.42332363 49.37648106 C5.41889306 52.71967971 5.40358632 56.06275296 5.3844471 59.40589714 C5.37557504 61.00745552 5.36884012 62.60902723 5.36428642 64.21060371 C5.35523311 66.44865481 5.33283448 68.68616746 5.30639648 70.92407227 C5.29575668 72.19694595 5.28511688 73.46981964 5.27415466 74.78126526 C5.0141817 77.83349859 4.72857125 79.51036887 3 82 C-0 84 -0 84 -3.5 83.8125 C-8.11643533 82.74082751 -8.11643533 82.74082751 -10 80 C-10.30623875 77.5005312 -10.43048979 75.24744701 -10.41992188 72.74633789 C-10.42839142 72.01105362 -10.43686096 71.27576935 -10.44558716 70.51820374 C-10.4689976 68.08617891 -10.4699784 65.65478525 -10.46875 63.22265625 C-10.47584924 61.5325851 -10.48354789 59.84251637 -10.49182129 58.15245056 C-10.50527542 54.60913393 -10.50683077 51.06604013 -10.50097656 47.52270508 C-10.49507992 42.98157733 -10.52566524 38.44151852 -10.56609344 33.90059757 C-10.59194171 30.40984841 -10.59485051 26.9193576 -10.59120178 23.42852592 C-10.59289579 21.75436148 -10.60256533 20.08018546 -10.62034607 18.40611458 C-10.64248051 16.06436752 -10.6328649 13.72479617 -10.61523438 11.38305664 C-10.62849762 10.69149475 -10.64176086 9.99993286 -10.65542603 9.28741455 C-10.59103131 5.60693553 -10.23725721 4.24164765 -7.61779785 1.57371521 C-4.62803291 -0.22361172 -3.40590811 -0.76632933 0 0 Z " fill="#CBC4CC" transform="translate(54,214)"/>
<path d="M0 0 C11.55 0 23.1 0 35 0 C35 8.91 35 17.82 35 27 C23.45 27 11.9 27 0 27 C0 18.09 0 9.18 0 0 Z " fill="#444444" transform="translate(59,324)"/>
<path d="M0 0 C4.86084222 2.43578628 7.90633231 6.37645742 9.89453125 11.38671875 C10.89422836 17.01358536 10.17190229 21.62924467 6.89453125 26.38671875 C2.5596214 30.75237264 -0.97259515 33.4708697 -7.29296875 33.76171875 C-12.60774659 33.67515885 -16.22238458 31.98930925 -20.10546875 28.38671875 C-23.84429276 23.63683247 -24.75718293 18.67267206 -24.4921875 12.71484375 C-23.69063398 7.88932962 -21.03349896 5.20426917 -17.48046875 2.07421875 C-12.31069269 -1.59904318 -6.07991185 -1.77095763 0 0 Z " fill="#05C1F9" transform="translate(323.10546875,444.61328125)"/>
<path d="M0 0 C5.99500997 4.96194855 11.46427037 10.3476624 16.9375 15.875 C17.81212891 16.75414062 18.68675781 17.63328125 19.58789062 18.5390625 C21.72757048 20.6904346 23.86486597 22.84411792 26 25 C22.43623526 28.96553722 17.8410601 30.64473141 13.0625 32.8125 C12.15564453 33.24498047 11.24878906 33.67746094 10.31445312 34.12304688 C9.43853516 34.52201172 8.56261719 34.92097656 7.66015625 35.33203125 C6.86230713 35.70046143 6.06445801 36.0688916 5.24243164 36.44848633 C3 37 3 37 1.03393555 36.41723633 C-1.67824374 34.52740308 -3.87870494 32.3436357 -6.203125 29.9921875 C-6.6857782 29.50670441 -7.1684314 29.02122131 -7.66571045 28.52102661 C-9.19858562 26.97700134 -10.72434004 25.42615176 -12.25 23.875 C-13.29120361 22.82375991 -14.33286541 21.77297343 -15.375 20.72265625 C-17.92199464 18.15366996 -20.46265177 15.57851839 -23 13 C-20.69879725 10.43840656 -18.41412498 9.03113136 -15.33203125 7.51953125 C-14.43935547 7.07802734 -13.54667969 6.63652344 -12.62695312 6.18164062 C-11.69818359 5.72982422 -10.76941406 5.27800781 -9.8125 4.8125 C-8.87212891 4.34908203 -7.93175781 3.88566406 -6.96289062 3.40820312 C-4.64453825 2.26667937 -2.32356935 1.13085662 0 0 Z " fill="#CCC4CC" transform="translate(384,332)"/>
<path d="M0 0 C7.75385058 -0.09272074 15.50757106 -0.16377508 23.26183701 -0.20724869 C26.86258286 -0.22811513 30.46294916 -0.25641421 34.06347656 -0.30175781 C37.53887913 -0.34525125 41.01391688 -0.36914421 44.48957062 -0.37950897 C46.45945784 -0.39048615 48.42919847 -0.421707 50.39886475 -0.45318604 C52.20027924 -0.45363922 52.20027924 -0.45363922 54.03808594 -0.45410156 C55.09509705 -0.46298401 56.15210815 -0.47186646 57.2411499 -0.48101807 C60.72082941 0.12567989 61.88617572 1.21506619 64 4 C64.5625 7.5 64.5625 7.5 64 11 C61.09954989 14.15123693 59.37357511 14.94739037 55.09936523 15.54931641 C53.58619404 15.58896995 52.0722802 15.60514131 50.55859375 15.6015625 C49.3515554 15.61441788 49.3515554 15.61441788 48.12013245 15.62753296 C46.42493443 15.63898304 44.72963819 15.64004685 43.03442383 15.63134766 C40.44117395 15.62500898 37.8524543 15.67202644 35.25976562 15.72265625 C33.60938074 15.72720108 31.95898362 15.72860976 30.30859375 15.7265625 C29.53559433 15.74498199 28.76259491 15.76340149 27.96617126 15.78237915 C25.77124023 15.74462891 25.77124023 15.74462891 22 15 C19.70361328 12.05517578 19.70361328 12.05517578 18 9 C15.37690885 7.81630498 13.17064835 6.98270515 10.4375 6.25 C3.25582627 4.17055085 3.25582627 4.17055085 0 2 C0 1.34 0 0.68 0 0 Z " fill="#EFEDEF" transform="translate(225,78)"/>
<path d="M0 0 C1.19222355 1.01231594 2.35803908 2.05630649 3.5 3.125 C5.92707929 5.30081778 6.83949066 5.96468795 10.125 6.6875 C13.96495059 5.76925094 15.41537504 3.92470719 18 1 C19.875 -0.875 19.875 -0.875 22 -2 C25.75245951 -1.93416738 28.06312483 -1.81598805 30.9375 0.6875 C32.40601629 3.8836825 32.60666341 5.49483365 32 9 C29.02420556 14.9399191 24.72616002 18.49021034 18.70703125 21.15234375 C11.33588369 23.46048086 4.28138634 22.53803979 -2.69921875 19.3984375 C-7.73788081 16.33588908 -11.13545809 12.32061249 -13.1875 6.8125 C-12.93699871 3.05498059 -11.66618807 1.59212729 -9 -1 C-5.06787183 -2.31070939 -3.77398975 -1.6692647 0 0 Z " fill="#FEC0B7" transform="translate(323,233)"/>
<path d="M0 0 C5.47650545 2.19060218 7.43182454 3.97335826 10.09228516 9.1081543 C11.34106318 13.08657703 11.32473568 16.80954489 11.3359375 20.95703125 C11.3425943 21.81882492 11.3492511 22.68061859 11.35610962 23.56852722 C11.36621173 25.38819249 11.3709274 27.20789461 11.37060547 29.02758789 C11.3749694 31.79311116 11.41128814 34.55702535 11.44921875 37.32226562 C11.45508952 39.09634875 11.45905717 40.8704394 11.4609375 42.64453125 C11.47530853 43.46250687 11.48967957 44.28048248 11.50448608 45.12324524 C11.45463813 51.47518803 9.97132363 56.93963997 5.44638062 61.60017395 C1.47809479 65 1.47809479 65 0 65 C0 43.55 0 22.1 0 0 Z " fill="#FDCDC7" transform="translate(418,164)"/>
<path d="M0 0 C11.55 0 23.1 0 35 0 C35 4.95 35 9.9 35 15 C23.45 15 11.9 15 0 15 C0 10.05 0 5.1 0 0 Z " fill="#F8F6F7" transform="translate(59,351)"/>
<path d="M0 0 C11.55 0 23.1 0 35 0 C35 0.33 35 0.66 35 1 C27.08 1 19.16 1 11 1 C11 9.25 11 17.5 11 26 C18.92 26 26.84 26 35 26 C35 26.33 35 26.66 35 27 C23.45 27 11.9 27 0 27 C0 18.09 0 9.18 0 0 Z " fill="#616161" transform="translate(59,324)"/>
<path d="M0 0 C0.66 -0.01289063 1.32 -0.02578125 2 -0.0390625 C5.17788421 1.01609437 6.26173253 2.82699929 8 5.625 C8.53125 8.78125 8.53125 8.78125 8.5 12.125 C8.5103125 13.2284375 8.520625 14.331875 8.53125 15.46875 C7.88906678 19.28407384 6.77363486 20.95879466 4 23.625 C2 24.2890625 2 24.2890625 0 24.25 C-0.66 24.26289063 -1.32 24.27578125 -2 24.2890625 C-5.17788421 23.23390563 -6.26173253 21.42300071 -8 18.625 C-8.53125 15.46875 -8.53125 15.46875 -8.5 12.125 C-8.51546875 10.46984375 -8.51546875 10.46984375 -8.53125 8.78125 C-7.70529889 3.87412868 -5.37444646 -0.10496966 0 0 Z " fill="#5F5E5D" transform="translate(367,188.375)"/>
<path d="M0 0 C2.1875 1.5625 2.1875 1.5625 4 4 C4.53125 7.53125 4.53125 7.53125 4.5 11.5 C4.5103125 12.8096875 4.520625 14.119375 4.53125 15.46875 C4 19 4 19 2.1875 21.43359375 C-1.03777829 23.74312338 -3.13806535 23.62066807 -7 23 C-9.8847249 20.23890616 -10.91242331 18.56216508 -11.53125 14.58984375 C-11.5209375 13.38457031 -11.510625 12.17929688 -11.5 10.9375 C-11.5103125 9.72964844 -11.520625 8.52179688 -11.53125 7.27734375 C-10.42889724 0.47679991 -6.43095083 -0.91870726 0 0 Z " fill="#5B5B5B" transform="translate(302,189)"/>
<path d="M0 0 C3 1 3 1 4.6875 3.4375 C6.66655513 8.80922106 7.12642568 13.97669298 5.09765625 19.421875 C4.14920662 21.32552478 3.08426701 23.17029941 2 25 C-1.84241062 21.54183044 -3.68366275 18.86141422 -4.2578125 13.66796875 C-4.52412635 7.74692408 -3.82698106 4.54454001 0 0 Z " fill="#62DAFA" transform="translate(303,449)"/>
</svg>
