<?xml version="1.0" encoding="UTF-8"?>
<svg version="1.1" xmlns="http://www.w3.org/2000/svg" width="512" height="512">
<path d="M0 0 C1.94828064 -0.01059839 1.94828064 -0.01059839 3.93592048 -0.02141088 C5.38069295 -0.01915943 6.82546512 -0.01671292 8.27023697 -0.01409245 C9.80241605 -0.01854366 11.33459283 -0.02385733 12.86676621 -0.02996117 C17.08368705 -0.04416567 21.30053427 -0.045804 25.51747561 -0.04536426 C30.06294695 -0.04701032 34.60838777 -0.06007289 39.15384293 -0.07155704 C49.09597445 -0.09442273 59.03808466 -0.10232935 68.98023891 -0.10738349 C75.18689607 -0.11063871 81.39354701 -0.11716013 87.60020065 -0.12438488 C104.78108267 -0.14395291 121.96195891 -0.16035591 139.14285278 -0.16326141 C140.24265119 -0.16344898 141.34244959 -0.16363655 142.47557522 -0.16382981 C144.70518637 -0.16419606 146.93479751 -0.16455976 149.16440865 -0.16492092 C150.27120761 -0.16510373 151.37800656 -0.16528654 152.51834488 -0.16547489 C153.62649308 -0.16565544 154.73464129 -0.16583599 155.87636974 -0.16602201 C173.83477524 -0.1695641 191.79306085 -0.19658778 209.75142476 -0.23397278 C228.18435874 -0.27203897 246.61723321 -0.29141877 265.05020738 -0.29172093 C275.40154171 -0.29230588 285.75273304 -0.3008223 296.10403061 -0.32971859 C304.91797632 -0.35420989 313.7317269 -0.3615306 322.54569742 -0.34647106 C327.04295088 -0.33929291 331.53981882 -0.34019843 336.03702927 -0.36288166 C340.15532601 -0.38345473 344.27294045 -0.38088734 348.39122966 -0.36000682 C349.87980757 -0.35650868 351.36843454 -0.3614358 352.85694811 -0.37571125 C362.16333234 -0.45919991 368.45872121 0.09964836 375.22759223 6.73812968 C380.16576361 12.23236007 381.01684179 17.17475116 380.97776222 24.34929276 C380.9812683 25.16308457 380.98477437 25.97687639 380.98838669 26.81532857 C380.9977216 29.55367264 380.99277198 32.29180501 380.98791885 35.03015804 C380.99165406 37.00867772 380.99625506 38.98719592 381.0016495 40.96571177 C381.01391093 46.41174239 381.01361533 51.85771173 381.01126075 57.30375302 C381.01085338 63.17368499 381.0218841 69.04359709 381.03137589 74.91351986 C381.048004 86.4171915 381.05348625 97.92084265 381.05460064 109.4245253 C381.05551945 118.77312047 381.05963467 128.1217104 381.06600189 137.47030354 C381.06779696 140.16052251 381.06957659 142.8507415 381.07135165 145.54096049 C381.07201479 146.54413364 381.07201479 146.54413364 381.07269133 147.56757291 C381.08500117 166.38135041 381.09289232 185.19512561 381.09200478 204.00890732 C381.09195804 205.07306896 381.09195804 205.07306896 381.09191036 206.15872882 C381.09174414 209.75453465 381.09154606 213.35034047 381.09134094 216.94614629 C381.09130105 217.66029605 381.09126116 218.37444581 381.09122006 219.11023647 C381.09113919 220.55442163 381.09105559 221.99860678 381.09096928 223.44279193 C381.08974372 245.91291376 381.1047573 268.38297524 381.13211441 290.8530798 C381.16283186 316.09368894 381.18004711 341.33425843 381.17818797 366.57488745 C381.1780387 369.2660495 381.17794129 371.95721155 381.17787933 374.6483736 C381.17785602 375.31101395 381.17783272 375.97365429 381.1778087 376.65637465 C381.17775095 386.66193952 381.18845197 396.66745606 381.20454407 406.6730051 C381.22272814 418.05240596 381.22712601 429.4317079 381.21352522 440.81111697 C381.20698163 446.61865123 381.20692862 452.42599557 381.22423172 458.23351192 C381.23990583 463.5488791 381.23715671 468.86390487 381.21966346 474.17926344 C381.21658107 476.10320202 381.2202723 478.02716573 381.23138361 479.9510747 C381.24548443 482.56556648 381.23493471 485.17885736 381.21827126 487.79330826 C381.23317579 488.91476896 381.23317579 488.91476896 381.24838144 490.05888543 C381.16340609 496.36152557 379.12215637 501.53185726 374.93924332 506.28349972 C374.37205582 506.72951534 373.80486832 507.17553097 373.22049332 507.63506222 C372.65330582 508.09654659 372.08611832 508.55803097 371.50174332 509.03349972 C367.37988257 511.87179856 364.4898862 512.51136258 359.44098663 512.52012444 C358.14213288 512.52719003 356.84327912 512.53425562 355.50506616 512.54153532 C354.06029369 512.53928387 352.61552151 512.53683736 351.17074966 512.53421688 C349.63857058 512.5386681 348.10639381 512.54398176 346.57422042 512.5500856 C342.35729958 512.5642901 338.14045236 512.56592843 333.92351103 512.5654887 C329.37803969 512.56713475 324.83259886 512.58019732 320.28714371 512.59168148 C310.34501218 512.61454717 300.40290198 512.62245379 290.46074772 512.62750793 C284.25409057 512.63076314 278.04743962 512.63728456 271.84078598 512.64450932 C254.65990396 512.66407734 237.47902773 512.68048035 220.29813385 512.68338585 C219.19833544 512.68357342 218.09853704 512.68376099 216.96541141 512.68395424 C214.73580027 512.6843205 212.50618912 512.68468419 210.27657798 512.68504535 C208.61637955 512.68531957 208.61637955 512.68531957 206.92264175 512.68559933 C205.81449355 512.68577988 204.70634534 512.68596043 203.56461689 512.68614645 C185.6062114 512.68968854 167.64792578 512.71671222 149.68956187 512.75409722 C131.2566279 512.7921634 112.82375342 512.8115432 94.39077926 512.81184536 C84.03944493 512.81243031 73.68825359 512.82094673 63.33695602 512.84984303 C54.52301031 512.87433432 45.70925974 512.88165503 36.89528921 512.8665955 C32.39803576 512.85941735 27.90116781 512.86032287 23.40395737 512.8830061 C19.28566063 512.90357916 15.16804618 512.90101178 11.04975697 512.88013125 C9.56117906 512.87663311 8.07255209 512.88156023 6.58403853 512.89583569 C-2.7223457 512.97932435 -9.01773458 512.42047608 -15.7866056 505.78199476 C-20.72477698 500.28776437 -21.57585515 495.34537328 -21.53677559 488.17083168 C-21.54028166 487.35703986 -21.54378774 486.54324804 -21.54740006 485.70479587 C-21.55673496 482.9664518 -21.55178535 480.22831943 -21.54693222 477.48996639 C-21.55066742 475.51144671 -21.55526842 473.53292851 -21.56066287 471.55441266 C-21.5729243 466.10838204 -21.5726287 460.6624127 -21.57027411 455.21637142 C-21.56986674 449.34643945 -21.58089747 443.47652734 -21.59038925 437.60660458 C-21.60701737 426.10293294 -21.61249961 414.59928179 -21.61361401 403.09559914 C-21.61453281 393.74700397 -21.61864803 384.39841403 -21.62501526 375.0498209 C-21.62681033 372.35960192 -21.62858995 369.66938294 -21.63036501 366.97916394 C-21.63080711 366.31038185 -21.63124921 365.64159975 -21.6317047 364.95255153 C-21.64401454 346.13877402 -21.65190568 327.32499883 -21.65101814 308.51121712 C-21.65098699 307.80177602 -21.65095583 307.09233492 -21.65092373 306.36139561 C-21.65075751 302.76558979 -21.65055943 299.16978397 -21.65035431 295.57397815 C-21.65031442 294.85982839 -21.65027453 294.14567862 -21.65023343 293.40988796 C-21.65015256 291.96570281 -21.65006896 290.52151766 -21.64998265 289.07733251 C-21.64875709 266.60721067 -21.66377067 244.1371492 -21.69112778 221.66704464 C-21.72184523 196.42643549 -21.73906048 171.185866 -21.73720133 145.94523698 C-21.73705207 143.25407493 -21.73695466 140.56291288 -21.7368927 137.87175083 C-21.73686939 137.20911049 -21.73684608 136.54647014 -21.73682207 135.86374979 C-21.73676432 125.85818492 -21.74746533 115.85266837 -21.76355743 105.84711933 C-21.7817415 94.46771848 -21.78613937 83.08841654 -21.77253859 71.70900746 C-21.765995 65.9014732 -21.76594198 60.09412887 -21.78324509 54.28661251 C-21.7989192 48.97124533 -21.79617008 43.65621956 -21.77867682 38.340861 C-21.77559444 36.41692242 -21.77928567 34.49295871 -21.79039697 32.56904974 C-21.8044978 29.95455795 -21.79394807 27.34126708 -21.77728462 24.72681618 C-21.78722098 23.97917571 -21.79715734 23.23153525 -21.8073948 22.46123901 C-21.72241945 16.15859886 -19.68116974 10.98826718 -15.49825668 6.23662472 C-14.93106918 5.79060909 -14.36388168 5.34459347 -13.77950668 4.88506222 C-13.21231918 4.42357784 -12.64513168 3.96209347 -12.06075668 3.48662472 C-7.93889594 0.64832587 -5.04889957 0.00876186 0 0 Z " fill="#F3FAFE" transform="translate(76.27950668334961,-0.26006221771240234)"/>
<path d="M0 0 C0 168.96 0 337.92 0 512 C-160 512 -160 512 -168 507 C-173.83119859 500.91527104 -175.30239544 496.19546338 -175.25726891 487.91076946 C-175.26077498 487.09697764 -175.26428105 486.28318583 -175.26789337 485.44473365 C-175.27722828 482.70638958 -175.27227866 479.96825721 -175.26742554 477.22990417 C-175.27116074 475.2513845 -175.27576174 473.27286629 -175.28115618 471.29435045 C-175.29341762 465.84831982 -175.29312202 460.40235048 -175.29076743 454.9563092 C-175.29036006 449.08637723 -175.30139078 443.21646512 -175.31088257 437.34654236 C-175.32751068 425.84287072 -175.33299293 414.33921957 -175.33410732 402.83553692 C-175.33502613 393.48694175 -175.33914135 384.13835182 -175.34550858 374.78975868 C-175.34730364 372.0995397 -175.34908327 369.40932072 -175.35085833 366.71910173 C-175.35130043 366.05031963 -175.35174252 365.38153753 -175.35219802 364.69248931 C-175.36450785 345.8787118 -175.372399 327.06493661 -175.37151146 308.2511549 C-175.3714803 307.5417138 -175.37144914 306.83227271 -175.37141704 306.10133339 C-175.37125083 302.50552757 -175.37105274 298.90972175 -175.37084763 295.31391593 C-175.37080774 294.59976617 -175.37076785 293.88561641 -175.37072675 293.14982574 C-175.37064587 291.70564059 -175.37056228 290.26145544 -175.37047596 288.81727029 C-175.3692504 266.34714846 -175.38426398 243.87708698 -175.41162109 221.40698242 C-175.44233854 196.16637328 -175.45955379 170.92580379 -175.45769465 145.68517476 C-175.45754539 142.99401271 -175.45744797 140.30285067 -175.45738602 137.61168861 C-175.45736271 136.94904827 -175.4573394 136.28640792 -175.45731538 135.60368757 C-175.45725764 125.5981227 -175.46795865 115.59260616 -175.48405075 105.58705711 C-175.50223482 94.20765626 -175.50663269 82.82835432 -175.4930319 71.44894525 C-175.48648832 65.64141099 -175.4864353 59.83406665 -175.5037384 54.02655029 C-175.51941252 48.71118311 -175.5166634 43.39615735 -175.49917014 38.08079878 C-175.49608775 36.1568602 -175.49977898 34.23289649 -175.51089029 32.30898752 C-175.52499111 29.69449573 -175.51444139 27.08120486 -175.49777794 24.46675396 C-175.5077143 23.71911349 -175.51765066 22.97147303 -175.52788812 22.20117679 C-175.44291277 15.89853664 -173.40166306 10.72820496 -169.21875 5.9765625 C-168.6515625 5.53054687 -168.084375 5.08453125 -167.5 4.625 C-166.9328125 4.16351562 -166.365625 3.70203125 -165.78125 3.2265625 C-120.25904102 -28.11987087 -55.27088198 0 0 0 Z " fill="#8FDCC0" transform="translate(230,0)"/>
<path d="M0 0 C8.59746241 -0.11618335 17.19459329 -0.20486052 25.79264832 -0.25906086 C29.7857143 -0.28508307 33.77824063 -0.32034376 37.77099609 -0.37719727 C41.62898004 -0.43178389 45.48644708 -0.46147594 49.3447876 -0.47438622 C50.81195201 -0.48357871 52.27909019 -0.50152953 53.74603271 -0.52865028 C61.86693034 -0.67272927 68.72014547 -0.77982304 75 5 C79.43457191 9.35488876 81.82424388 13.43690187 82.25299966 19.68956119 C82.26460907 21.15607238 82.26525709 22.62269515 82.25726891 24.08923054 C82.26077498 24.90302236 82.26428105 25.71681417 82.26789337 26.55526635 C82.27722828 29.29361042 82.27227866 32.03174279 82.26742554 34.77009583 C82.27116074 36.7486155 82.27576174 38.72713371 82.28115618 40.70564955 C82.29341762 46.15168018 82.29312202 51.59764952 82.29076743 57.0436908 C82.29036006 62.91362277 82.30139078 68.78353488 82.31088257 74.65345764 C82.32751068 86.15712928 82.33299293 97.66078043 82.33410732 109.16446308 C82.33502613 118.51305825 82.33914135 127.86164818 82.34550858 137.21024132 C82.34730364 139.9004603 82.34908327 142.59067928 82.35085833 145.28089827 C82.35152148 146.28407142 82.35152148 146.28407142 82.35219802 147.30751069 C82.36450785 166.1212882 82.372399 184.93506339 82.37151146 203.7488451 C82.37146472 204.81300675 82.37146472 204.81300675 82.37141704 205.89866661 C82.37125083 209.49447243 82.37105274 213.09027825 82.37084763 216.68608407 C82.37080774 217.40023383 82.37076785 218.11438359 82.37072675 218.85017426 C82.37064587 220.29435941 82.37056228 221.73854456 82.37047596 223.18272971 C82.3692504 245.65285154 82.38426398 268.12291302 82.41162109 290.59301758 C82.44233854 315.83362672 82.45955379 341.07419621 82.45769465 366.31482524 C82.45754539 369.00598729 82.45744797 371.69714933 82.45738602 374.38831139 C82.45736271 375.05095173 82.4573394 375.71359208 82.45731538 376.39631243 C82.45725764 386.4018773 82.46795865 396.40739384 82.48405075 406.41294289 C82.50223482 417.79234374 82.50663269 429.17164568 82.4930319 440.55105475 C82.48648832 446.35858901 82.4864353 452.16593335 82.5037384 457.97344971 C82.51941252 463.28881689 82.5166634 468.60384265 82.49917014 473.91920122 C82.49608775 475.8431398 82.49977898 477.76710351 82.51089029 479.69101248 C82.52499111 482.30550427 82.51444139 484.91879514 82.49777794 487.53324604 C82.5077143 488.28088651 82.51765066 489.02852697 82.52788812 489.79882321 C82.44291277 496.10146336 80.40166306 501.27179504 76.21875 506.0234375 C75.6515625 506.46945312 75.084375 506.91546875 74.5 507.375 C73.9328125 507.83648437 73.365625 508.29796875 72.78125 508.7734375 C68.48105449 511.73453704 65.48773822 512.24630561 60.21191406 512.22705078 C59.20154335 512.22748886 59.20154335 512.22748886 58.17076111 512.22793579 C55.95224974 512.22654641 53.73407744 512.21100401 51.515625 512.1953125 C49.97434676 512.19158097 48.43306613 512.18873466 46.89178467 512.18673706 C42.84097714 512.17911161 38.7903137 512.15947253 34.73956299 512.1373291 C30.6037389 512.1168472 26.46789147 512.10773033 22.33203125 512.09765625 C14.22128815 512.07622555 6.11066201 512.04210281 -2 512 C-2 511.67 -2 511.34 -2 511 C-1.41992188 510.86464844 -0.83984375 510.72929687 -0.2421875 510.58984375 C6.06923571 508.85055716 9.50979767 506.54032262 13 501 C15.68697536 494.94935474 16.44391116 489.27686166 16.43237305 482.71655273 C16.44264684 481.82337121 16.45292063 480.93018969 16.46350574 480.00994205 C16.49312578 477.15108826 16.50289345 474.29257905 16.51171875 471.43359375 C16.52720405 469.65562766 16.54400432 467.87767253 16.56213379 466.09973145 C16.61982136 459.54577495 16.65215767 452.99161508 16.6875 446.4375 C16.790625 431.773125 16.89375 417.10875 17 402 C-23.59 402 -64.18 402 -106 402 C-106 401.67 -106 401.34 -106 401 C-105.22970553 400.99761165 -104.45941107 400.99522329 -103.66577435 400.99276257 C-84.93799912 400.93367179 -66.21035636 400.85815992 -47.48272228 400.76428509 C-38.42623748 400.71928579 -29.36979237 400.67988075 -20.31323242 400.65356445 C-12.42114974 400.63061776 -4.52919223 400.59725725 3.36279124 400.55129844 C7.54302031 400.52732111 11.72312508 400.50862199 15.9034214 400.50238609 C19.83591303 400.4963555 23.76808642 400.4764298 27.70046043 400.44572449 C29.14564177 400.43691158 30.59086464 400.43322838 32.03607178 400.43499184 C34.00563638 400.43663669 35.97518763 400.41822874 37.94465637 400.39872742 C39.04804257 400.39411845 40.15142878 400.38950949 41.28825092 400.38476086 C44.00113196 400.20969102 44.00113196 400.20969102 45.85502148 398.69382954 C47.78234547 395.84263343 47.35557912 393.31873842 47 390 C45.9218767 388.18908381 45.9218767 388.18908381 44 387 C41.19298733 386.53886076 41.19298733 386.53886076 37.94465637 386.60127258 C36.67840927 386.58873444 35.41216217 386.57619629 34.10754395 386.5632782 C32.7016599 386.56445231 31.29577607 386.56591148 29.88989258 386.56762695 C28.41162799 386.5586123 26.93337091 386.54828582 25.4551239 386.53674316 C21.4388811 386.50911186 17.42277988 386.49988039 13.40645432 386.49388909 C9.21033991 386.48452131 5.01433193 386.45831928 0.81828308 386.43388367 C-7.12893902 386.39017093 -15.07614053 386.36165334 -23.02344638 386.33856028 C-32.07056328 386.31153415 -41.11757336 386.2676211 -50.16461408 386.22227156 C-68.77635305 386.12935693 -87.38812026 386.05770747 -106 386 C-106 385.67 -106 385.34 -106 385 C-65.41 385 -24.82 385 17 385 C17 374.77 17 364.54 17 354 C29.75 353.75 29.75 353.75 33.75292969 353.70214844 C34.79868164 353.6715332 35.84443359 353.64091797 36.921875 353.609375 C37.99018555 353.58842773 39.05849609 353.56748047 40.15917969 353.54589844 C43.65265718 352.87458393 44.85474854 351.79225219 47 349 C47.66666667 346 47.66666667 346 47 343 C40.87571755 335.96984018 40.87571755 335.96984018 17 338 C17 311.93 17 285.86 17 259 C25.58 258.67 34.16 258.34 43 258 C44.32 257.01 45.64 256.02 47 255 C47.61344527 250.41808859 47.61344527 250.41808859 45.85111523 246.30617046 C43.18931726 244.42797194 41.1860478 244.61481223 37.94465637 244.60127258 C36.67840927 244.58873444 35.41216217 244.57619629 34.10754395 244.5632782 C32.7016599 244.56445231 31.29577607 244.56591148 29.88989258 244.56762695 C28.41162799 244.5586123 26.93337091 244.54828582 25.4551239 244.53674316 C21.4388811 244.50911186 17.42277988 244.49988039 13.40645432 244.49388909 C9.21033991 244.48452131 5.01433193 244.45831928 0.81828308 244.43388367 C-7.12893902 244.39017093 -15.07614053 244.36165334 -23.02344638 244.33856028 C-32.07056328 244.31153415 -41.11757336 244.2676211 -50.16461408 244.22227156 C-68.77635305 244.12935693 -87.38812026 244.05770747 -106 244 C-106 243.67 -106 243.34 -106 243 C-65.41 243 -24.82 243 17 243 C17 232.77 17 222.54 17 212 C29.75 211.75 29.75 211.75 33.75292969 211.70214844 C34.79868164 211.6715332 35.84443359 211.64091797 36.921875 211.609375 C37.99018555 211.58842773 39.05849609 211.56748047 40.15917969 211.54589844 C43.66470952 210.87226792 44.86680953 209.82196752 47 207 C47.66676878 203.45749949 47.66676878 203.45749949 47 200 C43.88351563 196.82407943 41.26204291 196.59465791 36.921875 196.48828125 C35.76171875 196.45283203 34.6015625 196.41738281 33.40625 196.38085938 C31.59640625 196.34702148 31.59640625 196.34702148 29.75 196.3125 C28.52796875 196.27833984 27.3059375 196.24417969 26.046875 196.20898438 C23.03134154 196.12652838 20.01609806 196.05736799 17 196 C16.87296767 189.55897132 16.78555188 183.11826698 16.7253418 176.67626953 C16.70023566 174.48604256 16.66614363 172.29589906 16.62280273 170.10595703 C16.56198093 166.95324078 16.53375077 163.80163447 16.51171875 160.6484375 C16.48591232 159.67321136 16.4601059 158.69798523 16.43351746 157.69320679 C16.43132282 152.34396665 16.70443251 149.71346255 20.61787415 145.77566528 C23.90045638 141.55841742 25.02973906 135.82773201 26.609375 130.796875 C27.02456671 129.50946318 27.44103091 128.22246111 27.85870361 126.93585205 C28.94882141 123.5670261 30.02263054 120.19322848 31.0927124 116.81799316 C32.39949868 112.70651274 33.72530964 108.60113663 35.04843521 104.49489212 C36.07646367 101.30331986 37.10060342 98.11066648 38.11810303 94.91571045 C38.66437347 93.20318085 38.66437347 93.20318085 39.22167969 91.45605469 C39.54191101 90.44822937 39.86214233 89.44040405 40.19207764 88.40203857 C41 86 41 86 42 84 C42.349104 79.90814871 42.349104 79.90814871 41 76.125 C37.88560295 74.37315166 34.46206597 74.11354359 31 75 C27.98076683 78.25956513 26.80587834 82.01107673 25.51953125 86.171875 C25.30181564 86.8542926 25.08410004 87.53671021 24.85978699 88.23980713 C24.17001706 90.40762443 23.49112998 92.57867273 22.8125 94.75 C22.34511666 96.22548729 21.8770253 97.7007505 21.40820312 99.17578125 C20.26392093 102.78131112 19.12938276 106.38977673 18 110 C17.67 110 17.34 110 17 110 C16.99413376 108.89245865 16.98826752 107.7849173 16.98222351 106.64381409 C16.92489863 96.1832977 16.85208605 85.72298726 16.76428509 75.26268101 C16.71964355 69.88550389 16.68037369 64.50840145 16.65356445 59.13110352 C16.62746953 53.93733846 16.58702329 48.74386174 16.53681374 43.5502758 C16.52018685 41.57328833 16.50864664 39.59625104 16.50238609 37.61920357 C16.49269947 34.8403139 16.46458607 32.06215501 16.43237305 29.28344727 C16.43380814 28.47423828 16.43524323 27.6650293 16.4367218 26.83129883 C16.30384149 18.67452895 14.28820459 11.4980306 8.6953125 5.44140625 C6.0121343 3.16008653 3.32133159 2.12925274 0 1 C0 0.67 0 0.34 0 0 Z " fill="#E3F5FE" transform="translate(375,0)"/>
<path d="M0 0 C6.34418852 5.40701203 11.18020004 11.08696258 14.9296875 18.5859375 C15.5071875 19.6378125 16.0846875 20.6896875 16.6796875 21.7734375 C22.08756953 33.94117207 21.70701753 49.36650995 17.1953125 61.7578125 C13.82313645 69.29316886 9.4799656 75.50706148 3.9296875 81.5859375 C1.21757187 80.22987968 1.00858665 78.78061913 -0.1953125 76.0234375 C-5.02601265 66.17948168 -12.39260239 61.28247329 -22.0703125 56.5859375 C-21.64878906 55.95945312 -21.22726563 55.33296875 -20.79296875 54.6875 C-20.24511719 53.87023437 -19.69726562 53.05296875 -19.1328125 52.2109375 C-18.31490234 50.99277344 -18.31490234 50.99277344 -17.48046875 49.75 C-14.60789524 45.3416739 -14.49913798 41.76789767 -15.0703125 36.5859375 C-16.37832495 31.90375282 -18.61730278 28.51410127 -22.5078125 25.5859375 C-28.01118371 22.53998158 -33.97547006 22.72773283 -40.0703125 23.5859375 C-44.57697018 25.72067008 -47.2444657 28.50415879 -50.0703125 32.5859375 C-51.95873305 38.25119915 -52.23194842 44.03237048 -49.73046875 49.53125 C-48.26125627 51.95804333 -46.74087028 54.29389245 -45.0703125 56.5859375 C-45.71097656 56.94945313 -46.35164063 57.31296875 -47.01171875 57.6875 C-58.18179644 64.17979553 -63.39971136 69.9689613 -69.0703125 81.5859375 C-78.45396169 74.69182789 -83.53752072 64.8276364 -86.0703125 53.5859375 C-86.25207031 52.80089844 -86.43382813 52.01585937 -86.62109375 51.20703125 C-89.41779025 34.88891517 -84.0104154 20.79197117 -74.9453125 7.4609375 C-55.46203058 -14.08307616 -23.15903476 -18.20901206 0 0 Z " fill="#FDDF7D" transform="translate(176.0703125,69.4140625)"/>
<path d="M0 0 C0.91884979 -0.0049649 1.83769958 -0.00992981 2.78439331 -0.01504517 C5.83372742 -0.02968779 8.88300951 -0.03647254 11.93237305 -0.04199219 C14.04745994 -0.04774223 16.16254681 -0.05349998 18.27763367 -0.05926514 C22.71715539 -0.06978132 27.15665897 -0.07561984 31.59619141 -0.07910156 C37.28595695 -0.08458538 42.97548307 -0.10860852 48.66517353 -0.13707352 C53.03605347 -0.15569475 57.40687572 -0.16090524 61.77779198 -0.16243744 C63.87536108 -0.16546602 65.97292912 -0.17350143 68.07045937 -0.18662262 C71.00549153 -0.203671 73.93993845 -0.20180565 76.875 -0.1953125 C77.74220169 -0.20452728 78.60940338 -0.21374207 79.50288391 -0.22323608 C84.21050012 -0.19060004 87.29976748 0.11523913 91.1315918 3.16113281 C94.5380145 7.96360928 93.50044442 14.41128096 93.5065918 20.03613281 C93.53108398 21.20789063 93.55557617 22.37964844 93.58081055 23.58691406 C93.61754638 34.37500283 93.61754638 34.37500283 89.1315918 39.16113281 C85.72432791 40.86476476 81.83015608 40.34535498 78.07958984 40.36987305 C76.67205444 40.38454872 76.67205444 40.38454872 75.23608398 40.39952087 C72.12184069 40.4295063 69.0076404 40.45086794 65.89331055 40.46972656 C64.30018508 40.4795843 64.30018508 40.4795843 62.67487526 40.48964119 C57.05409705 40.52224718 51.43333793 40.5466961 45.8125 40.56616211 C41.15531932 40.58398731 36.49874274 40.61882573 31.84179688 40.66870117 C26.22436487 40.72879836 20.60749383 40.75962352 14.98975563 40.76933479 C12.8474761 40.77790789 10.70521229 40.79677134 8.56311607 40.82607841 C5.56533475 40.86488702 2.56974917 40.86604134 -0.42822266 40.8581543 C-1.31412582 40.87815491 -2.20002899 40.89815552 -3.11277771 40.91876221 C-8.96361313 40.84961316 -8.96361313 40.84961316 -11.53874683 38.89013195 C-14.74056586 35.23809926 -15.50043751 32.40599191 -15.49731445 27.62597656 C-15.49924805 26.40458984 -15.50118164 25.18320312 -15.50317383 23.92480469 C-15.46740234 22.03084961 -15.46740234 22.03084961 -15.4309082 20.09863281 C-15.44186523 18.83212891 -15.45282227 17.565625 -15.46411133 16.26074219 C-15.38146936 5.8313259 -15.38146936 5.8313259 -10.8684082 1.16113281 C-7.50468832 -0.52072713 -3.70005931 0.00473636 0 0 Z " fill="#FDDF7D" transform="translate(103.868408203125,401.8388671875)"/>
<path d="M0 0 C0.90748993 -0.00817749 1.81497986 -0.01635498 2.74996948 -0.02478027 C5.76201717 -0.04965223 8.77401765 -0.06615545 11.78613281 -0.08056641 C12.81387062 -0.08589008 13.84160843 -0.09121376 14.90048981 -0.09669876 C20.34087885 -0.12343895 25.78124489 -0.14281055 31.22167969 -0.15722656 C36.84200918 -0.17387097 42.4617519 -0.21864485 48.08185959 -0.26959801 C52.40216751 -0.30325168 56.7223359 -0.314802 61.04276276 -0.32045364 C63.11441784 -0.32717195 65.18606355 -0.34240897 67.25759125 -0.36634445 C70.15919296 -0.39795631 73.05920886 -0.39803854 75.9609375 -0.390625 C76.81519318 -0.40703033 77.66944885 -0.42343567 78.54959106 -0.44033813 C82.75567997 -0.39639892 85.42385771 -0.0867173 88.75665283 2.6043396 C93.72334782 7.78295098 92.49859697 13.64053408 92.55175781 20.50537109 C92.59526367 22.3606543 92.59526367 22.3606543 92.63964844 24.25341797 C92.64802734 25.44644531 92.65640625 26.63947266 92.66503906 27.86865234 C92.67962158 28.96089111 92.6942041 30.05312988 92.70922852 31.1784668 C92.13110485 34.88656701 90.82293799 36.52442095 88.23925781 39.19287109 C84.82792563 40.89853719 80.92574238 40.35857526 77.17138672 40.36987305 C75.76144188 40.37972984 75.76144188 40.37972984 74.32301331 40.38978577 C71.20394823 40.40954126 68.08493131 40.42118533 64.96582031 40.43115234 C63.90248852 40.43522787 62.83915672 40.4393034 61.74360275 40.44350243 C56.11748192 40.46437108 50.49138556 40.47867032 44.86523438 40.48803711 C39.04526676 40.49911347 33.22568023 40.53352543 27.40584755 40.57320881 C22.93807244 40.59931204 18.47038907 40.60772326 14.0025444 40.61131859 C11.85668738 40.61619951 9.71083485 40.62785602 7.56505203 40.64635658 C4.56503027 40.67061782 1.56600711 40.66980694 -1.43408203 40.6628418 C-2.32358047 40.67565186 -3.21307892 40.68846191 -4.12953186 40.70166016 C-10.15499591 40.65056016 -10.15499591 40.65056016 -13.28115845 38.28849792 C-17.06729785 32.92595229 -16.06609632 26.74663643 -16.13574219 20.38037109 C-16.19181641 18.45354492 -16.19181641 18.45354492 -16.24902344 16.48779297 C-16.260625 15.24964844 -16.27222656 14.01150391 -16.28417969 12.73583984 C-16.30399902 11.60170654 -16.32381836 10.46757324 -16.34423828 9.29907227 C-15.58236289 5.24328123 -13.88553698 3.78882276 -10.76074219 1.19287109 C-7.42340568 -0.47579716 -3.67112741 0.01813506 0 0 Z " fill="#FDDF7D" transform="translate(104.7607421875,237.80712890625)"/>
<path d="M0 0 C0.91709747 -0.00817749 1.83419495 -0.01635498 2.77908325 -0.02478027 C5.82903379 -0.04969159 8.87893753 -0.06616683 11.92895508 -0.08056641 C12.96864252 -0.08589008 14.00832996 -0.09121376 15.07952309 -0.09669876 C20.58474618 -0.12345804 26.08994641 -0.14282214 31.59521484 -0.15722656 C37.28395146 -0.17386148 42.97210729 -0.21862196 48.6606245 -0.26959801 C53.0315467 -0.30325323 57.40233098 -0.3148023 61.77337074 -0.32045364 C63.87014505 -0.32717322 65.96691007 -0.34241352 68.06355858 -0.36634445 C71.00118611 -0.39795495 73.93724712 -0.39803848 76.875 -0.390625 C77.74017746 -0.40703033 78.60535492 -0.42343567 79.49674988 -0.44033813 C83.72750816 -0.39668175 86.43131996 -0.10342219 89.78511047 2.6043396 C94.64722108 7.6876827 93.51903498 13.20542438 93.57348633 19.94287109 C93.61699219 21.71404297 93.61699219 21.71404297 93.66137695 23.52099609 C93.74128939 34.43826377 93.74128939 34.43826377 89.26098633 39.19287109 C85.85372244 40.89650304 81.95955061 40.37709326 78.20898438 40.40161133 C76.80144897 40.416287 76.80144897 40.416287 75.36547852 40.43125916 C72.25123523 40.46124458 69.13703493 40.48260622 66.02270508 40.50146484 C64.42957961 40.51132258 64.42957961 40.51132258 62.80426979 40.52137947 C57.18349158 40.55398546 51.56273246 40.57843438 45.94189453 40.59790039 C41.28471385 40.6157256 36.62813727 40.65056401 31.97119141 40.70043945 C26.3537594 40.76053664 20.73688836 40.7913618 15.11915016 40.80107307 C12.97687063 40.80964618 10.83460682 40.82850962 8.6925106 40.8578167 C5.69472928 40.8966253 2.69914371 40.89777962 -0.29882812 40.88989258 C-1.18473129 40.90989319 -2.07063446 40.9298938 -2.98338318 40.95050049 C-8.83452557 40.88134782 -8.83452557 40.88134782 -11.4087944 38.92187023 C-14.60404344 35.27618521 -15.37882787 32.42943379 -15.40307617 27.65771484 C-15.40952148 26.43632812 -15.4159668 25.21494141 -15.42260742 23.95654297 C-15.40327148 22.69390625 -15.38393555 21.43126953 -15.36401367 20.13037109 C-15.38334961 18.86386719 -15.40268555 17.59736328 -15.42260742 16.29248047 C-15.36824879 6.00239067 -15.36824879 6.00239067 -12.26245117 2.88427734 C-11.4297168 2.32611328 -10.59698242 1.76794922 -9.73901367 1.19287109 C-7.62824735 -0.91789523 -2.91836921 0.01420327 0 0 Z " fill="#FDDF7D" transform="translate(103.739013671875,319.80712890625)"/>
<path d="M0 0 C5.7287763 2.0799313 9.09825646 5.66079189 12 11 C13.5944627 15.7833881 14.1206256 20.57894693 11.953125 25.26171875 C10.70814819 27.24269656 9.39931601 29.12576461 8 31 C7.34 31.99 6.68 32.98 6 34 C6.92619141 34.38478516 6.92619141 34.38478516 7.87109375 34.77734375 C17.96113518 39.33859536 24.49035166 45.89190047 29.3203125 55.8359375 C30 58 30 58 29 61 C15.35910582 71.84727932 -0.09367146 74.49192775 -17 73 C-25.68662407 71.44994835 -34.64994483 67.18404066 -41 61 C-41.91015625 59.11328125 -41.91015625 59.11328125 -42 57 C-38.52398142 47.26714798 -31.55085698 40.12926275 -22.4375 35.5 C-21.303125 35.005 -20.16875 34.51 -19 34 C-19.433125 33.40574219 -19.86625 32.81148437 -20.3125 32.19921875 C-24.63071638 25.77187354 -26.37764769 20.73145386 -25 13 C-21.01450538 1.24279086 -11.16450386 -1.14909513 0 0 Z " fill="#417192" transform="translate(149,92)"/>
<path d="M0 0 C1.26177063 -0.01265396 2.52354126 -0.02530792 3.82354736 -0.03834534 C5.21423751 -0.02703001 6.60492357 -0.01520257 7.99560547 -0.00291443 C9.46605289 -0.00805474 10.93649414 -0.01533688 12.40692139 -0.02459717 C16.39466942 -0.04310558 20.38174853 -0.03017665 24.36946869 -0.01050687 C28.54449738 0.00588583 32.71948392 -0.00293412 36.89453125 -0.00802612 C43.90554482 -0.0125464 50.91629153 0.00331854 57.92724609 0.03126526 C66.03045108 0.063317 74.1331748 0.0633013 82.23641396 0.04605049 C90.03460341 0.03018126 97.83261659 0.03692147 105.63079834 0.0539875 C108.94810687 0.06085631 112.26527403 0.05982734 115.58258057 0.05244255 C119.48976879 0.04477574 123.39640998 0.05691812 127.30350494 0.08429146 C128.73656846 0.09117232 130.16968311 0.09127639 131.60274506 0.08407593 C133.56036395 0.07537394 135.51804724 0.09378439 137.47558594 0.11352539 C139.11815872 0.11773577 139.11815872 0.11773577 140.79391479 0.12203121 C144.46425745 0.7530943 146.14391948 1.99204076 148.73779297 4.62818909 C149.36279297 8.06568909 149.36279297 8.06568909 148.73779297 11.62818909 C146.25031887 14.73565616 144.73665071 16.41469962 140.79391479 17.25739479 C139.69886627 17.25927992 138.60381775 17.26116505 137.47558594 17.2631073 C136.21381531 17.27720642 134.95204468 17.29130554 133.65203857 17.30583191 C132.26134893 17.29611124 130.87066285 17.28587045 129.47998047 17.27516174 C128.00953082 17.28193991 126.53908966 17.29084417 125.06866455 17.30171204 C121.0809367 17.32448892 117.09385628 17.31567613 113.10611725 17.29981661 C108.93107877 17.28714908 104.75609536 17.29890008 100.58105469 17.30674744 C93.57004859 17.31584155 86.55930593 17.30386248 79.54833984 17.28004456 C71.44506914 17.25283355 63.34242745 17.2616479 55.23917198 17.28917658 C48.2793356 17.31187357 41.31968848 17.31506491 34.35982704 17.30198324 C30.20411495 17.2941919 26.04869842 17.29313819 21.89300537 17.30966568 C17.98573138 17.32412 14.07926755 17.3140723 10.17208099 17.2851944 C8.73901464 17.27858855 7.30587998 17.28047285 5.87284088 17.29150772 C3.91525219 17.30519091 1.95751431 17.28498071 0 17.2631073 C-1.64257278 17.26027961 -1.64257278 17.26027961 -3.31832886 17.25739479 C-7.24749781 16.41759933 -8.76553475 14.7062778 -11.26220703 11.62818909 C-11.88720703 8.62818909 -11.88720703 8.62818909 -11.26220703 5.62818909 C-7.7267442 1.26870752 -5.59158752 0.00299384 0 0 Z " fill="#467496" transform="translate(274.26220703125,195.37181091308594)"/>
<path d="M0 0 C1.26177063 -0.01409912 2.52354126 -0.02819824 3.82354736 -0.04272461 C5.214237 -0.03300394 6.60492309 -0.02276315 7.99560547 -0.01205444 C9.46605512 -0.01883261 10.93649628 -0.02773687 12.40692139 -0.03860474 C16.39464923 -0.06138162 20.38172965 -0.05256883 24.36946869 -0.03670931 C28.54450717 -0.02404178 32.71949057 -0.03579278 36.89453125 -0.04364014 C43.90553734 -0.05273425 50.91628 -0.04075518 57.92724609 -0.01693726 C66.0305168 0.01027375 74.13315849 0.0014594 82.23641396 -0.02606928 C89.19625034 -0.04876628 96.15589746 -0.05195761 103.1157589 -0.03887594 C107.27147099 -0.0310846 111.42688751 -0.03003089 115.58258057 -0.04655838 C119.48985456 -0.0610127 123.39631839 -0.050965 127.30350494 -0.0220871 C128.7365713 -0.01548125 130.16970596 -0.01736555 131.60274506 -0.02840042 C133.56033375 -0.04208361 135.51807162 -0.02187341 137.47558594 0 C139.11815872 0.00282769 139.11815872 0.00282769 140.79391479 0.00571251 C144.72308374 0.84550797 146.24112069 2.5568295 148.73779297 5.63491821 C149.36279297 8.63491821 149.36279297 8.63491821 148.73779297 11.63491821 C146.24112069 14.71300693 144.72308374 16.42432846 140.79391479 17.26412392 C139.69886627 17.26600904 138.60381775 17.26789417 137.47558594 17.26983643 C136.21381531 17.28393555 134.95204468 17.29803467 133.65203857 17.31256104 C132.26134893 17.30284037 130.87066285 17.29259958 129.47998047 17.28189087 C128.00953082 17.28866904 126.53908966 17.29757329 125.06866455 17.30844116 C121.0809367 17.33121805 117.09385628 17.32240526 113.10611725 17.30654573 C108.93107877 17.29387821 104.75609536 17.30562921 100.58105469 17.31347656 C93.57004859 17.32257067 86.55930593 17.3105916 79.54833984 17.28677368 C71.44506914 17.25956268 63.34242745 17.26837702 55.23917198 17.29590571 C48.2793356 17.3186027 41.31968848 17.32179403 34.35982704 17.30871236 C30.20411495 17.30092102 26.04869842 17.29986732 21.89300537 17.31639481 C17.98573138 17.33084912 14.07926755 17.32080142 10.17208099 17.29192352 C8.73901464 17.28531768 7.30587998 17.28720198 5.87284088 17.29823685 C3.91525219 17.31192004 1.95751431 17.29170984 0 17.26983643 C-1.64257278 17.26700873 -1.64257278 17.26700873 -3.31832886 17.26412392 C-7.24749781 16.42432846 -8.76553475 14.71300693 -11.26220703 11.63491821 C-11.88720703 8.63491821 -11.88720703 8.63491821 -11.26220703 5.63491821 C-7.72735409 1.27688089 -5.58997087 0.00962315 0 0 Z " fill="#467496" transform="translate(274.26220703125,337.3650817871094)"/>
<path d="M0 0 C1.27866943 -0.0112793 2.55733887 -0.02255859 3.87475586 -0.03417969 C5.28955305 -0.02640266 6.704348 -0.01821 8.11914062 -0.00964355 C9.61076542 -0.01506435 11.10238485 -0.02218677 12.59399414 -0.03088379 C16.6436169 -0.04912547 20.69283223 -0.04204633 24.74246216 -0.02936745 C28.97936099 -0.01924407 33.21622481 -0.02863128 37.453125 -0.03491211 C44.56842312 -0.04219046 51.68355521 -0.03259594 58.79882812 -0.0135498 C67.02641862 0.00821938 75.25361265 0.00116814 83.48119354 -0.02085543 C90.54373317 -0.03900413 97.6061534 -0.04157037 104.6687088 -0.03110075 C108.88752237 -0.02486287 113.10614956 -0.02403817 117.32495117 -0.0372467 C121.29119435 -0.04879699 125.25692611 -0.04079505 129.22311401 -0.01766968 C130.6791804 -0.01237811 132.1352898 -0.01390409 133.59133911 -0.02272034 C135.57780425 -0.03363977 137.56436338 -0.01752243 139.55078125 0 C141.21880798 0.00226215 141.21880798 0.00226215 142.92053223 0.00457001 C146.45660835 0.62804591 147.6398071 1.66388634 149.77539062 4.50793457 C150.27539062 8.00793457 150.27539062 8.00793457 149.77539062 11.50793457 C147.63999175 14.35119002 146.4551397 15.38741709 142.92053223 16.01409245 C141.25250549 16.01830283 141.25250549 16.01830283 139.55078125 16.02259827 C137.6327771 16.04168495 137.6327771 16.04168495 135.67602539 16.06115723 C134.26122862 16.05497496 132.84643365 16.04836894 131.43164062 16.04138184 C129.9400141 16.04843995 128.44839474 16.05718452 126.95678711 16.06748962 C122.90718056 16.0900045 118.85796443 16.08703934 114.80831909 16.07816815 C111.42842195 16.07306102 108.04859836 16.08034848 104.6687088 16.08764023 C96.69639161 16.10464552 88.72426581 16.10106667 80.75195312 16.08435059 C72.52430193 16.06742236 64.297181 16.08327173 56.06958771 16.11557347 C49.00704265 16.14225182 41.94466284 16.14955034 34.88207245 16.14105839 C30.66320527 16.13612473 26.44465731 16.13836831 22.22583008 16.1588459 C18.25950729 16.17717615 14.29394872 16.17127787 10.32766724 16.1466465 C8.8715961 16.14163031 7.415467 16.14514945 5.95944214 16.15779495 C3.97301183 16.17368311 1.98639658 16.15578142 0 16.13612366 C-1.66802673 16.13524419 -1.66802673 16.13524419 -3.36975098 16.13434696 C-6.22460938 15.50793457 -6.22460938 15.50793457 -8.58239746 13.160079 C-10.59053206 9.91697564 -10.86287651 8.25775399 -10.22460938 4.50793457 C-7.15062978 0.47999135 -4.96683477 0.00673595 0 0 Z " fill="#407093" transform="translate(273.224609375,385.4920654296875)"/>
<path d="M0 0 C1.27866943 -0.0112793 2.55733887 -0.02255859 3.87475586 -0.03417969 C5.28955305 -0.02640266 6.704348 -0.01821 8.11914062 -0.00964355 C9.61076542 -0.01506435 11.10238485 -0.02218677 12.59399414 -0.03088379 C16.6436169 -0.04912547 20.69283223 -0.04204633 24.74246216 -0.02936745 C28.97936099 -0.01924407 33.21622481 -0.02863128 37.453125 -0.03491211 C44.56842312 -0.04219046 51.68355521 -0.03259594 58.79882812 -0.0135498 C67.02641862 0.00821938 75.25361265 0.00116814 83.48119354 -0.02085543 C90.54373317 -0.03900413 97.6061534 -0.04157037 104.6687088 -0.03110075 C108.88752237 -0.02486287 113.10614956 -0.02403817 117.32495117 -0.0372467 C121.29119435 -0.04879699 125.25692611 -0.04079505 129.22311401 -0.01766968 C130.6791804 -0.01237811 132.1352898 -0.01390409 133.59133911 -0.02272034 C135.57780425 -0.03363977 137.56436338 -0.01752243 139.55078125 0 C141.21880798 0.00226215 141.21880798 0.00226215 142.92053223 0.00457001 C146.45702994 0.62812024 147.63657156 1.66633659 149.77539062 4.50793457 C150.33789062 8.00793457 150.33789062 8.00793457 149.77539062 11.50793457 C147.18477789 14.15028686 145.50335355 15.38277173 141.83151245 16.01409245 C140.73646393 16.01689937 139.64141541 16.01970629 138.51318359 16.02259827 C136.62052765 16.04168495 136.62052765 16.04168495 134.68963623 16.06115723 C133.29894831 16.05497536 131.90826223 16.04836937 130.51757812 16.04138184 C129.04713068 16.0484422 127.57669051 16.05718772 126.10626221 16.06748962 C122.1186272 16.08997917 118.13138916 16.08704527 114.1437149 16.07816815 C110.81356807 16.07305627 107.48349571 16.08035234 104.15335655 16.08764023 C96.29748392 16.10463743 88.44180554 16.10107477 80.5859375 16.08435059 C72.48268247 16.06742281 64.37996588 16.08327291 56.27676964 16.11557347 C49.31694745 16.14226481 42.35729293 16.14954683 35.3974247 16.14105839 C31.24169589 16.13612858 27.08629118 16.1383476 22.93060303 16.1588459 C19.02335597 16.17719657 15.116884 16.17125286 11.20967865 16.1466465 C9.77660255 16.14163682 8.34346745 16.14513263 6.91043854 16.15779495 C4.95287638 16.17372262 2.99512617 16.15575519 1.03759766 16.13612366 C-0.60497513 16.13524419 -0.60497513 16.13524419 -2.2807312 16.13434696 C-6.21321315 15.29757476 -7.73135634 13.592441 -10.22460938 10.50793457 C-10.78710938 7.44543457 -10.78710938 7.44543457 -10.22460938 4.50793457 C-7.14547842 0.4828157 -4.96980074 0.00673997 0 0 Z " fill="#407093" transform="translate(273.224609375,243.4920654296875)"/>
<path d="M0 0 C1.59375 1.28125 1.59375 1.28125 3.59375 4.28125 C3.37581897 10.38331897 3.37581897 10.38331897 0.90625 13.21875 C-2.21251222 14.6516948 -3.98380518 14.74196373 -7.40625 14.28125 C-8.6530843 13.64824182 -9.88135127 12.97794538 -11.09375 12.28125 C-17.20057486 9.00014525 -24.10759725 9.33949831 -30.65625 11.28125 C-36.36160804 13.75826758 -40.12163616 18.71202232 -42.84375 24.15625 C-44.47318496 33.20866645 -43.51027246 39.75824584 -38.21875 47.46875 C-33.52730558 52.16019442 -29.09534436 54.4729968 -22.40625 54.78125 C-16.04818853 54.50778499 -11.5288995 52.05835191 -6.71875 48.03125 C-4.40625 46.28125 -4.40625 46.28125 -1.90625 45.71875 C1.83371182 46.56024141 3.30228575 48.26961127 5.59375 51.28125 C6.35285122 54.45567329 6.21382859 56.19309652 4.58984375 59.04296875 C0.04897538 65.00690128 -7.02721699 68.96735743 -14.40625 70.28125 C-26.88743745 71.12159485 -36.55155403 70.02425861 -46.59765625 61.8984375 C-54.61603535 54.72865576 -59.60332292 45.61326381 -60.64453125 34.80859375 C-60.95602407 23.93913377 -57.8993366 14.27502672 -50.40625 6.28125 C-36.20805419 -8.06423 -17.24582068 -11.0260165 0 0 Z " fill="#EABD6E" transform="translate(333.40625,79.71875)"/>
<path d="M0 0 C5.00645383 4.02723561 6.58280565 8.3061096 8.515625 14.203125 C8.81692322 15.08152039 9.11822144 15.95991577 9.4286499 16.8649292 C10.38295044 19.65546854 11.31709376 22.45224403 12.25 25.25 C13.20123472 28.06050984 14.15653057 30.86959308 15.11419678 33.67791748 C15.70758349 35.42248004 16.29645278 37.16858672 16.88043213 38.9163208 C17.91406534 42.75319851 17.91406534 42.75319851 20 46 C20.55929199 44.221698 20.55929199 44.221698 21.12988281 42.4074707 C22.52039548 37.99637753 23.9252769 33.58997099 25.33447266 29.18481445 C25.94157485 27.2801325 26.54480963 25.37421322 27.14404297 23.46704102 C28.00767527 20.72074759 28.88526741 17.9792522 29.765625 15.23828125 C30.02933899 14.38913651 30.29305298 13.53999176 30.5647583 12.66511536 C32.05840207 8.06611709 33.5399491 4.53034142 37 1 C39.75110338 0.13490694 42.19745672 0.38550793 45 1 C47.5 2.625 47.5 2.625 49 5 C49.56367972 10.42713894 47.97064928 14.78747124 46.18359375 19.81640625 C45.74550636 21.08511566 45.74550636 21.08511566 45.29856873 22.37945557 C44.35360257 25.1102578 43.39594441 27.8364023 42.4375 30.5625 C41.46465487 33.35600928 40.49436475 36.15039695 39.52429199 38.94487 C38.88812393 40.77673121 38.25084384 42.60820665 37.61242676 44.43928528 C35.90199391 49.35429526 34.23693158 54.27734714 32.65234375 59.234375 C32.18453491 60.69508423 32.18453491 60.69508423 31.70727539 62.18530273 C31.17214508 63.87451871 30.64584038 65.56656969 30.13061523 67.26196289 C28.80139176 71.42464079 27.57054854 74.36764852 24 77 C18.58173077 77.77403846 18.58173077 77.77403846 16 77 C12.12483258 73.61698369 10.1720628 70.78748013 8.50463867 65.94384766 C7.87455147 64.1464061 7.87455147 64.1464061 7.23173523 62.31265259 C6.7931822 61.01333532 6.35527572 59.71379968 5.91796875 58.4140625 C5.4552596 57.07000874 4.99156405 55.7262942 4.52693176 54.38290405 C3.55883689 51.57346314 2.60098364 48.76080438 1.65063477 45.9453125 C0.43623788 42.34941619 -0.80059141 38.76174251 -2.04488087 35.17609596 C-3.00443267 32.40436811 -3.9532841 29.62907036 -4.89887047 26.85255051 C-5.3508298 25.52875495 -5.80573296 24.20596045 -6.26371193 22.88423538 C-6.9036083 21.03142991 -7.52790709 19.17326014 -8.15161133 17.31494141 C-8.50959305 16.26190826 -8.86757477 15.20887512 -9.23640442 14.12393188 C-10.09719949 10.60234895 -10.27969821 7.61223704 -10 4 C-6.99746894 0.65432253 -4.50513222 -1.01365475 0 0 Z " fill="#EABC6D" transform="translate(369,73)"/>
<path d="M0 0 C0.73192566 -0.00817749 1.46385132 -0.01635498 2.21795654 -0.02478027 C4.64562155 -0.04963724 7.073228 -0.06615234 9.50097656 -0.08056641 C10.33012825 -0.08589008 11.15927994 -0.09121376 12.01355743 -0.09669876 C16.40356014 -0.12343364 20.79353439 -0.14280608 25.18359375 -0.15722656 C29.71437374 -0.17386147 34.24442449 -0.2186279 38.77492905 -0.26959801 C42.26142189 -0.30328642 45.74774212 -0.31480577 49.23438263 -0.32045364 C50.90413221 -0.32716342 52.57387054 -0.34237853 54.24346161 -0.36634445 C56.58478304 -0.39803077 58.9241447 -0.39802849 61.265625 -0.390625 C61.95156738 -0.40703033 62.63750977 -0.42343567 63.34423828 -0.44033813 C67.08567491 -0.39207284 69.44086785 0.26675551 72.33306885 2.53793335 C74.89160156 5.19287109 74.89160156 5.19287109 75.45410156 8.25537109 C74.84447022 11.43900146 74.17068977 12.91378288 71.89160156 15.19287109 C68.38619025 16.36134153 65.21051098 16.36358197 61.56201172 16.38574219 C60.81858017 16.39391968 60.07514862 16.40209717 59.30918884 16.41052246 C56.84968872 16.43532957 54.39024606 16.45187865 51.93066406 16.46630859 C51.09014874 16.47163227 50.24963341 16.47695595 49.38364792 16.48244095 C44.93643862 16.50914967 40.48925721 16.52853352 36.04199219 16.54296875 C32.361727 16.55631986 28.68201471 16.58419657 25.00195312 16.625 C20.55695074 16.67428327 16.11245068 16.699084 11.66718674 16.70619583 C9.97428274 16.71291211 8.28139012 16.72814409 6.58864212 16.75208664 C4.2184931 16.78370318 1.85028494 16.78378153 -0.52001953 16.77636719 C-1.56599556 16.80097519 -1.56599556 16.80097519 -2.63310242 16.82608032 C-6.45386929 16.77721559 -8.02215607 16.26168213 -11.04751587 13.84780884 C-13.10839844 11.19287109 -13.10839844 11.19287109 -13.67089844 8.13037109 C-12.99018328 4.57552529 -11.90767384 3.41582509 -9.10839844 1.19287109 C-6.17736754 -0.27264436 -3.21460167 0.01973093 0 0 Z " fill="#467496" transform="translate(276.1083984375,433.80712890625)"/>
<path d="M0 0 C1.12999672 -0.01270432 1.12999672 -0.01270432 2.28282166 -0.02566528 C4.76953072 -0.04903708 7.25562112 -0.05005745 9.74243164 -0.04882812 C11.47351834 -0.05592954 13.20460269 -0.06362851 14.9356842 -0.07189941 C18.56298364 -0.08534456 22.19006543 -0.08691284 25.81738281 -0.08105469 C30.46262699 -0.07515803 35.1068262 -0.10574784 39.75186825 -0.14617157 C43.32672234 -0.17203818 46.90132446 -0.17492697 50.47625923 -0.17127991 C52.18867177 -0.1729721 53.90109582 -0.18262421 55.61341667 -0.20042419 C58.00991354 -0.22259524 60.40429079 -0.212924 62.80078125 -0.1953125 C63.5058783 -0.20857574 64.21097534 -0.22183899 64.93743896 -0.23550415 C68.75445896 -0.17042287 70.39212017 0.36329474 73.44410706 2.73181152 C75.46508789 5.41992188 75.46508789 5.41992188 75.46508789 9.04492188 C74.11602802 13.59799895 74.11602802 13.59799895 71.46508789 15.41992188 C68.84691905 15.72625328 66.46424108 15.85034758 63.84423828 15.83984375 C63.06993973 15.84831329 62.29564117 15.85678284 61.49787903 15.86550903 C58.93600074 15.88892558 56.3747214 15.88990011 53.81274414 15.88867188 C52.03299213 15.89577072 50.25324242 15.90346931 48.47349548 15.91174316 C44.74186849 15.9251987 41.01045308 15.92675199 37.27880859 15.92089844 C32.49556576 15.91500161 27.71333768 15.94558762 22.93029118 15.98601532 C19.25425237 16.01185918 15.57845897 16.01477277 11.90234184 16.01112366 C10.138864 16.01281806 8.37537521 16.02249136 6.61198616 16.04026794 C4.1457432 16.06239319 1.68156762 16.05279062 -0.78466797 16.03515625 C-1.51363281 16.04841949 -2.24259766 16.06168274 -2.99365234 16.0753479 C-6.7131773 16.01351831 -8.25684262 15.67868395 -11.01930237 13.10803223 C-12.53491211 10.41992188 -12.53491211 10.41992188 -12.53491211 6.79492188 C-10.56476477 0.14567459 -6.28407767 -0.02604382 0 0 Z " fill="#407093" transform="translate(275.534912109375,290.580078125)"/>
<path d="M0 0 C5.7287763 2.0799313 9.09825646 5.66079189 12 11 C13.60370972 15.81112917 14.04566305 20.54060051 12.0234375 25.296875 C9.77638252 29.07413307 8.11783758 31.24903915 4 33 C4 33.66 4 34.32 4 35 C-1.31144683 38.10248063 -7.41751006 37.91246325 -13.28515625 36.41796875 C-19.04223871 33.98867962 -22.61573072 29.71702525 -25 24 C-25.95125349 18.78274045 -25.82602606 13.90242367 -23.375 9.125 C-16.81403332 0.49214911 -10.65852364 -1.09701764 0 0 Z " fill="#385F7D" transform="translate(149,92)"/>
</svg>
