<?xml version="1.0" encoding="UTF-8"?>
<svg version="1.1" xmlns="http://www.w3.org/2000/svg" width="512" height="512">
<path d="M0 0 C0.6932135 0.43491257 1.386427 0.86982513 2.10064697 1.31791687 C10.17296008 6.42099473 18.06638488 11.78710691 25.96337891 17.15576172 C41.857011 27.9567261 57.83420008 38.62268799 73.8984375 49.16796875 C90.35617493 59.97551673 106.71856093 70.91557509 123.02416992 81.95117188 C132.01215011 88.03253194 141.01425961 94.09055122 150.0546875 100.09375 C150.95732834 100.69346115 151.85996918 101.2931723 152.78996277 101.91105652 C157.08767132 104.76544964 161.38811152 107.61559976 165.69262695 110.4597168 C167.22614883 111.4769383 168.75960008 112.49426631 170.29296875 113.51171875 C170.97842773 113.96247269 171.66388672 114.41322662 172.37011719 114.87763977 C183.44546274 122.24158293 183.44546274 122.24158293 186.6484375 127.60546875 C187.03515625 128.23324219 187.421875 128.86101562 187.8203125 129.5078125 C190.38444366 134.64536515 191.21351885 139.18974588 191.2734375 144.91796875 C191.30179687 146.14 191.33015625 147.36203125 191.359375 148.62109375 C190.76775156 157.88561584 185.24252031 165.81934737 180.2109375 173.29296875 C179.63666016 174.18242187 179.06238281 175.071875 178.47070312 175.98828125 C173.3465304 183.67171554 167.1912639 191.28839261 158.0859375 194.16796875 C157.19261719 194.46703125 156.29929687 194.76609375 155.37890625 195.07421875 C152.8984375 195.66796875 152.8984375 195.66796875 148.8984375 195.66796875 C148.90212467 196.55365665 148.90581184 197.43934456 148.90961075 198.35187149 C148.99808006 219.93673407 149.06420461 241.52156525 149.10568619 263.1065712 C149.12628133 273.54507218 149.15434352 283.98345188 149.20019531 294.421875 C149.24015653 303.52364173 149.26589245 312.62532059 149.27479148 321.72717261 C149.27999053 326.54326495 149.2921463 331.35910597 149.32135773 336.17511749 C149.34867375 340.71577964 149.35685004 345.2560889 149.35086823 349.79682541 C149.35196127 351.45596362 149.35981824 353.11511465 149.3752594 354.77418137 C149.52016888 371.15894423 145.9106275 383.21187599 134.5859375 395.41796875 C122.32608906 407.0210396 108.69943859 408.13809519 92.6328125 408.1015625 C90.86785686 408.10613085 89.10290299 408.11143836 87.33795166 408.1174469 C83.6565422 408.12633925 79.97535017 408.12399642 76.29394531 408.11401367 C71.58408861 408.10248391 66.87497723 408.12281607 62.16521835 408.15193081 C58.52772288 408.17029262 54.89040647 408.17000117 51.25287628 408.16429329 C49.51618651 408.16414031 47.77948442 408.1701651 46.04283905 408.18258476 C43.61629997 408.19750642 41.19114494 408.1868132 38.76464844 408.16967773 C38.05387146 408.1793457 37.34309448 408.18901367 36.61077881 408.19897461 C31.56786829 408.12461483 28.72318875 406.91767013 24.8984375 403.66796875 C19.62295198 398.15908111 20.34262141 392.01565648 20.40014648 384.82885742 C20.39186829 382.88876045 20.39186829 382.88876045 20.38342285 380.9094696 C20.37149864 378.10366444 20.371941 375.29823368 20.38201714 372.4924221 C20.39762473 368.04928087 20.38386664 363.60652132 20.36598206 359.16340637 C20.33519489 350.52883779 20.33365889 341.89438658 20.33563232 333.25977325 C20.33702595 322.28018281 20.32656169 311.30068331 20.2870546 300.32115918 C20.27217986 295.91128604 20.27234722 291.50175342 20.28453243 287.09187543 C20.28812295 285.00472826 20.28491062 282.91772117 20.27874756 280.83058167 C20.27139469 278.29536681 20.27456864 275.76008858 20.29072571 273.22491455 C20.24521248 265.60606105 20.03919128 258.07045201 14.6484375 252.23046875 C6.99010595 247.87914401 -0.87968338 248.3572364 -9.46875 248.3671875 C-10.87208176 248.36329344 -12.27541235 248.35895732 -13.67874146 248.35420227 C-16.61220123 248.34676653 -19.54554059 248.34701179 -22.47900391 248.35229492 C-26.21665342 248.35808296 -29.95380631 248.34116224 -33.69137383 248.31795025 C-36.58780747 248.30313432 -39.4841237 248.30235186 -42.38058853 248.30545998 C-43.75753893 248.3049506 -45.13449658 248.29978582 -46.51140976 248.28964806 C-59.48023556 248.03110818 -59.48023556 248.03110818 -70.5390625 253.91796875 C-74.69514938 261.23268166 -74.38474982 268.45009716 -74.35693359 276.66821289 C-74.36249087 278.66115741 -74.36805248 280.65410192 -74.37377763 282.64704597 C-74.37810405 284.77835889 -74.37765153 286.90962508 -74.37595749 289.04094124 C-74.37311356 293.49166936 -74.38751537 297.94224016 -74.40493774 302.39292908 C-74.45186544 315.04488795 -74.47591037 327.69683484 -74.48242188 340.34887695 C-74.4861745 347.34524142 -74.50421543 354.34142655 -74.53751624 361.33771414 C-74.55770362 365.75932735 -74.56011448 370.18047724 -74.54923606 374.60211766 C-74.54601244 378.00055498 -74.56872765 381.3987334 -74.58740234 384.79711914 C-74.57514366 386.62776413 -74.57514366 386.62776413 -74.56263733 388.49539185 C-74.665872 399.0378257 -74.665872 399.0378257 -79.1015625 403.66796875 C-83.57992222 407.46866532 -87.21884722 408.25096428 -92.93603516 408.18554688 C-94.07886459 408.19606079 -94.07886459 408.19606079 -95.24478149 408.20678711 C-97.7521055 408.22432349 -100.25829036 408.2127535 -102.765625 408.19921875 C-104.52192398 408.2019166 -106.27822149 408.20580146 -108.03451538 408.21081543 C-111.71472399 408.216706 -115.39454374 408.20816815 -119.07470703 408.18945312 C-123.76170487 408.16676463 -128.44778126 408.17972478 -133.13474464 408.20374298 C-136.76393382 408.21829957 -140.39291006 408.21354847 -144.02210617 408.20323181 C-145.74824511 408.20058638 -147.47440416 408.20375628 -149.20051956 408.21315002 C-165.94904655 408.28424981 -178.25235474 405.04488689 -190.8515625 393.35546875 C-202.15178954 381.41560622 -203.55102928 368.23223687 -203.44213867 352.56005859 C-203.4412912 350.84431981 -203.44176988 349.12857995 -203.44346619 347.4128418 C-203.44432289 342.7812536 -203.42674997 338.149901 -203.40574431 333.51836729 C-203.38692314 328.66839528 -203.3852228 323.8184172 -203.38166809 318.96841431 C-203.37236356 309.79596002 -203.34777142 300.62361367 -203.31761962 291.4512068 C-203.28402594 281.00378867 -203.26757713 270.55636525 -203.25253332 260.10890651 C-203.22122039 238.6285338 -203.16849099 217.14825809 -203.1015625 195.66796875 C-203.84051758 195.55404785 -204.57947266 195.44012695 -205.34082031 195.32275391 C-206.31889648 195.16081543 -207.29697266 194.99887695 -208.3046875 194.83203125 C-209.27051758 194.67686035 -210.23634766 194.52168945 -211.23144531 194.36181641 C-224.41169822 191.17550484 -231.9846414 177.46502804 -238.6328125 166.77734375 C-244.89615444 156.45960636 -247.20222123 146.90340919 -244.44140625 134.765625 C-240.98341602 125.0503191 -233.77834618 118.93739571 -225.3046875 113.5625 C-224.45553772 113.00942673 -223.60638794 112.45635345 -222.73150635 111.88652039 C-220.90143564 110.69617664 -219.06788299 109.51117203 -217.23120117 108.33105469 C-212.25046468 105.13020835 -207.29558877 101.88962884 -202.3359375 98.65625 C-200.80380615 97.6599205 -200.80380615 97.6599205 -199.24072266 96.64346313 C-188.94485183 89.93982066 -178.76887959 83.06433281 -168.6015625 76.16796875 C-153.2700768 65.78320434 -137.85286487 55.53798494 -122.37252808 45.37661743 C-106.25215576 34.79203811 -90.24451456 24.04716051 -74.29492188 13.20703125 C-49.78131795 -3.42929424 -28.28115493 -17.78580362 0 0 Z " fill="#E9EEEF" transform="translate(283.1015625,40.33203125)"/>
<path d="M0 0 C0.6932135 0.43491257 1.386427 0.86982513 2.10064697 1.31791687 C10.17296008 6.42099473 18.06638488 11.78710691 25.96337891 17.15576172 C41.857011 27.9567261 57.83420008 38.62268799 73.8984375 49.16796875 C90.35617493 59.97551673 106.71856093 70.91557509 123.02416992 81.95117188 C132.01215011 88.03253194 141.01425961 94.09055122 150.0546875 100.09375 C150.95732834 100.69346115 151.85996918 101.2931723 152.78996277 101.91105652 C157.08767132 104.76544964 161.38811152 107.61559976 165.69262695 110.4597168 C167.22614883 111.4769383 168.75960008 112.49426631 170.29296875 113.51171875 C170.97842773 113.96247269 171.66388672 114.41322662 172.37011719 114.87763977 C183.44546274 122.24158293 183.44546274 122.24158293 186.6484375 127.60546875 C187.03515625 128.23324219 187.421875 128.86101562 187.8203125 129.5078125 C190.38444366 134.64536515 191.21351885 139.18974588 191.2734375 144.91796875 C191.30179687 146.14 191.33015625 147.36203125 191.359375 148.62109375 C190.76775156 157.88561584 185.24252031 165.81934737 180.2109375 173.29296875 C179.63666016 174.18242187 179.06238281 175.071875 178.47070312 175.98828125 C172.69283347 184.65190058 166.01249168 191.89628047 155.86328125 195.11328125 C144.37061787 197.26342381 134.14170223 193.45644323 124.6328125 187.3125 C123.95144226 186.87927933 123.27007202 186.44605865 122.5680542 185.99971008 C114.56000476 180.87238253 106.69663313 175.52581341 98.83349609 170.18017578 C82.93987009 159.37921554 66.96287697 148.71293498 50.8984375 138.16796875 C32.98045178 126.40328546 15.17469789 114.47946016 -2.57421875 102.46133423 C-4.21070756 101.35471549 -5.8486792 100.25028572 -7.48828125 99.14828491 C-10.96130404 96.81196998 -14.41294636 94.46103562 -17.80078125 92.00244141 C-19.38826172 90.87201416 -19.38826172 90.87201416 -21.0078125 89.71875 C-21.88759766 89.07204346 -22.76738281 88.42533691 -23.67382812 87.7590332 C-26.02295376 86.41997327 -26.02295376 86.41997327 -28.39819336 87.13232422 C-32.21554559 89.30076507 -35.83056138 91.70393618 -39.44921875 94.1875 C-40.27626816 94.74906296 -41.10331757 95.31062592 -41.95542908 95.88920593 C-43.75047624 97.10830703 -45.54417193 98.32939992 -47.33666992 99.55224609 C-52.19995686 102.86890616 -57.07437979 106.1691015 -61.94921875 109.46875 C-62.95755768 110.15152008 -63.96589661 110.83429016 -65.00479126 111.53775024 C-75.31091345 118.50528828 -85.70029751 125.34364375 -96.1015625 132.16796875 C-111.1115032 142.0208656 -126.04176028 151.98354188 -140.9140625 162.04296875 C-165.11664023 178.4012168 -165.11664023 178.4012168 -174.7265625 184.73046875 C-175.58354736 185.3013623 -176.44053223 185.87225586 -177.32348633 186.46044922 C-187.28739648 192.97220747 -196.69439864 197.04591951 -208.875 195.26171875 C-222.76904822 191.67064167 -230.12370599 180.00684808 -237.4140625 168.54296875 C-237.83478027 167.88635254 -238.25549805 167.22973633 -238.68896484 166.55322266 C-244.94715893 156.46707887 -247.12450069 146.63873631 -244.4453125 134.7578125 C-240.96395891 125.04903763 -233.78370907 118.94079743 -225.3046875 113.5625 C-224.45553772 113.00942673 -223.60638794 112.45635345 -222.73150635 111.88652039 C-220.90143564 110.69617664 -219.06788299 109.51117203 -217.23120117 108.33105469 C-212.25046468 105.13020835 -207.29558877 101.88962884 -202.3359375 98.65625 C-200.80380615 97.6599205 -200.80380615 97.6599205 -199.24072266 96.64346313 C-188.94485183 89.93982066 -178.76887959 83.06433281 -168.6015625 76.16796875 C-153.2700768 65.78320434 -137.85286487 55.53798494 -122.37252808 45.37661743 C-106.25215576 34.79203811 -90.24451456 24.04716051 -74.29492188 13.20703125 C-49.78131795 -3.42929424 -28.28115493 -17.78580362 0 0 Z " fill="#009AE0" transform="translate(283.1015625,40.33203125)"/>
</svg>
