<?xml version="1.0" encoding="UTF-8"?>
<svg version="1.1" xmlns="http://www.w3.org/2000/svg" width="512" height="512">
<path d="M0 0 C3.89382963 3.75014588 5.09180721 7.85503283 6.1875 13 C6.35403076 13.7525708 6.52056152 14.5051416 6.69213867 15.28051758 C10.55188483 33.50076147 9.16372478 50.74923673 2 68 C2.70125 68.3403125 3.4025 68.680625 4.125 69.03125 C14.78714611 74.47821595 21.54386774 80.75448169 26 92 C29.29299662 102.38023047 26.65301208 115.19819562 24.8125 125.58984375 C24.58721957 126.91343697 24.36303968 128.23721793 24.13989258 129.56117249 C23.55892159 132.99061429 22.96337166 136.41735531 22.36437988 139.84368896 C21.75203988 143.36233615 21.15403118 146.88341707 20.5546875 150.40429688 C19.38353218 157.27193035 18.19690331 164.13680826 17 171 C18.17151611 171.20471924 18.17151611 171.20471924 19.36669922 171.41357422 C23.96512203 172.43762499 26.86482555 175.62052624 30 179 C33.50920106 184.70245172 33.83583943 190.47293931 33 197 C30.96498892 203.79486751 26.9155236 207.55279775 21 211.25 C16.01012191 213.12120428 10.89308927 213.11219896 5.625 213.0625 C4.37976563 213.05347656 3.13453125 213.04445312 1.8515625 213.03515625 C0.91054688 213.02355469 -0.03046875 213.01195312 -1 213 C-1.00386719 214.05960937 -1.00386719 214.05960937 -1.0078125 215.140625 C-2.0447415 242.65380774 -16.70561132 266.6435171 -36.015625 285.3515625 C-39.50330064 288.44664638 -43.1491256 290.87404985 -47.234375 293.109375 C-49.36534313 295.39120813 -49.2576142 296.16703046 -49.265625 299.203125 C-49.17796875 300.45609375 -49.0903125 301.7090625 -49 303 C-48.47269287 303.1952124 -47.94538574 303.3904248 -47.40209961 303.59155273 C-19.36739025 314.08441357 4.92497786 330.1803848 21 356 C21 356.66 21 357.32 21 358 C21.54785156 358.09506836 22.09570312 358.19013672 22.66015625 358.28808594 C29.90968429 359.63484785 36.95991521 361.5687701 44.02246094 363.66650391 C45.993152 364.24797942 47.96886486 364.80954721 49.9453125 365.37109375 C65.14913534 369.80493145 76.73833285 377.28067415 85.39453125 390.703125 C91.15749657 402.53753554 91.60929678 413.16698213 91.56640625 426.0703125 C91.57165196 428.00219012 91.57793188 429.93406517 91.58518982 431.86593628 C91.59554444 435.89528545 91.59110171 439.92428034 91.57641602 443.95361328 C91.55919982 449.09585724 91.58278463 454.23698669 91.61790562 459.37910652 C91.63994456 463.3616362 91.63842304 467.34390155 91.6301403 471.32647324 C91.62932504 473.22174175 91.63610646 475.1170305 91.65091133 477.01224136 C91.78155873 496.75246371 91.78155873 496.75246371 86 504 C80.1968688 509.42491328 74.77571288 512.24576857 66.72797108 512.26006222 C65.45622683 512.26712781 64.18448259 512.2741934 62.87420064 512.2814731 C61.46519046 512.2792218 60.05618057 512.27677531 58.64717102 512.27415466 C57.14855262 512.27860728 55.64993657 512.28392141 54.15132397 512.29002339 C50.03173586 512.30421116 45.91222316 512.30586653 41.7926141 512.30542648 C37.35005387 512.30707401 32.90752477 512.32013938 28.46498108 512.33161926 C18.75003996 512.35447379 9.03512069 512.36239042 -0.67984366 512.36744571 C-6.74631625 512.37070233 -12.81278248 512.37722461 -18.87925148 512.3844471 C-35.67671727 512.40401394 -52.47417716 512.42041755 -69.27165508 512.42332363 C-70.88418399 512.42360499 -70.88418399 512.42360499 -72.52928923 512.42389202 C-74.70860628 512.42425827 -76.88792333 512.42462197 -79.06724038 512.42498314 C-80.14905252 512.42516595 -81.23086466 512.42534876 -82.34545898 512.42553711 C-83.97015873 512.42580793 -83.97015873 512.42580793 -85.6276807 512.42608423 C-103.17728159 512.42962566 -120.72675976 512.45664579 -138.2763181 512.494035 C-156.295709 512.53211783 -174.31503901 512.55148111 -192.33447105 512.55178314 C-202.45111199 512.55236773 -212.56760656 512.56086073 -222.68420982 512.58978081 C-231.29898339 512.61429439 -239.9135572 512.62157774 -248.52835622 512.60653328 C-252.92257922 512.59936419 -257.31640777 512.60022166 -261.71058655 512.62294388 C-265.73704852 512.64356485 -269.76281356 512.6409049 -273.78926823 512.62006903 C-275.242186 512.61658005 -276.69515437 512.62145916 -278.14800581 512.63577347 C-286.74626393 512.71499642 -293.87878759 512.20212369 -301 507 C-307.18393199 500.44912611 -309.30089818 494.53861278 -309.29052734 485.54467773 C-309.29724457 484.70490891 -309.30396179 483.86514008 -309.31088257 482.99992371 C-309.32985401 480.22775318 -309.33378714 477.45582514 -309.3359375 474.68359375 C-309.3423689 472.74650474 -309.34909752 470.8094167 -309.35610962 468.87232971 C-309.36808233 464.809639 -309.37179074 460.74703328 -309.37060547 456.68432617 C-309.37040294 451.50527013 -309.39763617 446.32676692 -309.43214989 441.14784145 C-309.45451347 437.14381972 -309.45844003 433.13992867 -309.45738602 429.13585091 C-309.45973041 427.2282732 -309.46848769 425.32069124 -309.48405075 423.41317558 C-309.60655988 406.8378417 -307.33746959 393.2598886 -295.74609375 380.5234375 C-285.80140089 370.97780936 -273.7170892 366.94873246 -260.7331543 363.27490234 C-258.40626372 362.61615697 -256.0848368 361.9403366 -253.76367188 361.26171875 C-252.27892811 360.83235601 -250.79391177 360.40393446 -249.30859375 359.9765625 C-248.61801376 359.77664703 -247.92743378 359.57673157 -247.21592712 359.37075806 C-244.37234409 358.56944895 -241.97134324 358 -239 358 C-238.76023437 357.30003906 -238.52046875 356.60007812 -238.2734375 355.87890625 C-228.2897567 333.3084377 -201.58113279 315.65638043 -179.60839844 306.95581055 C-176.08518077 305.59979431 -172.54882479 304.28755548 -169 303 C-168.74774682 300.12911861 -168.55692 297.81154403 -169 295 C-171.16396066 292.52079236 -171.16396066 292.52079236 -174.25 290.75 C-175.36228747 289.99635969 -176.4689045 289.23429651 -177.5703125 288.46484375 C-178.14040039 288.06765137 -178.71048828 287.67045898 -179.29785156 287.26123047 C-198.61933474 272.9447098 -211.27164856 249.22986026 -216 226 C-216.57405221 221.66033667 -216.91628861 217.37582257 -217 213 C-217.9178125 213.02320313 -218.835625 213.04640625 -219.78125 213.0703125 C-237.30378758 213.32799688 -237.30378758 213.32799688 -245 207 C-249.93366926 201.15960233 -251.37440172 196.50465042 -251.2734375 188.8515625 C-250.60564346 181.88742464 -247.06841479 177.54781492 -241.87890625 173.12890625 C-239.62286053 171.77340269 -237.5737391 171.46390071 -235 171 C-235.09396057 169.60843941 -235.09396057 169.60843941 -235.18981934 168.18876648 C-235.78212948 159.40689557 -236.37089045 150.62479525 -236.95575714 141.84242535 C-237.256499 137.32833045 -237.55856845 132.81433289 -237.86376953 128.30053711 C-238.15875593 123.93706253 -238.45012749 119.57335969 -238.73908997 115.20948219 C-238.84944884 113.55220901 -238.96106696 111.89501913 -239.07402039 110.23792076 C-240.47455141 89.66214489 -241.18593238 71.6762658 -227.125 55 C-218.43716096 46.01200529 -208.36744741 41.34076082 -195.9375 40.4375 C-188.62385309 39.54714299 -186.02784342 36.54786338 -181.55078125 30.95703125 C-172.16139155 20.07224105 -157.04594713 13.03711948 -142.78216934 11.80905151 C-140.49496632 11.73174447 -138.21476841 11.71004156 -135.92626953 11.71289062 C-135.06789993 11.70605759 -134.20953033 11.69922455 -133.32514954 11.69218445 C-131.47557274 11.67868208 -129.62595953 11.66957414 -127.77634048 11.66447449 C-124.8298414 11.65609944 -121.88363976 11.63551066 -118.93722534 11.61193848 C-112.66652861 11.56391969 -106.39580119 11.53092859 -100.125 11.5 C-92.8835008 11.46406308 -85.64214567 11.42162868 -78.40078354 11.36405945 C-75.53255855 11.34434954 -72.66445081 11.33574216 -69.7961731 11.32775879 C-50.94437784 11.21990566 -31.37235275 10.68256997 -14.125 2.25 C-9.62494858 0.09051184 -4.93878663 -1.66256183 0 0 Z " fill="#F7B97D" transform="translate(365,0)"/>
<path d="M0 0 C0 8.58 0 17.16 0 26 C14.08690529 33.99772687 28.21387498 41.90885972 42.4128418 49.70507812 C43.01383194 50.03547089 43.61482208 50.36586365 44.23402405 50.70626831 C45.86730618 51.60400926 47.50125629 52.50053464 49.13525391 53.39697266 C51.78939677 54.88215265 54.40161167 56.41969714 57 58 C56.48054759 62.15321719 54.27440896 64.09888758 51.37890625 66.984375 C50.9189476 67.44483215 50.45898895 67.90528931 49.98509216 68.37969971 C49.01440344 69.34805383 48.04003424 70.31273083 47.06225586 71.27392578 C45.56244425 72.75005487 44.07648806 74.23914838 42.59179688 75.73046875 C35.2668115 83 35.2668115 83 33 83 C33.24234375 83.65597168 33.4846875 84.31194336 33.734375 84.98779297 C34.82624991 87.94897872 35.9131828 90.91195445 37 93.875 C37.3815625 94.90753906 37.763125 95.94007813 38.15625 97.00390625 C38.5171875 97.99003906 38.878125 98.97617187 39.25 99.9921875 C39.58515625 100.90339355 39.9203125 101.81459961 40.265625 102.75341797 C41 105 41 105 41 107 C42.32 107.33 43.64 107.66 45 108 C44.21766847 118.74201368 42.97960298 129.42733783 41.75 140.125 C41.52961988 142.05069958 41.30924231 143.97639946 41.08886719 145.90209961 C40.39703619 151.93525087 39.69925669 157.96770544 39 164 C38.82476807 165.51361115 38.82476807 165.51361115 38.64599609 167.05780029 C37.96173934 172.9640103 37.27293616 178.86966228 36.57775879 184.77459717 C36.35987906 186.62787326 36.14299496 188.48126668 35.92712402 190.33477783 C35.62645616 192.9123723 35.32164457 195.48944242 35.015625 198.06640625 C34.8831134 199.21175087 34.8831134 199.21175087 34.7479248 200.38023376 C34.38572306 203.39709926 33.96406305 206.10781084 33 209 C12.70251541 209.11694997 -7.59490053 209.20504525 -27.89265251 209.25906086 C-37.3178727 209.2848111 -46.74288318 209.31990063 -56.16796875 209.37719727 C-64.38562767 209.42712982 -72.60313467 209.45931412 -80.82094109 209.47044247 C-85.16979863 209.47694461 -89.51822166 209.49215956 -93.86693954 209.52865028 C-97.96608591 209.56276586 -102.0646217 209.57302191 -106.16389656 209.56553841 C-107.6626334 209.56690605 -109.16139214 209.57674593 -110.66000557 209.59602737 C-119.30449437 209.70172756 -126.79974467 209.3180717 -134 204 C-140.18114673 197.44407693 -142.30090264 191.54247667 -142.29052734 182.54467773 C-142.29724457 181.70490891 -142.30396179 180.86514008 -142.31088257 179.99992371 C-142.32985401 177.22775318 -142.33378714 174.45582514 -142.3359375 171.68359375 C-142.3423689 169.74650474 -142.34909752 167.8094167 -142.35610962 165.87232971 C-142.36808233 161.809639 -142.37179074 157.74703328 -142.37060547 153.68432617 C-142.37040294 148.50527013 -142.39763617 143.32676692 -142.43214989 138.14784145 C-142.45451347 134.14381972 -142.45844003 130.13992867 -142.45738602 126.13585091 C-142.45973041 124.2282732 -142.46848769 122.32069124 -142.48405075 120.41317558 C-142.60655988 103.8378417 -140.33746959 90.2598886 -128.74609375 77.5234375 C-118.80140089 67.97780936 -106.7170892 63.94873246 -93.7331543 60.27490234 C-91.40626372 59.61615697 -89.0848368 58.9403366 -86.76367188 58.26171875 C-85.27892811 57.83235601 -83.79391177 57.40393446 -82.30859375 56.9765625 C-81.61801376 56.77664703 -80.92743378 56.57673157 -80.21592712 56.37075806 C-77.37234409 55.56944895 -74.97134324 55 -72 55 C-71.76023437 54.30003906 -71.52046875 53.60007812 -71.2734375 52.87890625 C-60.8660215 29.35048418 -33.10020823 11.89250151 -10.25 3 C-2.45940739 0 -2.45940739 0 0 0 Z " fill="#FECD5C" transform="translate(198,303)"/>
<path d="M0 0 C20.79150265 6.75723836 38.15725414 16.87347231 54 32 C54.89912109 32.804375 54.89912109 32.804375 55.81640625 33.625 C59.92668693 37.43964564 63.17116387 41.77827953 66.4375 46.3125 C66.88738281 46.93600342 67.33726562 47.55950684 67.80078125 48.2019043 C71 52.74551524 71 52.74551524 71 55 C71.54785156 55.09506836 72.09570312 55.19013672 72.66015625 55.28808594 C79.90968429 56.63484785 86.95991521 58.5687701 94.02246094 60.66650391 C95.993152 61.24797942 97.96886486 61.80954721 99.9453125 62.37109375 C115.14913534 66.80493145 126.73833285 74.28067415 135.39453125 87.703125 C141.15749657 99.53753554 141.60929678 110.16698213 141.56640625 123.0703125 C141.57165196 125.00219012 141.57793188 126.93406517 141.58518982 128.86593628 C141.59554444 132.89528545 141.59110171 136.92428034 141.57641602 140.95361328 C141.55919982 146.09585724 141.58278463 151.23698669 141.61790562 156.37910652 C141.63994456 160.3616362 141.63842304 164.34390155 141.6301403 168.32647324 C141.62932504 170.22174175 141.63610646 172.1170305 141.65091133 174.01224136 C141.78155873 193.75246371 141.78155873 193.75246371 136 201 C130.07672391 206.53722775 124.64262287 209.2536253 116.43840027 209.24050903 C115.79301042 209.24221788 115.14762058 209.24392673 114.48267347 209.24568737 C112.32842253 209.24897152 110.17448573 209.2379966 108.02026367 209.22705078 C106.47274788 209.22648643 104.92523155 209.22680369 103.37771606 209.22793579 C99.18181796 209.22850939 94.98603432 209.21675395 90.7901628 209.20278788 C86.40327139 209.19028168 82.01637732 209.1891101 77.62947083 209.18673706 C69.32456772 209.18052197 61.01971729 209.16411074 52.71483737 209.14403808 C43.25904416 209.12168 33.80324842 209.11068588 24.34743536 209.10064721 C4.89826037 209.07974455 -14.55086558 209.04456799 -34 209 C-35.23389979 205.29830063 -35.56692138 201.62801089 -35.98046875 197.76953125 C-36.17420184 196.02099242 -36.36796981 194.27245745 -36.56176758 192.52392578 C-36.6635733 191.59420959 -36.76537903 190.66449341 -36.87026978 189.706604 C-39.07794956 169.5658532 -41.52687438 149.46105458 -44.11987305 129.36645508 C-44.36770217 127.42399425 -44.61550619 125.48153022 -44.86328125 123.5390625 C-44.97866241 122.65966507 -45.09404358 121.78026764 -45.21292114 120.8742218 C-45.76231198 116.5488645 -46.12920972 112.37181763 -46 108 C-45.36964844 107.92136719 -44.73929687 107.84273438 -44.08984375 107.76171875 C-41.84986223 107.2196803 -41.84986223 107.2196803 -41.12890625 105.20703125 C-40.94199219 104.41683594 -40.75507813 103.62664062 -40.5625 102.8125 C-39.36849752 98.24212383 -37.92610912 93.81228378 -36.3125 89.375 C-35.87550781 88.16585937 -35.43851562 86.95671875 -34.98828125 85.7109375 C-34.66214844 84.81632812 -34.33601563 83.92171875 -34 83 C-34.84256348 82.6431311 -34.84256348 82.6431311 -35.70214844 82.27905273 C-40.59836772 79.553671 -44.32298982 75.00326022 -48.25 71.0625 C-49.18585938 70.14275391 -50.12171875 69.22300781 -51.0859375 68.27539062 C-51.97023438 67.39173828 -52.85453125 66.50808594 -53.765625 65.59765625 C-54.57805664 64.78820557 -55.39048828 63.97875488 -56.22753906 63.14477539 C-58 61 -58 61 -58 58 C-56.89434692 57.39079712 -56.89434692 57.39079712 -55.76635742 56.76928711 C-54.72326416 56.1944458 -53.6801709 55.61960449 -52.60546875 55.02734375 C-51.74877342 54.55541092 -51.74877342 54.55541092 -50.87477112 54.07394409 C-47.67069278 52.30835091 -44.46827786 50.53983241 -41.26855469 48.76635742 C-35.20755996 45.40930443 -29.14327394 42.06273121 -23.02876282 38.80387878 C-20.52706402 37.46896865 -18.03220543 36.12157332 -15.53799438 34.7727356 C-13.77153541 33.82406551 -11.99553635 32.89322947 -10.21948242 31.96264648 C-9.15189697 31.38329346 -8.08431152 30.80394043 -6.984375 30.20703125 C-6.04303711 29.7066333 -5.10169922 29.20623535 -4.13183594 28.69067383 C-1.8166252 27.16874621 -1.8166252 27.16874621 -1.19238281 24.61499023 C-1.00327143 22.04446739 -0.90220663 19.53052172 -0.9375 16.953125 C-0.94910156 15.56287109 -0.94910156 15.56287109 -0.9609375 14.14453125 C-0.97382813 13.18933594 -0.98671875 12.23414063 -1 11.25 C-1.02538384 9.33859668 -1.0464594 7.42712956 -1.0625 5.515625 C-1.07410156 4.67290039 -1.08570313 3.83017578 -1.09765625 2.96191406 C-1 1 -1 1 0 0 Z " fill="#FECD5C" transform="translate(315,303)"/>
<path d="M0 0 C3.89382963 3.75014588 5.09180721 7.85503283 6.1875 13 C6.43729614 14.1288562 6.43729614 14.1288562 6.69213867 15.28051758 C10.55188483 33.50076147 9.16372478 50.74923673 2 68 C3.051875 68.51046875 3.051875 68.51046875 4.125 69.03125 C14.78714611 74.47821595 21.54386774 80.75448169 26 92 C29.27526127 102.31918429 26.6748502 115.04238122 24.8125 125.37109375 C24.59053955 126.65943619 24.3685791 127.94777863 24.13989258 129.27516174 C23.5590973 132.64548681 22.96349193 136.01301655 22.36437988 139.38012695 C21.75188801 142.83839763 21.15396788 146.29918568 20.5546875 149.75976562 C19.38375626 156.50899198 18.19710399 163.25536792 17 170 C13.79197767 170.11698258 10.58450975 170.18750607 7.375 170.25 C6.47136719 170.28351563 5.56773437 170.31703125 4.63671875 170.3515625 C-1.132278 170.43578143 -4.44033069 169.89671183 -9 166 C-12.75575993 162.15173366 -13.23295722 159.18517649 -13.21484375 154 C-13.13367408 151.66624711 -13.04070658 149.33288222 -12.9375 147 C-12.62273867 132.25426537 -14.45081073 121.05678624 -25 110 C-25.59554687 109.36449219 -26.19109375 108.72898437 -26.8046875 108.07421875 C-33.97907531 101.12310027 -44.03252694 96.90938867 -54.03186035 96.84609985 C-55.04654388 96.83749939 -56.06122742 96.82889893 -57.10665894 96.82003784 C-58.21421539 96.81577789 -59.32177185 96.81151794 -60.46289062 96.80712891 C-62.21975693 96.79486267 -62.21975693 96.79486267 -64.01211548 96.78234863 C-67.89347986 96.757511 -71.77483651 96.74082115 -75.65625 96.7265625 C-76.9969839 96.7211991 -78.33771775 96.71582158 -79.67845154 96.71043015 C-85.26137611 96.68880514 -90.84429789 96.67007398 -96.42725372 96.65880775 C-104.40165645 96.64260522 -112.37556916 96.60951408 -120.34978724 96.55240691 C-125.97039091 96.51354304 -131.59086447 96.49415542 -137.21159887 96.48888719 C-140.56126753 96.48525419 -143.90999993 96.47090803 -147.25959778 96.44078445 C-151.00742283 96.40901018 -154.75402761 96.40911588 -158.50195312 96.41650391 C-159.59331573 96.40009857 -160.68467834 96.38369324 -161.80911255 96.36679077 C-174.6333995 96.46963907 -184.62623607 101.87876223 -193.7109375 110.65234375 C-204.58678241 122.38390234 -205.28160185 135.03595361 -204.74609375 150.21679688 C-204.53953349 161.21916849 -204.53953349 161.21916849 -209 166 C-212.62838406 169.18857993 -215.66718425 170.12975044 -220.44921875 170.09765625 C-221.29677734 170.09443359 -222.14433594 170.09121094 -223.01757812 170.08789062 C-223.89865234 170.07951172 -224.77972656 170.07113281 -225.6875 170.0625 C-226.58017578 170.05798828 -227.47285156 170.05347656 -228.39257812 170.04882812 C-230.59511987 170.03704983 -232.79752599 170.02060164 -235 170 C-235.65629583 160.41148624 -236.30854344 150.82270788 -236.95575714 141.23357677 C-237.25647319 136.78001241 -237.55853407 132.3265481 -237.86376953 127.87329102 C-238.15879958 123.56817682 -238.45016487 119.26282825 -238.73908997 114.95730019 C-238.84943166 113.32235336 -238.96104903 111.68749207 -239.07402039 110.05272484 C-240.48953442 89.53993029 -241.13873729 71.62029243 -227.125 55 C-218.43716096 46.01200529 -208.36744741 41.34076082 -195.9375 40.4375 C-188.62385309 39.54714299 -186.02784342 36.54786338 -181.55078125 30.95703125 C-172.16139155 20.07224105 -157.04594713 13.03711948 -142.78216934 11.80905151 C-140.49496632 11.73174447 -138.21476841 11.71004156 -135.92626953 11.71289062 C-134.63871513 11.70264107 -134.63871513 11.70264107 -133.32514954 11.69218445 C-131.47557274 11.67868208 -129.62595953 11.66957414 -127.77634048 11.66447449 C-124.8298414 11.65609944 -121.88363976 11.63551066 -118.93722534 11.61193848 C-112.66652861 11.56391969 -106.39580119 11.53092859 -100.125 11.5 C-92.8835008 11.46406308 -85.64214567 11.42162868 -78.40078354 11.36405945 C-75.53255855 11.34434954 -72.66445081 11.33574216 -69.7961731 11.32775879 C-50.94437784 11.21990566 -31.37235275 10.68256997 -14.125 2.25 C-9.62494858 0.09051184 -4.93878663 -1.66256183 0 0 Z " fill="#794645" transform="translate(365,0)"/>
<path d="M0 0 C0.94650925 -0.00137466 1.89301849 -0.00274933 2.86820984 -0.00416565 C3.90470673 -0.00057037 4.94120361 0.0030249 6.0091095 0.00672913 C7.10194748 0.0065831 8.19478546 0.00643707 9.32073975 0.00628662 C12.94059723 0.00698447 16.56040355 0.01477094 20.18025208 0.02259827 C22.68703178 0.0244629 25.19381184 0.02588659 27.70059204 0.02688599 C33.62913337 0.03031678 39.55765823 0.03820195 45.48619109 0.04823548 C52.89788002 0.06050697 60.30957122 0.06587986 67.7212677 0.07142639 C80.94328227 0.08215742 94.16528163 0.09903789 107.38728333 0.12025452 C106.67195022 5.15563851 105.67573399 8.13949844 102.38728333 12.12025452 C97.38938797 15.5165889 93.70522644 16.7030925 87.62287903 16.60267639 C86.50909126 16.60854515 86.50909126 16.60854515 85.37280273 16.61453247 C83.77143509 16.62047801 82.17001303 16.61739093 80.56867409 16.60610962 C78.02307229 16.5887315 75.47859485 16.59641941 72.9329834 16.61036682 C66.6089519 16.63990427 60.28513972 16.62688652 53.96107483 16.6151886 C48.61500789 16.60693499 43.2694346 16.61513382 37.92343712 16.64431763 C35.43517402 16.65133637 32.94781677 16.63482759 30.45962524 16.61720276 C17.035936 16.61889234 5.79012177 18.99748805 -4.61271667 28.12025452 C-12.86556922 36.642394 -16.6861479 46.74979841 -16.78971863 58.52088928 C-16.80255386 59.79734818 -16.8153891 61.07380707 -16.82861328 62.38894653 C-16.8367922 63.77984724 -16.8442337 65.17075246 -16.85099792 66.56166077 C-16.85507345 67.27129408 -16.85914898 67.98092739 -16.86334801 68.71206474 C-16.88419014 72.48280922 -16.89848866 76.25351772 -16.90788269 80.02430725 C-16.91666597 83.10328939 -16.93735733 86.18180889 -16.96940613 89.26063538 C-17.34481439 126.13188921 -11.22463041 157.60393713 15.13728333 185.30775452 C29.21728698 198.77842262 48.74315988 210.85662705 68.38728333 213.12025452 C69.39146301 213.24271545 70.3956427 213.36517639 71.43025208 213.49134827 C87.32400192 214.45879391 102.53432277 205.95804874 116.38728333 199.12025452 C116.61063237 203.85219991 116.77344186 208.58105196 116.88166809 213.31703186 C116.92679216 214.92564849 116.98811461 216.53389865 117.0662384 218.14125061 C117.69179009 231.34734175 117.69179009 231.34734175 114.77449036 235.31214905 C112.39191522 236.94710156 110.05614395 238.01509593 107.38728333 239.12025452 C105.43715146 240.18225566 103.49477966 241.25859334 101.55915833 242.34681702 C99.42059214 243.48351144 97.27988078 244.61617716 95.13728333 245.74525452 C85.55319272 250.83988325 76.07500122 256.0755833 66.71052551 261.56410217 C65.90260559 262.03380432 65.09468567 262.50350647 64.26228333 262.98744202 C63.20654114 263.60788391 63.20654114 263.60788391 62.12947083 264.24085999 C60.38728333 265.12025452 60.38728333 265.12025452 58.38728333 265.12025452 C60.45844896 268.85602212 62.74149385 271.72112561 65.76618958 274.72962952 C66.60472473 275.56623108 67.44325989 276.40283264 68.3072052 277.26478577 C69.17925598 278.12459045 70.05130676 278.98439514 70.94978333 279.87025452 C71.82570129 280.74552795 72.70161926 281.62080139 73.6040802 282.52259827 C77.62287821 286.816778 77.62287821 286.816778 82.38728333 290.12025452 C81.61511554 294.84742801 80.08843411 299.23976983 78.51228333 303.74525452 C78.25575989 304.50837952 77.99923645 305.27150452 77.73493958 306.05775452 C77.47841614 306.79252014 77.2218927 307.52728577 76.95759583 308.28431702 C76.72830383 308.94898987 76.49901184 309.61366272 76.26277161 310.29847717 C75.25759512 312.39011882 74.1729588 313.64637272 72.38728333 315.12025452 C71.72728333 315.12025452 71.06728333 315.12025452 70.38728333 315.12025452 C70.56360291 316.08898499 70.56360291 316.08898499 70.7434845 317.07728577 C72.42898684 326.71720528 73.56582809 336.40391095 74.69978333 346.12025452 C74.91474676 347.94587139 75.12983714 349.77147332 75.345047 351.59706116 C76.03178693 357.43743292 76.71068545 363.2787 77.38728333 369.12025452 C77.50539368 370.13964111 77.62350403 371.15902771 77.74519348 372.20930481 C78.56879396 379.32483963 79.38596346 386.44109509 80.19978333 393.55775452 C80.31069305 394.52398743 80.42160278 395.49022034 80.53587341 396.48573303 C80.84885677 399.21656605 81.15948559 401.94765579 81.46931458 404.67884827 C81.56281189 405.49252365 81.6563092 406.30619904 81.75263977 407.14453125 C82.09186556 410.1543888 82.38728333 413.08855841 82.38728333 416.12025452 C65.88728333 416.12025452 49.38728333 416.12025452 32.38728333 416.12025452 C34.68408118 390.85547807 34.68408118 390.85547807 36.04353333 380.31947327 C36.1913324 379.14794205 36.33913147 377.97641083 36.4914093 376.76937866 C36.95311477 373.11503839 37.41995077 369.46137897 37.88728333 365.80775452 C38.35231658 362.14543579 38.81625008 358.48297932 39.27986145 354.82048035 C39.57746808 352.46988315 39.87563288 350.11935655 40.1743927 347.76890564 C41.1591132 340.00193675 42.09457715 332.23098852 42.97517395 324.45155334 C43.36231075 321.32212111 43.84330219 318.22587607 44.38728333 315.12025452 C43.44779846 314.97861877 43.44779846 314.97861877 42.48933411 314.8341217 C41.79565735 314.59854553 41.10198059 314.36296936 40.38728333 314.12025452 C39.14151922 311.50951444 38.16912803 309.09558676 37.26228333 306.37025452 C36.75992105 304.93787799 36.25732218 303.50558442 35.75447083 302.07337952 C35.52211731 301.39082092 35.28976379 300.70826233 35.05036926 300.00502014 C34.49056963 298.4138371 33.85696944 296.848906 33.20759583 295.29212952 C32.38728333 293.12025452 32.38728333 293.12025452 32.38728333 290.12025452 C33.60993958 288.82337952 33.60993958 288.82337952 35.44978333 287.37025452 C39.9664423 283.5873488 44.14863799 279.52015348 48.32478333 275.37025452 C48.99968811 274.70799866 49.6745929 274.0457428 50.36994934 273.36341858 C51.00344299 272.73145569 51.63693665 272.0994928 52.28962708 271.44837952 C52.86189026 270.88022522 53.43415344 270.31207092 54.02375793 269.72669983 C55.61728642 268.05159793 55.61728642 268.05159793 56.38728333 265.12025452 C55.30229553 264.70513611 55.30229553 264.70513611 54.19538879 264.28163147 C51.50941542 263.17076594 49.01179395 261.92255022 46.45759583 260.53822327 C45.50804016 260.02445129 44.5584845 259.51067932 43.58015442 258.9813385 C42.56775696 258.42905579 41.5553595 257.87677307 40.51228333 257.30775452 C39.46250305 256.7367804 38.41272278 256.16580627 37.33113098 255.57752991 C29.77882036 251.45649964 22.25823733 247.28037411 14.76228333 243.05775452 C13.80982727 242.52239075 12.85737122 241.98702698 11.87605286 241.43544006 C10.12472484 240.44356673 8.38210519 239.4360786 6.65071106 238.4098053 C4.21276019 236.96667973 4.21276019 236.96667973 0.75837708 235.54603577 C-2.17062643 232.54947699 -2.01861459 231.42767232 -2.16349792 227.32337952 C-2.11430856 225.00483235 -2.03364469 222.68678726 -1.92521667 220.37025452 C-1.30351535 209.66554346 -1.30351535 209.66554346 -2.61271667 199.12025452 C-4.87217297 196.66206627 -4.87217297 196.66206627 -7.92521667 194.87025452 C-29.82718921 179.90533467 -44.34467169 156.00156862 -49.61271667 130.12025452 C-50.18676888 125.78059119 -50.52900529 121.49607708 -50.61271667 117.12025452 C-51.53052917 117.14345764 -52.44834167 117.16666077 -53.39396667 117.19056702 C-70.91650426 117.44825139 -70.91650426 117.44825139 -78.61271667 111.12025452 C-83.54638594 105.27985685 -84.9871184 100.62490493 -84.88615417 92.97181702 C-84.21976792 86.0223604 -80.7279514 81.69624995 -75.49162292 77.34681702 C-69.5154288 73.44551774 -63.55480964 73.7538848 -56.64982605 73.64173889 C-50.18955563 73.43235463 -45.96824253 72.47191251 -41.23381042 67.74525452 C-38.76929953 62.23425184 -39.41215609 57.06647757 -39.67521667 51.12025452 C-39.98958733 36.39282196 -38.17175185 25.14763399 -27.61271667 14.12025452 C-20.36642738 6.5720365 -10.83232722 -0.01213027 0 0 Z " fill="#F0A572" transform="translate(198.6127166748047,95.87974548339844)"/>
<path d="M0 0 C3.45064709 1.32022419 6.68240276 2.82206449 9.9296875 4.58203125 C10.8791626 5.09580322 11.8286377 5.6095752 12.80688477 6.13891602 C13.81936279 6.69119873 14.83184082 7.24348145 15.875 7.8125 C17.45075806 8.66896118 17.45075806 8.66896118 19.05834961 9.54272461 C32.46900792 16.85662902 45.74103858 24.41565581 59 32 C58.48054759 36.15321719 56.27440896 38.09888758 53.37890625 40.984375 C52.9189476 41.44483215 52.45898895 41.90528931 51.98509216 42.37969971 C51.01440344 43.34805383 50.04003424 44.31273083 49.06225586 45.27392578 C47.56244425 46.75005487 46.07648806 48.23914838 44.59179688 49.73046875 C37.2668115 57 37.2668115 57 35 57 C35.24234375 57.65597168 35.4846875 58.31194336 35.734375 58.98779297 C36.82624991 61.94897872 37.9131828 64.91195445 39 67.875 C39.3815625 68.90753906 39.763125 69.94007813 40.15625 71.00390625 C40.5171875 71.99003906 40.878125 72.97617187 41.25 73.9921875 C41.75273437 75.35899658 41.75273437 75.35899658 42.265625 76.75341797 C43 79 43 79 43 81 C44.98 81.495 44.98 81.495 47 82 C46.21766847 92.74201368 44.97960298 103.42733783 43.75 114.125 C43.52961988 116.05069958 43.30924231 117.97639946 43.08886719 119.90209961 C42.39703619 125.93525087 41.69925669 131.96770544 41 138 C40.82476807 139.51361115 40.82476807 139.51361115 40.64599609 141.05780029 C39.96173934 146.9640103 39.27293616 152.86966228 38.57775879 158.77459717 C38.35987906 160.62787326 38.14299496 162.48126668 37.92712402 164.33477783 C37.62645616 166.9123723 37.32164457 169.48944242 37.015625 172.06640625 C36.92728394 172.82996933 36.83894287 173.59353241 36.7479248 174.38023376 C36.38572306 177.39709926 35.96406305 180.10781084 35 183 C10.25 183 -14.5 183 -40 183 C-40.20081834 154.65337537 -40.20081834 154.65337537 -40.25126934 140.55474091 C-40.27887362 132.95885909 -40.31380297 125.36325467 -40.37719727 117.76757812 C-40.43280132 111.10206154 -40.46149297 104.43690713 -40.47438622 97.77114868 C-40.4835645 95.23885381 -40.50148616 92.70657377 -40.52865028 90.17440796 C-40.78270545 65.49144082 -36.65556761 46.17232265 -18.93359375 27.9296875 C-16.53755838 25.51436038 -14.0843512 23.163281 -11.625 20.8125 C-5.73002352 14.99121073 -1.75873142 8.09016452 0 0 Z " fill="#E8E6E8" transform="translate(196,329)"/>
<path d="M0 0 C0.25652344 0.75023437 0.51304687 1.50046875 0.77734375 2.2734375 C4.2984224 11.68669153 9.44350549 17.56176565 16.55859375 24.4921875 C29.41122563 37.0513803 39.78463215 53.20346407 40.36076355 71.72660828 C40.36932166 73.78347099 40.36180206 75.84044581 40.34057617 77.8972168 C40.34123329 79.59674751 40.34123329 79.59674751 40.34190369 81.33061218 C40.33983098 85.03699606 40.31657145 88.7429149 40.29296875 92.44921875 C40.28736741 95.0342433 40.28309985 97.61927105 40.28010559 100.20429993 C40.26986207 106.28848336 40.24627212 112.37247785 40.21605712 118.45659047 C40.17906868 126.07194013 40.16277682 133.68731714 40.14648438 141.30273438 C40.11737116 154.86861702 40.0572578 168.43414219 40 182 C15.25 182 -9.5 182 -35 182 C-36.23389979 178.29830063 -36.56692138 174.62801089 -36.98046875 170.76953125 C-37.17420184 169.02099242 -37.36796981 167.27245745 -37.56176758 165.52392578 C-37.6635733 164.59420959 -37.76537903 163.66449341 -37.87026978 162.706604 C-40.07794956 142.5658532 -42.52687438 122.46105458 -45.11987305 102.36645508 C-45.36770217 100.42399425 -45.61550619 98.48153022 -45.86328125 96.5390625 C-45.97866241 95.65966507 -46.09404358 94.78026764 -46.21292114 93.8742218 C-46.76231198 89.5488645 -47.12920972 85.37181763 -47 81 C-46.36964844 80.92136719 -45.73929687 80.84273438 -45.08984375 80.76171875 C-42.84986223 80.2196803 -42.84986223 80.2196803 -42.12890625 78.20703125 C-41.94199219 77.41683594 -41.75507813 76.62664062 -41.5625 75.8125 C-40.36849752 71.24212383 -38.92610912 66.81228378 -37.3125 62.375 C-36.87550781 61.16585937 -36.43851562 59.95671875 -35.98828125 58.7109375 C-35.66214844 57.81632812 -35.33601563 56.92171875 -35 56 C-35.56170898 55.7620874 -36.12341797 55.5241748 -36.70214844 55.27905273 C-41.59836772 52.553671 -45.32298982 48.00326022 -49.25 44.0625 C-50.18585938 43.14275391 -51.12171875 42.22300781 -52.0859375 41.27539062 C-52.97023438 40.39173828 -53.85453125 39.50808594 -54.765625 38.59765625 C-55.57805664 37.78820557 -56.39048828 36.97875488 -57.22753906 36.14477539 C-59 34 -59 34 -59 31 C-57.89434692 30.39079712 -57.89434692 30.39079712 -56.76635742 29.76928711 C-53.89240945 28.18547473 -51.01876905 26.60110603 -48.14520264 25.01660156 C-46.18519556 23.93622978 -44.22469487 22.85675768 -42.26416016 21.77734375 C-35.54981157 18.07812122 -28.84708023 14.36016891 -22.16796875 10.59765625 C-20.32809189 9.56417778 -18.48799471 8.53109252 -16.64785767 7.49807739 C-15.46815523 6.83393252 -14.28974012 6.16749569 -13.11264038 5.49874878 C-11.47148615 4.56649152 -9.82569179 3.64241698 -8.1796875 2.71875 C-6.78339111 1.92887695 -6.78339111 1.92887695 -5.35888672 1.12304688 C-3 0 -3 0 0 0 Z " fill="#E8E6E8" transform="translate(316,330)"/>
<path d="M0 0 C7.82457614 1.35779409 15.41676219 3.40744152 23.02246094 5.66650391 C24.993152 6.24797942 26.96886486 6.80954721 28.9453125 7.37109375 C44.14913534 11.80493145 55.73833285 19.28067415 64.39453125 32.703125 C70.15749657 44.53753554 70.60929678 55.16698213 70.56640625 68.0703125 C70.57165196 70.00219012 70.57793188 71.93406517 70.58518982 73.86593628 C70.59554444 77.89528545 70.59110171 81.92428034 70.57641602 85.95361328 C70.55919982 91.09585724 70.58278463 96.23698669 70.61790562 101.37910652 C70.63994456 105.3616362 70.63842304 109.34390155 70.6301403 113.32647324 C70.62932504 115.22174175 70.63610646 117.1170305 70.65091133 119.01224136 C70.78155873 138.75246371 70.78155873 138.75246371 65 146 C58.0750248 152.47364132 52.07682515 154.30855096 42.76171875 154.1953125 C41.88095169 154.1924826 41.00018463 154.18965271 40.09272766 154.18673706 C37.29084455 154.17557833 34.48928584 154.15048171 31.6875 154.125 C29.78320775 154.11496463 27.87891048 154.10583975 25.97460938 154.09765625 C21.31628203 154.07565309 16.65819594 154.04115294 12 154 C12.57236795 149.7190332 13.26386305 145.53985784 14.26953125 141.33984375 C14.51662842 140.30561279 14.76372559 139.27138184 15.01831055 138.20581055 C15.28039307 137.12726807 15.54247559 136.04872559 15.8125 134.9375 C16.08167236 133.82221924 16.35084473 132.70693848 16.62817383 131.55786133 C18.30911765 124.65680097 20.12012308 117.82283396 22.12109375 111.0078125 C26.28012703 98.68008744 26.28012703 98.68008744 24.87768555 86.22412109 C22.58494602 82.28732247 19.82788279 79.45072674 16.58203125 76.2890625 C15.65616463 75.36956314 15.65616463 75.36956314 14.71159363 74.43148804 C12.75219975 72.48879209 10.78260132 70.55683057 8.8125 68.625 C7.47652409 67.30408236 6.14123004 65.98247471 4.80664062 64.66015625 C1.54559784 61.43206478 -1.72463387 58.21355481 -5 55 C-3.82668942 51.87920816 -2.58769017 49.14512345 -0.6875 46.40625 C-0.25179688 45.76816406 0.18390625 45.13007813 0.6328125 44.47265625 C1.54427083 43.15755208 2.45572917 41.84244792 3.3671875 40.52734375 C7.52534853 34.43772922 9.89662539 29.61863128 9 22 C8.28958203 19.36766551 7.28849787 16.92841007 6.1875 14.4375 C5.92646484 13.81681641 5.66542969 13.19613281 5.39648438 12.55664062 C4.61158828 10.6980842 3.80739364 8.8488779 3 7 C2.43267017 5.67878162 1.86622448 4.35718314 1.30078125 3.03515625 C0.87152344 2.03355469 0.44226563 1.03195312 0 0 Z " fill="#FFDC76" transform="translate(386,358)"/>
<path d="M0 0 C-0.48210937 1.02480469 -0.96421875 2.04960937 -1.4609375 3.10546875 C-2.09903194 4.46611131 -2.73704867 5.82679033 -3.375 7.1875 C-3.85066406 8.19780273 -3.85066406 8.19780273 -4.3359375 9.22851562 C-9.03405645 19.16436837 -9.03405645 19.16436837 -9 30 C-7.08737462 34.29491912 -4.63440034 38.11451378 -2 42 C-1.33226563 42.98484375 -0.66453125 43.9696875 0.0234375 44.984375 C1.65608114 47.34337846 3.31176232 49.68059747 5 52 C3.36242083 56.25116066 0.17438473 59.02566748 -3.03125 62.12109375 C-4.24621141 63.31563555 -5.46105144 64.51030081 -6.67578125 65.70507812 C-8.5891361 67.57493647 -10.50489061 69.44225341 -12.42333984 71.30688477 C-14.27828879 73.11347067 -16.1238688 74.92923618 -17.96875 76.74609375 C-18.54274536 77.29833115 -19.11674072 77.85056854 -19.70812988 78.41954041 C-23.25798577 81.92497287 -25.80663031 84.87146258 -26.12817383 90.07373047 C-25.20727544 98.62066826 -22.8942206 106.84076825 -20.6875 115.125 C-20.29160421 116.63002083 -19.89641793 118.13522848 -19.50195312 119.640625 C-18.91488052 121.87991149 -18.32779586 124.11919324 -17.73971558 126.35821533 C-17.1585987 128.57182849 -16.5788606 130.78579578 -16 133 C-15.80343811 133.75148315 -15.60687622 134.50296631 -15.40435791 135.27722168 C-14.83302958 137.4724903 -14.26892504 139.66948745 -13.70703125 141.8671875 C-13.37807861 143.1444873 -13.04912598 144.42178711 -12.71020508 145.73779297 C-12 149 -12 149 -12 153 C-17.51342732 153.12452146 -23.02601847 153.21476997 -28.54052734 153.2746582 C-30.41241737 153.29964898 -32.28421135 153.33365373 -34.15576172 153.37719727 C-54.84134855 153.84607057 -54.84134855 153.84607057 -62 148 C-68.1562448 141.39953064 -70.30094206 135.57666944 -70.29052734 126.54467773 C-70.29724457 125.70490891 -70.30396179 124.86514008 -70.31088257 123.99992371 C-70.32985401 121.22775318 -70.33378714 118.45582514 -70.3359375 115.68359375 C-70.3423689 113.74650474 -70.34909752 111.8094167 -70.35610962 109.87232971 C-70.36808233 105.809639 -70.37179074 101.74703328 -70.37060547 97.68432617 C-70.37040294 92.50527013 -70.39763617 87.32676692 -70.43214989 82.14784145 C-70.45451347 78.14381972 -70.45844003 74.13992867 -70.45738602 70.13585091 C-70.45973041 68.2282732 -70.46848769 66.32069124 -70.48405075 64.41317558 C-70.60655988 47.8378417 -68.33746959 34.2598886 -56.74609375 21.5234375 C-46.81431934 11.99020941 -34.69710316 7.92296136 -21.7331543 4.2199707 C-19.40523152 3.55325837 -17.08451033 2.86475363 -14.76367188 2.17382812 C-13.27901927 1.74090478 -11.79400584 1.30921649 -10.30859375 0.87890625 C-9.61801376 0.6738295 -8.92743378 0.46875275 -8.21592712 0.25746155 C-4.91443047 -0.67327416 -3.33172968 -1.11057656 0 0 Z " fill="#FFDC76" transform="translate(126,359)"/>
<path d="M0 0 C3.65031725 1.53271547 5.93939751 3.72153877 8.6953125 6.53515625 C9.57574219 7.42654297 10.45617187 8.31792969 11.36328125 9.23632812 C12.27464844 10.16896484 13.18601562 11.10160156 14.125 12.0625 C15.93789615 13.90972167 17.75289358 15.75488421 19.5703125 17.59765625 C20.37227051 18.41758057 21.17422852 19.23750488 22.00048828 20.08227539 C23.85596361 22.0514634 23.85596361 22.0514634 26 23 C25.22783222 27.72717349 23.70115079 32.11951532 22.125 36.625 C21.86847656 37.388125 21.61195313 38.15125 21.34765625 38.9375 C21.09113281 39.67226563 20.83460938 40.40703125 20.5703125 41.1640625 C20.34102051 41.82873535 20.11172852 42.4934082 19.87548828 43.17822266 C18.87031179 45.26986431 17.78567547 46.5261182 16 48 C15.34 48 14.68 48 14 48 C14.11754639 48.64582031 14.23509277 49.29164063 14.35620117 49.95703125 C16.04170352 59.59695077 17.17854476 69.28365644 18.3125 79 C18.52746343 80.82561687 18.74255382 82.6512188 18.95776367 84.47680664 C19.64450361 90.3171784 20.32340212 96.15844548 21 102 C21.11811035 103.0193866 21.2362207 104.03877319 21.35791016 105.08905029 C22.18151064 112.20458512 22.99868013 119.32084057 23.8125 126.4375 C23.92340973 127.40373291 24.03431946 128.36996582 24.14859009 129.36547852 C24.46157344 132.09631153 24.77220226 134.82740128 25.08203125 137.55859375 C25.17552856 138.37226913 25.26902588 139.18594452 25.36535645 140.02427673 C25.70458224 143.03413428 26 145.9683039 26 149 C9.5 149 -7 149 -24 149 C-21.70320214 123.73522356 -21.70320214 123.73522356 -20.34375 113.19921875 C-20.19595093 112.02768753 -20.04815186 110.85615631 -19.89587402 109.64912415 C-19.43416855 105.99478387 -18.96733256 102.34112445 -18.5 98.6875 C-18.03496674 95.02518127 -17.57103324 91.3627248 -17.10742188 87.70022583 C-16.80981524 85.34962863 -16.51165044 82.99910203 -16.21289062 80.64865112 C-15.22817013 72.88168223 -14.29270617 65.110734 -13.41210938 57.33129883 C-13.02497258 54.20186659 -12.54398113 51.10562155 -12 48 C-12.62632324 47.90557617 -13.25264648 47.81115234 -13.89794922 47.71386719 C-14.59162598 47.47829102 -15.28530273 47.24271484 -16 47 C-17.2457641 44.38925992 -18.21815529 41.97533224 -19.125 39.25 C-19.62736227 37.81762347 -20.12996115 36.3853299 -20.6328125 34.953125 C-20.86516602 34.27056641 -21.09751953 33.58800781 -21.33691406 32.88476562 C-21.89671369 31.29358258 -22.53031388 29.72865148 -23.1796875 28.171875 C-24 26 -24 26 -24 23 C-22.54882812 21.47241211 -22.54882812 21.47241211 -20.53125 19.83984375 C-15.9294209 15.9836814 -11.71763449 11.83090231 -7.5 7.5625 C-6.77296875 6.83095703 -6.0459375 6.09941406 -5.296875 5.34570312 C-3.52890501 3.56610176 -1.76333622 1.78419082 0 0 Z " fill="#614550" transform="translate(255,363)"/>
<path d="M0 0 C0.76908691 0.37753418 0.76908691 0.37753418 1.55371094 0.76269531 C15.89470156 7.84588603 15.89470156 7.84588603 31 13 C32.05058594 13.29648437 33.10117188 13.59296875 34.18359375 13.8984375 C42.38461044 15.89154969 50.27313988 16.28016339 58.6875 16.3125 C59.72028076 16.31797852 60.75306152 16.32345703 61.81713867 16.32910156 C72.11714526 16.23407247 81.94352353 14.73209196 91.6875 11.375 C92.43499512 11.12282715 93.18249023 10.8706543 93.95263672 10.61083984 C102.26730506 7.70932171 110.11412748 3.89103686 118 0 C118.22334904 4.73194539 118.38615853 9.46079744 118.49438477 14.19677734 C118.53950884 15.80539397 118.60083129 17.41364414 118.67895508 19.02099609 C119.30450676 32.22708724 119.30450676 32.22708724 116.38720703 36.19189453 C114.0046319 37.82684704 111.66886062 38.89484142 109 40 C107.04986813 41.06200114 105.10749634 42.13833882 103.171875 43.2265625 C101.03330881 44.36325692 98.89259746 45.49592264 96.75 46.625 C87.1659094 51.71962873 77.68771789 56.95532879 68.32324219 62.44384766 C67.1113623 63.14840088 67.1113623 63.14840088 65.875 63.8671875 C65.17117188 64.28081543 64.46734375 64.69444336 63.7421875 65.12060547 C62 66 62 66 60 66 C60 66.66 60 67.32 60 68 C59.34 68 58.68 68 58 68 C58 67.34 58 66.68 58 66 C56.91501221 65.58488159 56.91501221 65.58488159 55.80810547 65.16137695 C53.12213209 64.05051142 50.62451062 62.80229571 48.0703125 61.41796875 C47.12075684 60.90419678 46.17120117 60.3904248 45.19287109 59.86108398 C44.18047363 59.30880127 43.16807617 58.75651855 42.125 58.1875 C41.07521973 57.61652588 40.02543945 57.04555176 38.94384766 56.45727539 C31.39153703 52.33624513 23.870954 48.1601196 16.375 43.9375 C14.94631592 43.13445435 14.94631592 43.13445435 13.48876953 42.31518555 C12.59270996 41.80769775 11.69665039 41.30020996 10.7734375 40.77734375 C9.99403809 40.33640381 9.21463867 39.89546387 8.41162109 39.44116211 C7.61578613 38.96557861 6.81995117 38.48999512 6 38 C4.92363281 37.44417236 3.84726563 36.88834473 2.73828125 36.31567383 C0 34 0 34 -0.68115234 30.42480469 C-0.68020788 29.00680654 -0.64661261 27.58857475 -0.5859375 26.171875 C-0.57744781 25.42286926 -0.56895813 24.67386353 -0.56021118 23.90216064 C-0.5266993 21.51662531 -0.45143886 19.13450788 -0.375 16.75 C-0.34489687 15.13025727 -0.31752165 13.51046137 -0.29296875 11.890625 C-0.22691723 7.92577225 -0.12342313 3.96346491 0 0 Z " fill="#DF976C" transform="translate(197,295)"/>
<path d="M0 0 C3.45064709 1.32022419 6.68240276 2.82206449 9.9296875 4.58203125 C10.8791626 5.09580322 11.8286377 5.6095752 12.80688477 6.13891602 C13.81936279 6.69119873 14.83184082 7.24348145 15.875 7.8125 C17.45075806 8.66896118 17.45075806 8.66896118 19.05834961 9.54272461 C32.46900792 16.85662902 45.74103858 24.41565581 59 32 C58.48054759 36.15321719 56.27440896 38.09888758 53.37890625 40.984375 C52.9189476 41.44483215 52.45898895 41.90528931 51.98509216 42.37969971 C51.01440344 43.34805383 50.04003424 44.31273083 49.06225586 45.27392578 C47.56244425 46.75005487 46.07648806 48.23914838 44.59179688 49.73046875 C37.2668115 57 37.2668115 57 35 57 C35.45632812 58.18078125 35.91265625 59.3615625 36.3828125 60.578125 C36.96434024 62.13511864 37.54502568 63.69242705 38.125 65.25 C38.42792969 66.02730469 38.73085937 66.80460937 39.04296875 67.60546875 C39.32011719 68.35957031 39.59726563 69.11367188 39.8828125 69.890625 C40.14465332 70.58188477 40.40649414 71.27314453 40.67626953 71.98535156 C41.10136201 74.6307989 40.41564449 75.77068932 39 78 C37.23046875 79.8515625 37.23046875 79.8515625 35.1875 81.625 C34.18783203 82.51058594 34.18783203 82.51058594 33.16796875 83.4140625 C26.76027768 88.10149056 19.63967156 87.70001515 12 87 C-1.14248355 83.22459712 -12.70253063 65.81364695 -20.921875 55.5546875 C-24.15000231 51.58627535 -27.56561588 47.78998792 -31 44 C-28.36767254 39.07361147 -25.60301175 35.16320536 -21.75 31.0625 C-21.26764893 30.54381348 -20.78529785 30.02512695 -20.28833008 29.49072266 C-17.5081169 26.52005865 -14.6379459 23.67763936 -11.6875 20.875 C-5.76714839 15.02758907 -1.76717082 8.12898575 0 0 Z " fill="#E8E6E7" transform="translate(196,329)"/>
<path d="M0 0 C0.25652344 0.75023437 0.51304687 1.50046875 0.77734375 2.2734375 C4.2984224 11.68669153 9.44350549 17.56176565 16.55859375 24.4921875 C22.13515153 29.94142661 26.78068071 35.43350972 31 42 C26.92991412 47.77422753 22.37227766 52.94401731 17.5859375 58.1328125 C15.07136408 60.92087427 12.6782865 63.77265725 10.3125 66.6875 C9.57773437 67.59113281 8.84296875 68.49476563 8.0859375 69.42578125 C6.7741945 71.0445802 5.46632142 72.66653048 4.1640625 74.29296875 C-0.36518491 79.75470827 -5.20339171 83.7344639 -12 86 C-19.97858215 86.61841615 -27.43550034 87.07323248 -34 82 C-36.47367755 79.7827113 -38.77972595 77.47005488 -41 75 C-39.3186083 68.51292846 -37.46937673 62.2322365 -35 56 C-35.56170898 55.7620874 -36.12341797 55.5241748 -36.70214844 55.27905273 C-41.59836772 52.553671 -45.32298982 48.00326022 -49.25 44.0625 C-50.18585938 43.14275391 -51.12171875 42.22300781 -52.0859375 41.27539062 C-52.97023438 40.39173828 -53.85453125 39.50808594 -54.765625 38.59765625 C-55.57805664 37.78820557 -56.39048828 36.97875488 -57.22753906 36.14477539 C-59 34 -59 34 -59 31 C-57.89434692 30.39079712 -57.89434692 30.39079712 -56.76635742 29.76928711 C-53.89240945 28.18547473 -51.01876905 26.60110603 -48.14520264 25.01660156 C-46.18519556 23.93622978 -44.22469487 22.85675768 -42.26416016 21.77734375 C-35.54981157 18.07812122 -28.84708023 14.36016891 -22.16796875 10.59765625 C-20.32809189 9.56417778 -18.48799471 8.53109252 -16.64785767 7.49807739 C-15.46815523 6.83393252 -14.28974012 6.16749569 -13.11264038 5.49874878 C-11.47148615 4.56649152 -9.82569179 3.64241698 -8.1796875 2.71875 C-6.78339111 1.92887695 -6.78339111 1.92887695 -5.35888672 1.12304688 C-3 0 -3 0 0 0 Z " fill="#E8E6E7" transform="translate(316,330)"/>
<path d="M0 0 C8.01617593 0.41108595 13.95442428 5.62986839 19.3125 11.1875 C27.06289332 20.48487801 27.67693306 30.34279479 27 42 C26.47236902 46.8313459 25.67470188 51.58926734 24.8125 56.37109375 C24.47955933 58.30360741 24.47955933 58.30360741 24.13989258 60.27516174 C23.5590973 63.64548681 22.96349193 67.01301655 22.36437988 70.38012695 C21.75188801 73.83839763 21.15396788 77.29918568 20.5546875 80.75976562 C19.38375626 87.50899198 18.19710399 94.25536792 17 101 C13.79197767 101.11698258 10.58450975 101.18750607 7.375 101.25 C6.47136719 101.28351563 5.56773437 101.31703125 4.63671875 101.3515625 C-1.132278 101.43578143 -4.44033069 100.89671183 -9 97 C-12.75575993 93.15173366 -13.23295722 90.18517649 -13.21484375 85 C-13.13367408 82.66624711 -13.04070658 80.33288222 -12.9375 78 C-12.62273867 63.25426537 -14.45081073 52.05678624 -25 41 C-25.59554687 40.36449219 -26.19109375 39.72898438 -26.8046875 39.07421875 C-33.92412465 32.17634085 -43.94964682 27.91704813 -53.88482666 27.84178162 C-54.86636719 27.8319928 -55.84790771 27.82220398 -56.85919189 27.81211853 C-57.92949646 27.80636307 -58.99980103 27.8006076 -60.10253906 27.79467773 C-61.23453735 27.78477814 -62.36653564 27.77487854 -63.53283691 27.76467896 C-67.27707828 27.73307403 -71.02133234 27.70831037 -74.765625 27.68359375 C-77.36066011 27.66302337 -79.95569187 27.64202687 -82.55072021 27.62062073 C-88.68461062 27.57105306 -94.81851898 27.52578544 -100.95245719 27.48259836 C-107.93672816 27.43318461 -114.9209526 27.37828185 -121.90517855 27.32291877 C-136.27007532 27.20917299 -150.63501751 27.10231788 -165 27 C-165 26.67 -165 26.34 -165 26 C-164.33076885 25.99853344 -163.6615377 25.99706688 -162.97202682 25.99555588 C-146.64446632 25.95841048 -130.31714548 25.89929395 -113.98975754 25.81609726 C-106.09375443 25.77638589 -98.19784984 25.74395347 -90.30175781 25.72900391 C-83.41486253 25.7159462 -76.52818476 25.68887735 -69.64141202 25.64538693 C-65.999085 25.622864 -62.35702532 25.60708375 -58.7146225 25.60811615 C-54.63594172 25.60900849 -50.55804215 25.57860241 -46.47949219 25.54589844 C-45.28833801 25.5509288 -44.09718384 25.55595917 -42.86993408 25.56114197 C-29.21811336 25.39263485 -18.16643274 20.98696554 -8.25 11.625 C-4.88428653 8.11806778 -2.37966641 4.2219888 0 0 Z " fill="#855352" transform="translate(365,69)"/>
<path d="M0 0 C0.495 7.425 0.495 7.425 1 15 C-5.84538247 19.74021254 -12.88824301 23.74559975 -20.25 27.625 C-29.8340906 32.71962873 -39.31228211 37.95532879 -48.67675781 43.44384766 C-49.8886377 44.14840088 -49.8886377 44.14840088 -51.125 44.8671875 C-52.18074219 45.48762939 -52.18074219 45.48762939 -53.2578125 46.12060547 C-55 47 -55 47 -57 47 C-57 47.66 -57 48.32 -57 49 C-57.66 49 -58.32 49 -59 49 C-59 48.34 -59 47.68 -59 47 C-59.71534912 46.72760498 -60.43069824 46.45520996 -61.16772461 46.17456055 C-63.99506986 45.00204456 -66.62640647 43.66568465 -69.31640625 42.20703125 C-70.32316406 41.66199951 -71.32992187 41.11696777 -72.3671875 40.55541992 C-73.94886719 39.69267456 -73.94886719 39.69267456 -75.5625 38.8125 C-76.63628906 38.22895752 -77.71007812 37.64541504 -78.81640625 37.04418945 C-85.95276498 33.15286035 -93.03858656 29.19822083 -100 25 C-97.67891416 19.37478019 -95.68532301 15.78692305 -90 13 C-85.11267065 12.02253413 -81.20213375 12.08446241 -76.3125 12.9375 C-51.19233368 16.55797807 -26.09645157 12.31595455 -3.34375 1.13671875 C-1 0 -1 0 0 0 Z " fill="#F0A673" transform="translate(314,314)"/>
<path d="M0 0 C1.92736244 -0.01891296 1.92736244 -0.01891296 3.8936615 -0.03820801 C5.29312692 -0.03104742 6.69258733 -0.02284324 8.09204102 -0.01367188 C9.53166465 -0.0163677 10.97128651 -0.02025088 12.41090393 -0.02526855 C15.4262935 -0.03116137 18.44120862 -0.02260966 21.45654297 -0.00390625 C25.31481246 0.0188636 29.17196773 0.00577275 33.03019619 -0.01819611 C36.00287713 -0.032678 38.97529568 -0.028037 41.9479847 -0.01768494 C43.37009883 -0.01502314 44.79223706 -0.01826816 46.21432304 -0.02760315 C48.20537716 -0.03780374 50.19651514 -0.01948947 52.1875 0 C53.31905014 0.00318237 54.45060028 0.00636475 55.61643982 0.00964355 C59.34327814 0.63192672 61.03968659 1.82962375 63.65844727 4.51757812 C64.09750185 11.83515451 59.54768005 18.1907778 54.90454102 23.53710938 C45.9410445 32.12634716 35.92072074 34.22565755 23.88867188 34.0390625 C13.23899616 33.59393499 5.32085267 30.01882396 -2.34155273 22.51757812 C-5.87971355 18.03237212 -9.85326888 12.77280384 -10.71655273 7.01757812 C-9.80568144 0.94510286 -5.44791216 0.0153325 0 0 Z " fill="#FEFDFC" transform="translate(229.341552734375,224.482421875)"/>
<path d="M0 0 C3.65031725 1.53271547 5.93939751 3.72153877 8.6953125 6.53515625 C9.57574219 7.42654297 10.45617187 8.31792969 11.36328125 9.23632812 C12.27464844 10.16896484 13.18601562 11.10160156 14.125 12.0625 C15.93789615 13.90972167 17.75289358 15.75488421 19.5703125 17.59765625 C20.37227051 18.41758057 21.17422852 19.23750488 22.00048828 20.08227539 C23.85596361 22.0514634 23.85596361 22.0514634 26 23 C25.22783222 27.72717349 23.70115079 32.11951532 22.125 36.625 C21.86847656 37.388125 21.61195313 38.15125 21.34765625 38.9375 C21.09113281 39.67226563 20.83460938 40.40703125 20.5703125 41.1640625 C20.34102051 41.82873535 20.11172852 42.4934082 19.87548828 43.17822266 C18.51342893 46.01249116 16.79378295 47.60310853 14 49 C9.71322051 49.24417325 5.41794848 49.18520431 1.125 49.1875 C-0.67130859 49.20586914 -0.67130859 49.20586914 -2.50390625 49.22460938 C-3.65503906 49.22654297 -4.80617187 49.22847656 -5.9921875 49.23046875 C-7.04776855 49.23457764 -8.10334961 49.23868652 -9.19091797 49.24291992 C-12.05095655 48.99559345 -13.65652412 48.63632408 -16 47 C-17.21755223 44.37556325 -18.20781537 41.91236334 -19.125 39.1875 C-19.62733174 37.76422674 -20.12992992 36.34104748 -20.6328125 34.91796875 C-20.86516602 34.24169434 -21.09751953 33.56541992 -21.33691406 32.86865234 C-21.89892522 31.28484034 -22.53194383 29.72650532 -23.1796875 28.17578125 C-24 26 -24 26 -24 23 C-22.54882812 21.47241211 -22.54882812 21.47241211 -20.53125 19.83984375 C-15.9294209 15.9836814 -11.71763449 11.83090231 -7.5 7.5625 C-6.77296875 6.83095703 -6.0459375 6.09941406 -5.296875 5.34570312 C-3.52890501 3.56610176 -1.76333622 1.78419082 0 0 Z " fill="#6B4F5A" transform="translate(255,363)"/>
<path d="M0 0 C6.87338279 6.8002617 13.36876677 13.90878428 19.4375 21.4375 C22.78482669 25.54315911 26.1462663 29.6301018 29.625 33.625 C30.05611084 34.14634521 30.48722168 34.66769043 30.93139648 35.20483398 C33.41874916 38.00726696 34.98062936 38.99506401 38.6484375 39.9296875 C43.83137766 40.03842051 46.2797107 37.62974776 49.9296875 34.171875 C51.64889119 32.4733846 53.33609931 30.75251079 55 29 C58.05209186 31.54194394 59.04849281 34.21902065 60.3125 37.9375 C60.86357422 39.49791016 60.86357422 39.49791016 61.42578125 41.08984375 C62 44 62 44 61.34375 46.15234375 C59.80131533 48.27319142 58.16858841 49.90527889 56.1875 51.625 C55.52105469 52.21539062 54.85460937 52.80578125 54.16796875 53.4140625 C47.76027768 58.10149056 40.63967156 57.70001515 33 57 C19.85751645 53.22459712 8.29746937 35.81364695 0.078125 25.5546875 C-3.15000231 21.58627535 -6.56561588 17.78998792 -10 14 C-7.20307439 8.72887096 -4.01764453 4.40601683 0 0 Z " fill="#D8D4D7" transform="translate(175,359)"/>
<path d="M0 0 C4.21814817 3.9700218 7.61227103 8.30840284 11 13 C6.92991412 18.77422753 2.37227766 23.94401731 -2.4140625 29.1328125 C-4.92863592 31.92087427 -7.3217135 34.77265725 -9.6875 37.6875 C-10.78964844 39.04294922 -10.78964844 39.04294922 -11.9140625 40.42578125 C-13.2258055 42.0445802 -14.53367858 43.66653048 -15.8359375 45.29296875 C-20.36518491 50.75470827 -25.20339171 54.7344639 -32 57 C-39.97858215 57.61841615 -47.43550034 58.07323248 -54 53 C-56.47367755 50.7827113 -58.77972595 48.47005488 -61 46 C-59.49829538 40.01448228 -58.05773837 34.38744379 -55 29 C-54.32904297 29.58007812 -54.32904297 29.58007812 -53.64453125 30.171875 C-52.38850962 31.25382114 -51.12783755 32.3303852 -49.86328125 33.40234375 C-48.38067978 34.67358903 -46.93368919 35.9863375 -45.5 37.3125 C-42.13007593 39.58719874 -40.07829639 40.14063091 -36 40 C-30.31345718 36.97244248 -26.44595207 30.9890712 -22.5234375 26.0625 C-19.77843867 22.73110823 -16.89120405 19.58255773 -13.9375 16.4375 C-9.00278651 11.17317928 -4.39592127 5.72762683 0 0 Z " fill="#D8D4D7" transform="translate(336,359)"/>
<path d="M0 0 C1.40572266 -0.01063477 1.40572266 -0.01063477 2.83984375 -0.02148438 C7.81339024 0.02437102 11.5216563 0.10319145 15.5 3.4375 C17.06700442 6.57150885 17.35164561 10.06905095 16.5 13.4375 C14.29564288 16.14761871 12.47179935 17.27702813 9.01318359 17.84814453 C5.99817553 18.04962601 3.02146513 18.08136058 0 18.0625 C-1.54880859 18.11083984 -1.54880859 18.11083984 -3.12890625 18.16015625 C-10.43170662 18.16957922 -10.43170662 18.16957922 -13.32763672 16.18505859 C-15.84147648 13.35000105 -16.49412107 11.60798904 -16.625 7.8125 C-13.85730648 -0.49058056 -7.58262924 -0.16166541 0 0 Z " fill="#875553" transform="translate(305.5,144.5625)"/>
<path d="M0 0 C0.93714844 -0.00257813 1.87429687 -0.00515625 2.83984375 -0.0078125 C7.80540456 0.06262099 11.54257821 0.1707404 15.5 3.5 C17.5 6.5 17.5 6.5 17.4375 9.9375 C16.5 13.5 16.5 13.5 14.6640625 15.69140625 C9.867361 18.43322451 5.36526056 18.080961 -0.0625 18 C-1.62387695 18.02320313 -1.62387695 18.02320313 -3.21679688 18.046875 C-4.21904297 18.04171875 -5.22128906 18.0365625 -6.25390625 18.03125 C-7.16470947 18.02673828 -8.0755127 18.02222656 -9.01391602 18.01757812 C-12.28576984 17.33641048 -13.47812822 16.12065577 -15.5 13.5 C-16.44685039 6.87204724 -16.44685039 6.87204724 -13.62109375 2.77734375 C-9.13143089 -0.49859298 -5.41502167 -0.16386586 0 0 Z " fill="#875553" transform="translate(205.5,144.5)"/>
<path d="M0 0 C0.66 -0.0103125 1.32 -0.020625 2 -0.03125 C5.04782397 0.77832824 6.15682414 1.94542293 8 4.5 C8.40100915 7.33065284 8.56122899 9.68346659 8.5 12.5 C8.51546875 13.2115625 8.5309375 13.923125 8.546875 14.65625 C8.52115187 18.10314984 8.25431936 20.14752229 6.21875 22.96875 C3.88020812 24.58267327 2.80290722 25.04379543 0 25 C-0.66 25.0103125 -1.32 25.020625 -2 25.03125 C-5.04782397 24.22167176 -6.15682414 23.05457707 -8 20.5 C-8.40100915 17.66934716 -8.56122899 15.31653341 -8.5 12.5 C-8.51546875 11.7884375 -8.5309375 11.076875 -8.546875 10.34375 C-8.52115187 6.89685016 -8.25431936 4.85247771 -6.21875 2.03125 C-3.88020812 0.41732673 -2.80290722 -0.04379543 0 0 Z " fill="#62454F" transform="translate(306,170.5)"/>
<path d="M0 0 C0.66 -0.0103125 1.32 -0.020625 2 -0.03125 C5.04782397 0.77832824 6.15682414 1.94542293 8 4.5 C8.40100915 7.33065284 8.56122899 9.68346659 8.5 12.5 C8.51546875 13.2115625 8.5309375 13.923125 8.546875 14.65625 C8.52115187 18.10314984 8.25431936 20.14752229 6.21875 22.96875 C3.88020812 24.58267327 2.80290722 25.04379543 0 25 C-0.66 25.0103125 -1.32 25.020625 -2 25.03125 C-5.04782397 24.22167176 -6.15682414 23.05457707 -8 20.5 C-8.40100915 17.66934716 -8.56122899 15.31653341 -8.5 12.5 C-8.51546875 11.7884375 -8.5309375 11.076875 -8.546875 10.34375 C-8.52115187 6.89685016 -8.25431936 4.85247771 -6.21875 2.03125 C-3.88020812 0.41732673 -2.80290722 -0.04379543 0 0 Z " fill="#62454F" transform="translate(206,170.5)"/>
</svg>
