<?xml version="1.0" encoding="UTF-8"?>
<svg version="1.1" xmlns="http://www.w3.org/2000/svg" width="512" height="512">
<path d="M0 0 C1.28650602 -0.04738889 1.28650602 -0.04738889 2.59900206 -0.09573513 C4.01339653 -0.14047849 4.01339653 -0.14047849 5.45636463 -0.18612576 C6.95911693 -0.23820813 6.95911693 -0.23820813 8.49222785 -0.29134268 C11.86706165 -0.40584186 15.2420853 -0.51247992 18.61720753 -0.61811733 C20.38799042 -0.67551051 20.38799042 -0.67551051 22.1945467 -0.73406315 C44.89430721 -1.46516245 67.59730082 -1.92923732 90.30587153 -2.27772642 C94.03614366 -2.33507573 97.76638144 -2.39442775 101.49660206 -2.45503139 C102.23894019 -2.46705679 102.98127832 -2.47908219 103.74611155 -2.491472 C114.18750165 -2.66505441 124.62000707 -2.95486277 135.0557331 -3.33785491 C152.99832917 -3.99629673 170.93232744 -4.44679656 188.88795948 -4.46552944 C189.57920341 -4.46656251 190.27044734 -4.46759557 190.98263806 -4.46865994 C252.25340468 -4.49530252 252.25340468 -4.49530252 274.41159534 17.30535984 C281.88106988 25.11461087 288.15405794 33.75398965 293.55136585 43.10479832 C296.58345584 48.24037332 300.12452039 51.63908136 304.81374073 55.25712681 C305.90699162 56.16262812 306.99752799 57.0714205 308.08484364 57.98404026 C308.60767398 58.41429256 309.13050432 58.84454487 309.66917801 59.28783512 C318.60872744 66.6511439 327.25866385 74.32122985 335.75124073 82.19462681 C336.46466255 82.85536198 337.17808437 83.51609715 337.91312504 84.19685459 C355.02196938 100.18325797 368.97527152 114.49754616 370.09586048 138.79470921 C370.34864379 149.65964178 369.37741836 160.79407304 367.53859425 171.49090672 C366.36856884 176.99560936 366.36856884 176.99560936 368.00487232 182.06437778 C369.78632106 183.63657991 369.78632106 183.63657991 372.81374073 185.25712681 C375.31779182 187.78333764 377.55658941 190.50929042 379.81374073 193.25712681 C380.58975636 194.19556431 381.36577198 195.13400181 382.16530323 196.10087681 C403.19620184 222.13443049 414.03573691 254.31564756 414.06374073 287.63212681 C414.06441547 288.35054752 414.06509022 289.06896824 414.06578541 289.80915928 C414.04967673 300.59549751 413.55092745 310.77007409 410.81374073 321.25712681 C410.64213428 321.94194126 410.47052784 322.62675571 410.2937212 323.33232212 C406.47398554 338.37231793 400.40122754 352.03858327 392.51295948 365.36650181 C391.19185527 367.61389747 389.97959695 369.92541438 388.81374073 372.25712681 C391.78374073 375.22712681 394.75374073 378.19712681 397.81374073 381.25712681 C401.70833147 379.57335457 401.70833147 379.57335457 403.81374073 377.25712681 C407.03740523 377.611572 409.01094065 378.93747251 411.50905323 380.92509556 C412.21586231 381.48164829 412.92267139 382.03820103 413.65089893 382.611619 C414.40588673 383.21651157 415.16087452 383.82140415 415.93874073 384.44462681 C417.55970235 385.72474205 419.18079999 387.00468507 420.80202198 388.28447056 C421.63169483 388.94302036 422.46136768 389.60157017 423.31618214 390.28007603 C427.23335779 393.38088623 431.17990045 396.44358179 435.12624073 399.50712681 C435.87687794 400.09099155 436.62751514 400.6748563 437.40089893 401.27641392 C441.80054604 404.69814714 446.20755881 408.11001172 450.62624073 411.50712681 C451.65233448 412.29603306 452.67842823 413.08493931 453.73561573 413.89775181 C455.84729305 415.51634711 457.9614744 417.13110045 460.07936573 418.74150181 C462.80272173 420.81473259 465.51103014 422.9063164 468.20973682 425.01152134 C469.28125633 425.84362066 470.35714951 426.67011748 471.43727589 427.49101353 C482.49640732 435.92163655 490.88291592 446.14855603 492.81374073 460.25712681 C493.6945486 475.50187844 490.93967368 487.11310886 481.12624073 498.94462681 C473.55716443 507.08173886 463.86097901 511.92493614 452.75514698 512.53837681 C438.9097812 512.98311513 427.47351617 510.33958388 416.99733448 500.56181431 C414.41151818 497.65867852 412.30354485 494.51160924 410.18874073 491.25712681 C406.99768223 486.35035633 403.36318974 481.86676062 399.68581104 477.32280064 C395.30525323 471.90049225 391.05638558 466.38784578 386.83791065 460.83891392 C382.01911485 454.50623903 377.13181839 448.22840159 372.21852589 441.96879673 C371.65697803 441.25054722 371.09543018 440.53229771 370.51686573 439.79228306 C370.01832081 439.15685581 369.51977589 438.52142857 369.00612354 437.86674595 C367.81374073 436.25712681 367.81374073 436.25712681 366.81374073 434.25712681 C366.8100951 435.01610264 366.80644947 435.77507847 366.80269337 436.55705357 C366.7647071 443.73632299 366.70773527 450.91507955 366.62983799 458.09401798 C366.59045597 461.78414694 366.55822259 465.47404059 366.54274464 469.16435337 C366.52751609 472.73082263 366.4929632 476.29664461 366.44543171 479.86282444 C366.42353983 481.87440719 366.42127233 483.88617289 366.41939259 485.89787388 C366.28911237 494.09501454 365.57906276 499.89373349 360.06764698 506.28056431 C359.50948292 506.72657993 358.95131886 507.17259556 358.37624073 507.63212681 C357.82065479 508.09361118 357.26506886 508.55509556 356.69264698 509.03056431 C352.44476463 511.80361017 348.75465266 512.50750021 343.72353363 512.5116024 C342.49235674 512.5174346 341.26117984 512.52326679 339.99269456 512.52927572 C338.62946917 512.52564264 337.26624428 512.52181828 335.90301991 512.51782322 C334.45247444 512.52084378 333.00193057 512.52473279 331.55138952 512.52941579 C327.56474979 512.53971698 323.57819978 512.53750857 319.59155262 512.53323519 C315.29218723 512.53077178 310.99284365 512.53977739 306.69348621 512.54727268 C298.2699337 512.5600329 289.84641303 512.56181169 281.42285248 512.55947242 C274.57616347 512.55769041 267.72948414 512.55943639 260.88279629 512.56369686 C259.4218864 512.56458964 259.4218864 512.56458964 257.93146319 512.56550046 C255.9529727 512.5667122 253.97448222 512.56792634 251.99599174 512.56914284 C233.43409203 512.58002369 214.87221048 512.57785344 196.31030975 512.57175799 C179.32844423 512.56658959 162.3466361 512.5778413 145.36478194 512.59685621 C127.93074826 512.61622786 110.49674174 512.62449172 93.06269723 512.62073296 C83.27368553 512.61881974 73.48472265 512.62132021 63.69571972 512.6354475 C55.3612603 512.64735376 47.02687974 512.64877474 38.69241925 512.63665733 C34.44030764 512.63076306 30.18834034 512.62968432 25.93623829 512.64165974 C22.04202002 512.65249971 18.14806688 512.64943775 14.25386111 512.63539805 C12.84674443 512.63274589 11.4396071 512.63513399 10.03251066 512.64313392 C-6.01826015 512.72803896 -6.01826015 512.72803896 -12.42844677 507.38993931 C-12.96727489 506.72736118 -13.50610302 506.06478306 -14.06125927 505.38212681 C-14.89270458 504.395994 -14.89270458 504.395994 -15.74094677 503.38993931 C-19.07849729 498.46479719 -19.47468194 493.99438196 -19.44073486 488.16510296 C-19.44394134 487.35101154 -19.44714782 486.53692013 -19.45045146 485.69815928 C-19.45878051 482.95880239 -19.45281702 480.21966249 -19.44695568 477.48030186 C-19.44997504 475.50106979 -19.45386343 473.52183888 -19.45854825 471.54261005 C-19.46886481 466.09464566 -19.46663713 460.64674681 -19.46236765 455.19877696 C-19.45990705 449.3268215 -19.4689063 443.4548821 -19.47640514 437.58293247 C-19.48917277 426.07558318 -19.49094326 414.5682572 -19.48860488 403.06090201 C-19.48677304 393.70991504 -19.48852953 384.35893324 -19.49282932 375.00794697 C-19.49343172 373.66504304 -19.49403292 372.32213912 -19.49463293 370.97923519 C-19.49554017 368.95566483 -19.49644883 366.93209447 -19.49736528 364.90852411 C-19.50579645 346.09117226 -19.51012938 327.273823 -19.50595856 308.45646954 C-19.50580218 307.74690322 -19.50564581 307.0373369 -19.50548469 306.30626858 C-19.50467889 302.70981479 -19.50383312 299.11336101 -19.50297139 295.51690723 C-19.5028003 294.80262627 -19.50262921 294.08834531 -19.50245294 293.35241948 C-19.50210629 291.90796939 -19.50175776 290.4635193 -19.50140735 289.01906922 C-19.49604987 266.54225389 -19.50398067 244.06547779 -19.52244091 221.58866978 C-19.54315183 196.34184577 -19.55388535 171.09504606 -19.54986542 145.84821308 C-19.54947007 143.15678811 -19.54910853 140.46536315 -19.54876804 137.77393818 C-19.54867731 137.11123041 -19.54858658 136.44852264 -19.5484931 135.76573282 C-19.54732658 125.75662918 -19.55401565 115.74755046 -19.56457996 105.73845387 C-19.57647145 94.35647381 -19.57792378 82.97455149 -19.5657898 71.59257068 C-19.55988539 65.78316677 -19.55884473 59.9738686 -19.5707922 54.16447163 C-19.58159784 48.84858865 -19.57861126 43.53290036 -19.56453051 38.2170267 C-19.56186887 36.29176163 -19.56429583 34.36648156 -19.57226638 32.44123115 C-19.58233783 29.82752881 -19.57398013 27.21450771 -19.56098938 24.60083294 C-19.56829873 23.85056546 -19.57560807 23.10029798 -19.58313891 22.32729512 C-19.51666961 15.89058328 -18.05062876 11.36051803 -13.74875927 6.50712681 C-9.24598671 2.55347285 -6.11909062 0.21161728 0 0 Z " fill="#F1F1F1" transform="translate(19.186259269714355,-0.2571268081665039)"/>
<path d="M0 0 C0.70664795 0.00281982 1.4132959 0.00563965 2.14135742 0.00854492 C36.0626126 0.21162032 67.23132433 11.61516214 93.70019531 32.96826172 C95.22569394 34.19266339 96.77947957 35.38160912 98.3359375 36.56640625 C103.70855798 40.68864208 108.15593705 45.02520622 112.375 50.3125 C113.53128906 51.71435547 113.53128906 51.71435547 114.7109375 53.14453125 C135.76702786 79.15330901 146.5970059 111.38258866 146.625 144.6875 C146.62567474 145.40592072 146.62634949 146.12434143 146.62704468 146.86453247 C146.610936 157.6508707 146.11218672 167.82544728 143.375 178.3125 C143.20339355 178.99731445 143.03178711 179.68212891 142.85498047 180.38769531 C139.03524481 195.42769112 132.96248681 209.09395647 125.07421875 222.421875 C123.75311454 224.66927066 122.54085622 226.98078757 121.375 229.3125 C126.325 234.2625 126.325 234.2625 131.375 239.3125 C123.30726586 248.94896023 114.67497956 258.09480264 105.875 267.0625 C105.28783203 267.67101807 104.70066406 268.27953613 104.09570312 268.90649414 C103.53818359 269.46844482 102.98066406 270.03039551 102.40625 270.609375 C101.91705078 271.10791992 101.42785156 271.60646484 100.92382812 272.12011719 C99.06352397 273.55229334 97.70629591 274.05876146 95.375 274.3125 C92.88479507 272.13858228 90.85381414 269.71586102 88.69140625 267.21875 C86.57624286 265.0759813 86.57624286 265.0759813 84.0546875 265.26953125 C80.46834946 266.66538002 77.23292539 268.53675938 73.9375 270.5 C62.5996582 277.0488165 50.99237975 281.74844822 38.375 285.3125 C36.91900391 285.745625 36.91900391 285.745625 35.43359375 286.1875 C24.80972601 289.26088594 14.43419137 289.49895755 3.45654297 289.49780273 C1.14401633 289.49998208 -1.16802652 289.51817106 -3.48046875 289.53710938 C-15.81875229 289.58570449 -27.46863835 288.33621721 -39.3125 284.6875 C-40.15699707 284.42880127 -41.00149414 284.17010254 -41.87158203 283.90356445 C-77.90965571 272.4815327 -108.62724743 247.38945533 -126.75390625 214.11328125 C-133.98193398 199.77584351 -138.38597157 184.99007515 -141.625 169.3125 C-141.8209375 168.42433594 -142.016875 167.53617188 -142.21875 166.62109375 C-143.16523701 161.24249932 -143.33265701 155.75810464 -143.625 150.3125 C-143.68042969 149.33539063 -143.73585937 148.35828125 -143.79296875 147.3515625 C-144.24296438 131.3660033 -141.93841295 114.40567301 -136.625 99.3125 C-136.28984375 98.301875 -135.9546875 97.29125 -135.609375 96.25 C-124.25977378 64.27929235 -102.58767486 39.86025155 -74.625 21.3125 C-73.83996094 20.77882812 -73.05492187 20.24515625 -72.24609375 19.6953125 C-51.01335185 6.03250467 -24.96421439 -0.14399606 0 0 Z " fill="#83DAFE" transform="translate(286.625,142.6875)"/>
<path d="M0 0 C0.70664795 0.00281982 1.4132959 0.00563965 2.14135742 0.00854492 C36.0626126 0.21162032 67.23132433 11.61516214 93.70019531 32.96826172 C95.22569394 34.19266339 96.77947957 35.38160912 98.3359375 36.56640625 C103.70855798 40.68864208 108.15593705 45.02520622 112.375 50.3125 C113.53128906 51.71435547 113.53128906 51.71435547 114.7109375 53.14453125 C135.76702786 79.15330901 146.5970059 111.38258866 146.625 144.6875 C146.62567474 145.40592072 146.62634949 146.12434143 146.62704468 146.86453247 C146.610936 157.6508707 146.11218672 167.82544728 143.375 178.3125 C143.20339355 178.99731445 143.03178711 179.68212891 142.85498047 180.38769531 C139.03524481 195.42769112 132.96248681 209.09395647 125.07421875 222.421875 C123.75311454 224.66927066 122.54085622 226.98078757 121.375 229.3125 C126.325 234.2625 126.325 234.2625 131.375 239.3125 C123.30726586 248.94896023 114.67497956 258.09480264 105.875 267.0625 C105.28783203 267.67101807 104.70066406 268.27953613 104.09570312 268.90649414 C103.53818359 269.46844482 102.98066406 270.03039551 102.40625 270.609375 C101.91705078 271.10791992 101.42785156 271.60646484 100.92382812 272.12011719 C99.06352397 273.55229334 97.70629591 274.05876146 95.375 274.3125 C92.88479507 272.13858228 90.85381414 269.71586102 88.69140625 267.21875 C86.57624286 265.0759813 86.57624286 265.0759813 84.0546875 265.26953125 C80.46834946 266.66538002 77.23292539 268.53675938 73.9375 270.5 C62.5996582 277.0488165 50.99237975 281.74844822 38.375 285.3125 C36.91900391 285.745625 36.91900391 285.745625 35.43359375 286.1875 C24.80972601 289.26088594 14.43419137 289.49895755 3.45654297 289.49780273 C1.14401633 289.49998208 -1.16802652 289.51817106 -3.48046875 289.53710938 C-15.81875229 289.58570449 -27.46863835 288.33621721 -39.3125 284.6875 C-40.15699707 284.42880127 -41.00149414 284.17010254 -41.87158203 283.90356445 C-77.90965571 272.4815327 -108.62724743 247.38945533 -126.75390625 214.11328125 C-133.98193398 199.77584351 -138.38597157 184.99007515 -141.625 169.3125 C-141.8209375 168.42433594 -142.016875 167.53617188 -142.21875 166.62109375 C-143.16523701 161.24249932 -143.33265701 155.75810464 -143.625 150.3125 C-143.68042969 149.33539063 -143.73585937 148.35828125 -143.79296875 147.3515625 C-144.24296438 131.3660033 -141.93841295 114.40567301 -136.625 99.3125 C-136.28984375 98.301875 -135.9546875 97.29125 -135.609375 96.25 C-124.25977378 64.27929235 -102.58767486 39.86025155 -74.625 21.3125 C-73.83996094 20.77882812 -73.05492187 20.24515625 -72.24609375 19.6953125 C-51.01335185 6.03250467 -24.96421439 -0.14399606 0 0 Z M-71.625 61.3125 C-72.18832031 61.75335938 -72.75164062 62.19421875 -73.33203125 62.6484375 C-92.36428307 77.61311044 -105.35669487 104.15117929 -108.265625 127.80078125 C-108.625 130.3125 -108.625 130.3125 -109.625 132.3125 C-111.29349863 153.24352768 -108.29352295 172.28085564 -99.625 191.3125 C-98.93083984 192.88257813 -98.93083984 192.88257813 -98.22265625 194.484375 C-85.29733532 222.12522751 -60.60965525 240.86444744 -32.625 251.3125 C-21.43174665 254.98596152 -10.89831607 255.47300525 0.8125 255.4375 C2.08416016 255.44136719 3.35582031 255.44523438 4.66601562 255.44921875 C15.32884822 255.43816345 24.38851271 254.68529493 34.5 251.25 C35.41579834 250.93981934 36.33159668 250.62963867 37.27514648 250.31005859 C65.38922145 240.45918968 88.11772756 220.29603316 101.33203125 193.71875 C103.37942268 189.41167339 105.18116436 185.0430442 106.8125 180.5625 C107.16489746 179.60875488 107.16489746 179.60875488 107.52441406 178.63574219 C111.39476714 167.28844034 111.78311788 155.37845408 111.75 143.5 C111.74978851 142.79628265 111.74957703 142.09256531 111.74935913 141.36752319 C111.71774529 130.82153474 111.03635057 121.29690665 107.375 111.3125 C107.024375 110.23355469 106.67375 109.15460938 106.3125 108.04296875 C101.57149691 94.42904669 94.11719537 81.91476077 84.375 71.3125 C83.92785645 70.82297852 83.48071289 70.33345703 83.02001953 69.82910156 C75.89940163 62.11937659 68.34401573 55.8494415 59.375 50.3125 C58.27027344 49.62414062 57.16554688 48.93578125 56.02734375 48.2265625 C15.18056382 24.07522997 -36.15211014 31.38025901 -71.625 61.3125 Z " fill="#40596B" transform="translate(286.625,142.6875)"/>
<path d="M0 0 C2.32813995 0.84979681 3.85662139 1.89245617 5.79418945 3.43408203 C6.85440308 4.26891113 6.85440308 4.26891113 7.93603516 5.12060547 C9.06851685 6.02794434 9.06851685 6.02794434 10.22387695 6.95361328 C11.84483858 8.23372852 13.46593622 9.51367155 15.0871582 10.79345703 C16.33166748 11.78128174 16.33166748 11.78128174 17.60131836 12.7890625 C21.51849401 15.88987271 25.46503667 18.95256826 29.41137695 22.01611328 C30.53733276 22.8919104 30.53733276 22.8919104 31.68603516 23.78540039 C36.08568226 27.20713362 40.49269503 30.61899819 44.91137695 34.01611328 C45.9374707 34.80501953 46.96356445 35.59392578 48.02075195 36.40673828 C50.13242927 38.02533359 52.24661062 39.64008692 54.36450195 41.25048828 C57.08785795 43.32371907 59.79616636 45.41530287 62.49487305 47.52050781 C63.56639255 48.35260713 64.64228573 49.17910395 65.72241211 50 C76.78154354 58.43062302 85.16805214 68.65754251 87.09887695 82.76611328 C87.97968483 98.01086492 85.2248099 109.62209534 75.41137695 121.45361328 C67.84230065 129.59072533 58.14611524 134.43392262 47.0402832 135.04736328 C33.19491742 135.49210161 21.75865239 132.84857036 11.2824707 123.07080078 C8.69665441 120.16766499 6.58868108 117.02059571 4.47387695 113.76611328 C1.28281845 108.8593428 -2.35167404 104.37574709 -6.02905273 99.83178711 C-10.41521445 94.40254214 -14.67063744 88.88364455 -18.89233398 83.32592773 C-21.75220703 79.56520321 -24.63179898 75.82286447 -27.5534668 72.10986328 C-34.03660101 63.86743907 -40.29669411 55.64269327 -45.90112305 46.76611328 C-44.32100291 43.26727583 -43.29238989 42.4617467 -39.90112305 40.76611328 C-39.61906006 40.17797852 -39.33699707 39.58984375 -39.04638672 38.98388672 C-37.61673569 36.21540454 -35.80323362 34.46018216 -33.5769043 32.28173828 C-32.71258789 31.42837891 -31.84827148 30.57501953 -30.95776367 29.69580078 C-30.05219727 28.81150391 -29.14663086 27.92720703 -28.21362305 27.01611328 C-22.19444809 21.11513304 -16.38167384 15.17041293 -10.90112305 8.76611328 C-9.36092088 7.05823747 -7.80232258 5.36647115 -6.21362305 3.70361328 C-5.48788086 2.92888672 -4.76213867 2.15416016 -4.0144043 1.35595703 C-1.90112305 -0.23388672 -1.90112305 -0.23388672 0 0 Z " fill="#FED05C" transform="translate(424.901123046875,377.23388671875)"/>
<path d="M0 0 C3.47425512 1.64125754 5.74649635 3.49852516 8.47387695 6.23095703 C9.35191483 7.10591827 10.2299527 7.98087952 11.13459778 8.88235474 C12.08600364 9.84066393 13.03722684 10.79915451 13.98828125 11.7578125 C14.97434043 12.74506539 15.96077133 13.73194714 16.94755554 14.71847534 C19.01592197 16.78840498 21.0808911 18.86164521 23.14331055 20.9375 C25.76728855 23.57836709 28.39769916 26.21270554 31.03051472 28.84475899 C33.07018517 30.88470366 35.10722111 32.92726248 37.14342308 34.97066879 C38.11113294 35.9415293 39.07942184 36.91181305 40.04833412 37.88147354 C48.51713108 46.36396366 48.51713108 46.36396366 52.28613281 50.79272461 C57.16319769 56.46566175 62.54802473 61.65783442 67.85186577 66.92703056 C69.84173774 68.90402321 71.82836705 70.88422473 73.81422424 72.86524963 C78.01916367 77.0588343 82.22805677 81.24843684 86.4375 85.4375 C91.34135467 90.3177631 96.24358075 95.1996396 101.14164925 100.08571053 C103.10294302 102.04050318 105.06721167 103.99227323 107.03160095 105.94395447 C108.22230381 107.13102828 109.41286845 108.31824076 110.60327148 109.50561523 C111.15331848 110.05049591 111.70336548 110.59537659 112.27008057 111.1567688 C113.53250355 112.4190119 114.7693698 113.70674103 116 115 C116 115.33 116 115.66 116 116 C102.95219166 116.09273264 89.90446188 116.16378189 76.85639095 116.20724869 C70.79745266 116.22811194 64.73874005 116.25640714 58.67993164 116.30175781 C52.83143969 116.34525966 46.98316466 116.36914661 41.13452339 116.37950897 C38.90461374 116.38689247 36.67471578 116.40131073 34.44489861 116.42292023 C31.31839334 116.45201114 28.19278122 116.45595352 25.06616211 116.45410156 C24.14690445 116.46848267 23.22764679 116.48286377 22.28053284 116.49768066 C15.45697986 116.45402451 11.22477386 114.92388219 6.07421875 110.25390625 C5.61660156 109.69574219 5.15898437 109.13757813 4.6875 108.5625 C4.21699219 108.00691406 3.74648438 107.45132813 3.26171875 106.87890625 C-0.3577165 101.48897326 -0.27630143 96.53421324 -0.22705078 90.25268555 C-0.22734283 89.27659836 -0.22763489 88.30051117 -0.22793579 87.29484558 C-0.22654482 84.07537888 -0.21099438 80.85614492 -0.1953125 77.63671875 C-0.19158155 75.4018415 -0.18873496 73.1669626 -0.18673706 70.93208313 C-0.1791071 65.0548347 -0.15946398 59.17768539 -0.1373291 53.30047607 C-0.11685701 47.30124248 -0.10773242 41.30199284 -0.09765625 35.30273438 C-0.07621757 23.53511274 -0.04208922 11.76756462 0 0 Z " fill="#CDD6E0" transform="translate(267,1)"/>
<path d="M0 0 C56.1 0 112.2 0 170 0 C170 8.91 170 17.82 170 27 C113.9 27 57.8 27 0 27 C0 18.09 0 9.18 0 0 Z " fill="#FED15E" transform="translate(45,81)"/>
<path d="M0 0 C56.1 0 112.2 0 170 0 C167.173342 2.826658 164.5070218 4.73949358 161.1875 6.9375 C153.12266572 12.38895463 144.5731481 18.59369266 138.25694656 26.06061172 C135.41456942 28.50305897 134.06165796 28.48407739 130.355896 28.4430542 C129.20607239 28.4401387 128.05624878 28.43722321 126.87158203 28.43421936 C125.6142627 28.41048752 124.35694336 28.38675568 123.06152344 28.36230469 C121.72106207 28.35131149 120.38058514 28.34209383 119.0401001 28.33451843 C115.40373667 28.30893666 111.76809134 28.25851247 108.13206768 28.20364666 C104.33120031 28.15051151 100.53015291 28.12019426 96.72906494 28.08746338 C89.53243645 28.02202273 82.3362056 27.93604228 75.13989091 27.84269357 C66.9466354 27.73741207 58.75319989 27.6550104 50.55966902 27.5745368 C33.70609161 27.40849467 16.8530875 27.21068016 0 27 C0 18.09 0 9.18 0 0 Z " fill="#CDD6E0" transform="translate(45,162)"/>
<path d="M0 0 C47.19 0 94.38 0 143 0 C143 8.91 143 17.82 143 27 C95.81 27 48.62 27 0 27 C0 18.09 0 9.18 0 0 Z " fill="#CDD6E0" transform="translate(45,404)"/>
<path d="M0 0 C8.12853445 4.65606185 13.0903595 13.17721912 16 22 C18.77487843 35.31941648 17.44924917 48.06726181 10.5 59.7734375 C3.94336003 69.50594996 -4.55633352 76.48473781 -16.03515625 79.53125 C-30.26724857 81.78138317 -42.42357518 79.95438757 -54.50390625 71.91796875 C-57.93366436 69.28258341 -60.39841081 66.44534785 -63 63 C-62.16082031 62.26910156 -62.16082031 62.26910156 -61.3046875 61.5234375 C-55.97911543 56.81433036 -50.84664609 51.95542871 -45.8125 46.9375 C-45.24321777 46.37272949 -44.67393555 45.80795898 -44.08740234 45.22607422 C-41.19935914 42.32803491 -38.43042187 39.37307393 -35.76806641 36.26586914 C-32.11584525 32.0751226 -28.26116458 28.13283788 -24.31640625 24.21875 C-23.61603745 23.51979614 -22.91566864 22.82084229 -22.19407654 22.10070801 C-19.98591542 19.89808461 -17.77427963 17.69898919 -15.5625 15.5 C-14.05250186 13.99502492 -12.5427341 12.48981865 -11.03320312 10.984375 C-7.35812359 7.32024171 -3.67992644 3.6592652 0 0 Z " fill="#FF7058" transform="translate(495,432)"/>
<path d="M0 0 C1.3993314 2.7986628 2.4782491 5.19540138 3.4375 8.1171875 C3.69273437 8.88933594 3.94796875 9.66148437 4.2109375 10.45703125 C4.60152344 11.65392578 4.60152344 11.65392578 5 12.875 C5.39058594 14.06029297 5.39058594 14.06029297 5.7890625 15.26953125 C6.27874381 16.75588714 6.76718222 18.24265356 7.25390625 19.72998047 C8.16086279 22.48943135 9.08146098 25.24438294 10 28 C-26.96 28 -63.92 28 -102 28 C-102 19.09 -102 10.18 -102 1 C-51.51 0.505 -51.51 0.505 0 0 Z " fill="#CDD6E0" transform="translate(147,322)"/>
<path d="M0 0 C34.65 0 69.3 0 105 0 C103.68 5.94 102.36 11.88 101 18 C100.67 20.97 100.34 23.94 100 27 C67 27 34 27 0 27 C0 18.09 0 9.18 0 0 Z " fill="#CDD6E0" transform="translate(45,243)"/>
</svg>
